<?xml version="1.0" encoding="UTF-8"?>
<svg version="1.1" xmlns="http://www.w3.org/2000/svg" width="500" height="500">
<path d="M0 0 C165 0 330 0 500 0 C500 165 500 330 500 500 C335 500 170 500 0 500 C0 335 0 170 0 0 Z " fill="#FEFEFE" transform="translate(0,0)"/>
<path d="M0 0 C1.1280455 -0.00315216 2.256091 -0.00630432 3.4183197 -0.009552 C4.63709305 -0.00752777 5.85586639 -0.00550354 7.11157227 -0.00341797 C8.9887368 -0.00485306 8.9887368 -0.00485306 10.90382385 -0.00631714 C13.55261683 -0.0069982 16.2013178 -0.00564985 18.85009766 -0.00097656 C22.24067853 0.00471472 25.63118013 0.0014436 29.02175808 -0.00454903 C32.26003229 -0.00903813 35.49829702 -0.00589173 38.73657227 -0.00341797 C39.95332138 -0.0054422 41.1700705 -0.00746643 42.4236908 -0.009552 C44.12048729 -0.00482376 44.12048729 -0.00482376 45.8515625 0 C47.34356422 0.00119339 47.34356422 0.00119339 48.8657074 0.00241089 C51.24664374 0.11759806 53.20413307 0.50755468 55.49047852 1.12939453 C57.87504803 1.26739333 60.26274147 1.35424351 62.65063477 1.41064453 C63.34914047 1.42864609 64.04764618 1.44664764 64.76731873 1.4651947 C66.25881591 1.50345888 67.75036077 1.53990045 69.24194336 1.57467651 C73.09723979 1.66595776 76.9520233 1.77541255 80.80688477 1.88330078 C81.93950241 1.91460838 81.93950241 1.91460838 83.09500122 1.94654846 C89.06198882 2.11294856 95.02711405 2.29739112 100.99047852 2.56689453 C101.74723877 2.59396484 102.50399902 2.62103516 103.28369141 2.64892578 C108.25630169 2.89521771 108.25630169 2.89521771 110.49047852 5.12939453 C110.18206832 10.52657295 107.2994642 15.48002523 103.36547852 19.06689453 C101.49047852 20.12939453 101.49047852 20.12939453 99.49047852 20.12939453 C99.53172852 21.07814453 99.57297852 22.02689453 99.61547852 23.00439453 C99.49047852 26.12939453 99.49047852 26.12939453 97.49047852 28.12939453 C94.7487793 28.38818359 94.7487793 28.38818359 91.18579102 28.39501953 C90.5315213 28.39765808 89.87725159 28.40029663 89.20315552 28.40301514 C87.00708336 28.40691154 84.81150129 28.39396808 82.61547852 28.37939453 C81.85505249 28.37762207 81.09462646 28.37584961 80.31115723 28.37402344 C66.76913078 28.33755038 53.26445266 27.79206362 39.74047852 27.12939453 C22.15396409 26.23530824 22.15396409 26.23530824 4.55297852 25.75439453 C3.22411621 25.71572266 3.22411621 25.71572266 1.8684082 25.67626953 C-1.95847269 25.66383955 -4.2195984 25.94885496 -7.50170898 27.99267578 C-9.67534471 30.305864 -10.51367407 32.14185229 -11.50952148 35.12939453 C-12.16952148 36.11939453 -12.82952148 37.10939453 -13.50952148 38.12939453 C-13.79780813 40.16768993 -13.79780813 40.16768993 -13.73657227 42.41723633 C-13.7364212 43.27790207 -13.73627014 44.13856781 -13.7361145 45.02531433 C-13.72579193 45.95040298 -13.71546936 46.87549164 -13.70483398 47.82861328 C-13.70058914 49.25389091 -13.70058914 49.25389091 -13.69625854 50.70796204 C-13.68505864 53.74440068 -13.65995436 56.78054495 -13.63452148 59.81689453 C-13.62449144 61.87483298 -13.61536563 63.93277605 -13.60717773 65.99072266 C-13.58511991 71.03706013 -13.5505913 76.08317741 -13.50952148 81.12939453 C-9.87269948 82.34166853 -6.40663931 82.47680391 -2.61108398 82.66064453 C-1.78685944 82.70217651 -0.96263489 82.7437085 -0.11343384 82.78649902 C13.56642186 83.41993958 27.2687021 83.49558642 40.96020508 83.68164062 C44.65005744 83.73305892 48.33978468 83.79030075 52.02954102 83.84814453 C53.16783356 83.86171997 54.3061261 83.87529541 55.47891235 83.88928223 C57.03852188 83.91435852 57.03852188 83.91435852 58.62963867 83.93994141 C59.54717926 83.95246948 60.46471985 83.96499756 61.4100647 83.97790527 C63.49047852 84.12939453 63.49047852 84.12939453 64.49047852 85.12939453 C64.72577263 90.6588063 64.72577263 90.6588063 63.49047852 93.12939453 C62.83047852 93.12939453 62.17047852 93.12939453 61.49047852 93.12939453 C61.32032227 93.69787109 61.15016602 94.26634766 60.97485352 94.85205078 C59.34337025 100.05023417 57.58784808 104.62412971 54.49047852 109.12939453 C51.22704812 110.39456501 47.92528229 110.25854202 44.45922852 110.26220703 C43.26563721 110.26414062 42.0720459 110.26607422 40.84228516 110.26806641 C39.57118896 110.26355469 38.30009277 110.25904297 36.99047852 110.25439453 C35.68780029 110.25246094 34.38512207 110.25052734 33.04296875 110.24853516 C24.72845732 110.21165235 16.45466648 109.96768106 8.1550293 109.49194336 C-2.18230457 108.80683197 -2.18230457 108.80683197 -12.50952148 109.12939453 C-15.44449747 112.06437052 -14.82633535 115.19466262 -14.85327148 119.12939453 C-14.86789429 119.92087891 -14.88251709 120.71236328 -14.89758301 121.52783203 C-14.94416761 124.06163497 -14.97832596 126.5953581 -15.00952148 129.12939453 C-15.05056047 132.46302304 -15.10418813 135.79608939 -15.16577148 139.12939453 C-15.17104858 139.90025391 -15.17632568 140.67111328 -15.1817627 141.46533203 C-15.28391786 146.90379091 -15.28391786 146.90379091 -17.50952148 149.12939453 C-19.83203125 149.37231445 -19.83203125 149.37231445 -22.70092773 149.35986328 C-23.72766602 149.35792969 -24.7544043 149.35599609 -25.81225586 149.35400391 C-26.88797852 149.34175781 -27.96370117 149.32951172 -29.07202148 149.31689453 C-30.15161133 149.31625 -31.23120117 149.31560547 -32.34350586 149.31494141 C-40.36937551 149.26954051 -40.36937551 149.26954051 -41.50952148 148.12939453 C-41.60859553 146.33188274 -41.63751383 144.53046413 -41.63891602 142.73022461 C-41.64206818 141.57424271 -41.64522034 140.4182608 -41.64846802 139.22724915 C-41.64644379 137.96390244 -41.64441956 136.70055573 -41.64233398 135.39892578 C-41.64329071 134.10178146 -41.64424744 132.80463715 -41.64523315 131.46818542 C-41.64671209 128.7081891 -41.64455381 125.94822501 -41.63989258 123.18823242 C-41.63426786 119.69096376 -41.63742608 116.19377308 -41.64346504 112.69650745 C-41.64801094 109.32647451 -41.64479599 105.95646093 -41.64233398 102.58642578 C-41.64435822 101.34939407 -41.64638245 100.11236237 -41.64846802 98.83784485 C-41.62952437 91.64443317 -41.29841688 84.54121313 -40.73641968 77.37049866 C-40.42324501 72.89698701 -40.37456768 68.44403029 -40.36889648 63.96142578 C-40.35059097 62.14305365 -40.3310228 60.32469387 -40.31030273 58.50634766 C-40.28131093 55.71551841 -40.25951863 52.92551161 -40.2590332 50.13452148 C-40.23422655 29.86925741 -40.23422655 29.86925741 -34.50952148 21.12939453 C-34.09154297 20.49074463 -33.67356445 19.85209473 -33.24291992 19.1940918 C-32.0824407 17.56753729 -30.79855082 16.03108866 -29.50952148 14.50439453 C-28.68452148 13.50150391 -27.85952148 12.49861328 -27.00952148 11.46533203 C-24.37944166 9.00785119 -23.04239216 8.39435983 -19.50952148 8.12939453 C-19.50952148 7.46939453 -19.50952148 6.80939453 -19.50952148 6.12939453 C-17.73954674 5.31502585 -15.96850996 4.50296513 -14.19702148 3.69189453 C-13.21088867 3.23943359 -12.22475586 2.78697266 -11.20874023 2.32080078 C-7.2335544 0.56619632 -4.3138103 0.0034532 0 0 Z " fill="#010101" transform="translate(229.509521484375,167.87060546875)"/>
<path d="M0 0 C0.88552551 0.00773941 1.77105103 0.01547882 2.68341064 0.02345276 C4.71562556 0.04307915 6.74779662 0.06762465 8.77990723 0.09606934 C12.61979284 0.14969563 16.45975581 0.18999029 20.29980469 0.22949219 C27.94096763 0.31065998 35.5817972 0.41120201 43.22265625 0.5168457 C46.40036629 0.56069411 49.57809269 0.60231758 52.75585938 0.6418457 C68.13807369 0.83363471 83.51709759 1.03841294 98.890625 1.6171875 C99.92693054 1.65428329 100.96323608 1.69137909 102.03094482 1.729599 C102.96464905 1.76863846 103.89835327 1.80767792 104.86035156 1.84790039 C105.66651917 1.88097794 106.47268677 1.91405548 107.30328369 1.94813538 C109.25 2.14453125 109.25 2.14453125 111.25 3.14453125 C111.25 6.11453125 111.25 9.08453125 111.25 12.14453125 C109.93 12.80453125 108.61 13.46453125 107.25 14.14453125 C106.43129815 17.70659786 106.43129815 17.70659786 106.25 21.14453125 C105.26 21.47453125 104.27 21.80453125 103.25 22.14453125 C103.064375 23.81515625 103.064375 23.81515625 102.875 25.51953125 C102.25 29.14453125 102.25 29.14453125 100.25 31.14453125 C99.26 31.14453125 98.27 31.14453125 97.25 31.14453125 C96.92 32.13453125 96.59 33.12453125 96.25 34.14453125 C61.53479316 34.45775841 26.93412811 33.60516278 -7.75 32.14453125 C-8.08 33.13453125 -8.41 34.12453125 -8.75 35.14453125 C-10.73 35.63953125 -10.73 35.63953125 -12.75 36.14453125 C-12.75 51.65453125 -12.75 67.16453125 -12.75 83.14453125 C-8.24601562 83.27730469 -3.74203125 83.41007812 0.8984375 83.546875 C3.76954393 83.63307997 6.64064119 83.71949184 9.51171875 83.80664062 C14.05837406 83.9446305 18.60504236 84.08189711 23.15185547 84.21459961 C26.82186035 84.32176004 30.49174686 84.43237824 34.16157913 84.54528999 C35.55440288 84.58755567 36.94726361 84.62862232 38.34016037 84.66840935 C60.12652775 85.29310267 60.12652775 85.29310267 65.25 88.14453125 C65.59986966 92.34296715 64.85104849 93.91923112 62.25 97.14453125 C62.085 97.86640625 61.92 98.58828125 61.75 99.33203125 C61.585 99.93015625 61.42 100.52828125 61.25 101.14453125 C59.765 101.63953125 59.765 101.63953125 58.25 102.14453125 C58.188125 103.19640625 58.12625 104.24828125 58.0625 105.33203125 C57.11115946 109.79601377 55.75850201 111.320615 52.25 114.14453125 C51.59 114.14453125 50.93 114.14453125 50.25 114.14453125 C50.25 114.80453125 50.25 115.46453125 50.25 116.14453125 C47.50334611 117.51785819 45.31375932 117.26418017 42.23974609 117.25805664 C40.97858978 117.25798111 39.71743347 117.25790558 38.4180603 117.25782776 C37.03651897 117.25272074 35.65497804 117.24750474 34.2734375 117.2421875 C32.8638209 117.24032269 31.45420366 117.23889908 30.04458618 117.23789978 C26.33246068 117.23407958 22.62037422 117.22425353 18.90826416 117.2131958 C15.12113981 117.202971 11.33400917 117.19839987 7.546875 117.19335938 C0.11456552 117.18263083 -7.31771177 117.16556036 -14.75 117.14453125 C-14.74419922 118.17191406 -14.73839844 119.19929688 -14.73242188 120.2578125 C-14.70103809 128.23702021 -14.78641878 136.17594588 -15.25 144.14453125 C-15.29769531 145.02625 -15.34539062 145.90796875 -15.39453125 146.81640625 C-15.50918272 148.92599335 -15.62897853 151.0353 -15.75 153.14453125 C-17.4 153.47453125 -19.05 153.80453125 -20.75 154.14453125 C-20.75 154.80453125 -20.75 155.46453125 -20.75 156.14453125 C-23.10152296 157.32029273 -24.52516759 157.27363022 -27.14453125 157.27734375 C-28.45454102 157.27927734 -28.45454102 157.27927734 -29.79101562 157.28125 C-30.70560547 157.27738281 -31.62019531 157.27351562 -32.5625 157.26953125 C-33.46548828 157.27339844 -34.36847656 157.27726563 -35.29882812 157.28125 C-44.24416621 157.26810476 -44.24416621 157.26810476 -47.75 156.14453125 C-49.23335079 153.17782967 -48.89227209 150.1579712 -48.8828125 146.90625 C-48.88376923 146.18846878 -48.88472595 145.47068756 -48.88571167 144.7311554 C-48.88639269 143.21049919 -48.88454386 141.68984008 -48.88037109 140.16918945 C-48.8750451 137.85165789 -48.88030653 135.53432221 -48.88671875 133.21679688 C-48.8860575 131.73828082 -48.88477535 130.2597649 -48.8828125 128.78125 C-48.88483673 128.09149582 -48.88686096 127.40174164 -48.88894653 126.69108582 C-48.87582351 123.96898031 -48.80024347 121.39340203 -48.2605896 118.72033691 C-47.76664527 116.22850276 -47.55654071 113.90172619 -47.45117188 111.36645508 C-47.41181519 110.44072189 -47.3724585 109.51498871 -47.33190918 108.561203 C-47.29456665 107.56389664 -47.25722412 106.56659027 -47.21875 105.5390625 C-47.15645203 103.9596563 -47.15645203 103.9596563 -47.09289551 102.3483429 C-46.58181138 88.67037223 -46.40019067 74.98534156 -46.19775391 61.30004883 C-46.14569406 57.85621822 -46.08868004 54.41249463 -46.03125 50.96875 C-46.01767456 49.94150314 -46.00409912 48.91425629 -45.9901123 47.85588074 C-45.9063052 42.92895726 -45.74216816 38.01044946 -45.41992188 33.09301758 C-45.3644519 32.21357986 -45.30898193 31.33414215 -45.25183105 30.42805481 C-44.66482723 27.75696252 -43.91750682 26.77477833 -41.75 25.14453125 C-41.09 25.14453125 -40.43 25.14453125 -39.75 25.14453125 C-39.688125 24.60828125 -39.62625 24.07203125 -39.5625 23.51953125 C-38.34964736 19.97426968 -36.30389074 17.88529205 -33.75 15.14453125 C-33.09 15.14453125 -32.43 15.14453125 -31.75 15.14453125 C-31.6675 14.38140625 -31.585 13.61828125 -31.5 12.83203125 C-30.58456067 9.55170698 -29.66528755 8.81040985 -26.75 7.14453125 C-25.41893378 6.80225708 -24.08599921 6.46701382 -22.75 6.14453125 C-22.42 5.48453125 -22.09 4.82453125 -21.75 4.14453125 C-14.685472 0.71247332 -7.71401946 -0.135672 0 0 Z M-19.75 8.14453125 C-20.50113068 8.51781052 -21.25226135 8.89108978 -22.02615356 9.27568054 C-22.59502289 9.56240128 -23.16389221 9.84912201 -23.75 10.14453125 C-23.75 10.80453125 -23.75 11.46453125 -23.75 12.14453125 C-24.46027344 12.18707031 -25.17054688 12.22960937 -25.90234375 12.2734375 C-29.84403461 13.47919479 -31.78342431 15.9987337 -34.3125 19.08203125 C-34.78107422 19.61376953 -35.24964844 20.14550781 -35.73242188 20.69335938 C-44.8829645 31.61002072 -44.3729409 43.3347735 -44.4375 56.89453125 C-44.46689181 59.67922285 -44.50183131 62.46376736 -44.53999329 65.24835205 C-44.5618641 66.96927187 -44.57804482 68.69027959 -44.58683777 70.41131592 C-44.62904573 75.25668107 -44.87406884 80.04726537 -45.25268555 84.87866211 C-45.79870646 92.12828818 -45.89470503 99.33389303 -45.8828125 106.6015625 C-45.88376923 107.91114426 -45.88472595 109.22072601 -45.88571167 110.56999207 C-45.88716806 113.30684625 -45.885097 116.04366731 -45.88037109 118.78051758 C-45.87460083 122.29326584 -45.87801103 125.8059389 -45.88394356 129.31868458 C-45.88840462 132.68381677 -45.8852945 136.04892817 -45.8828125 139.4140625 C-45.88483673 140.67740921 -45.88686096 141.94075592 -45.88894653 143.24238586 C-45.88579437 144.39836777 -45.88264221 145.55434967 -45.87939453 146.74536133 C-45.87859894 147.7668074 -45.87780334 148.78825348 -45.87698364 149.84065247 C-46.00895524 152.10794948 -46.00895524 152.10794948 -44.75 153.14453125 C-40.94411856 153.39661847 -37.12574544 153.32975469 -33.3125 153.33203125 C-32.23677734 153.34427734 -31.16105469 153.35652344 -30.05273438 153.36914062 C-29.02599609 153.37107422 -27.99925781 153.37300781 -26.94140625 153.375 C-25.99467041 153.37910889 -25.04793457 153.38321777 -24.07250977 153.38745117 C-21.55635656 153.37069631 -21.55635656 153.37069631 -19.75 151.14453125 C-19.52874198 148.44729057 -19.424734 145.84460656 -19.40625 143.14453125 C-19.3916272 142.35304688 -19.37700439 141.5615625 -19.36193848 140.74609375 C-19.31535387 138.21229081 -19.28119552 135.67856768 -19.25 133.14453125 C-19.20896101 129.81090275 -19.15533336 126.47783639 -19.09375 123.14453125 C-19.0884729 122.37367188 -19.0831958 121.6028125 -19.07775879 120.80859375 C-18.97560362 115.37013487 -18.97560362 115.37013487 -16.75 113.14453125 C-9.13072546 112.4571655 -1.315302 113.20730334 6.3125 113.64453125 C15.12538152 114.14385208 23.92373654 114.25643023 32.75 114.26953125 C34.02109619 114.27404297 35.29219238 114.27855469 36.60180664 114.28320312 C37.79539795 114.28126953 38.98898926 114.27933594 40.21875 114.27734375 C41.81879883 114.27565186 41.81879883 114.27565186 43.45117188 114.27392578 C45.94005965 114.15886031 47.93540086 114.05383805 50.25 113.14453125 C51.69380258 110.8232958 52.86282312 108.66928763 54 106.20703125 C54.31582031 105.56056641 54.63164062 104.91410156 54.95703125 104.24804688 C56.6806854 100.8487406 56.6806854 100.8487406 57.25 97.14453125 C57.91 97.14453125 58.57 97.14453125 59.25 97.14453125 C60.61623674 94.41205777 60.378426 92.16254223 60.25 89.14453125 C58.60006587 87.49459712 56.66239322 87.98611679 54.38916016 87.95507812 C53.34942047 87.9383606 52.30968079 87.92164307 51.23843384 87.90441895 C50.1001413 87.89084351 48.96184875 87.87726807 47.7890625 87.86328125 C46.61475677 87.84487183 45.44045105 87.8264624 44.2305603 87.80749512 C40.44542645 87.74854162 36.66024294 87.69596902 32.875 87.64453125 C4.53345771 87.24946285 4.53345771 87.24946285 -6.8515625 86.67578125 C-7.62253265 86.63843872 -8.39350281 86.60109619 -9.18783569 86.56262207 C-12.25433838 86.3900554 -14.82016313 86.12114354 -17.75 85.14453125 C-17.82416805 79.09394005 -17.87861087 73.0436136 -17.91479492 66.99267578 C-17.9298795 64.93436066 -17.95034987 62.87607767 -17.97631836 60.81787109 C-18.01271585 57.85896881 -18.02972966 54.90049158 -18.04296875 51.94140625 C-18.05845261 51.02147888 -18.07393646 50.10155151 -18.08988953 49.15374756 C-18.0919039 41.50323953 -18.0919039 41.50323953 -14.75 38.14453125 C-14.62625 37.48453125 -14.5025 36.82453125 -14.375 36.14453125 C-13.36152539 32.90141251 -11.59942299 31.93139521 -8.75 30.14453125 C-5.59381074 29.7783264 -2.83805647 29.67784536 0.3125 29.76953125 C1.7670459 29.78886719 1.7670459 29.78886719 3.25097656 29.80859375 C14.95917848 30.03247332 26.65868233 30.71131037 38.35372925 31.28436279 C51.69679524 31.93255014 65.01565399 32.36339223 78.375 32.39453125 C79.50403748 32.40202393 79.50403748 32.40202393 80.65588379 32.40966797 C82.75255712 32.42125756 84.84863555 32.41861176 86.9453125 32.41015625 C88.7089917 32.40677246 88.7089917 32.40677246 90.50830078 32.40332031 C93.39476993 32.42478081 93.39476993 32.42478081 95.25 30.14453125 C95.41681109 27.06105299 95.41681109 27.06105299 95.25 24.14453125 C97.25 23.14453125 99.25 22.14453125 101.25 21.14453125 C102.64058339 19.17950868 102.64058339 19.17950868 103.9375 16.83203125 C104.62392578 15.66220703 104.62392578 15.66220703 105.32421875 14.46875 C106.38026276 11.81750027 106.29378463 10.75687621 105.25 8.14453125 C103.28175194 6.17628319 99.50679904 6.76935926 96.8125 6.64453125 C96.0093335 6.60392578 95.20616699 6.56332031 94.37866211 6.52148438 C88.44177026 6.2414169 82.50350797 6.05717156 76.5625 5.89453125 C75.80404282 5.8735437 75.04558563 5.85255615 74.2641449 5.83093262 C70.41980822 5.72564376 66.57544529 5.6267993 62.73071289 5.53710938 C61.29052494 5.50009352 59.85033928 5.46298799 58.41015625 5.42578125 C57.12761963 5.39548828 55.84508301 5.36519531 54.52368164 5.33398438 C51.25 5.14453125 51.25 5.14453125 49.3908844 4.64375305 C46.78999499 4.03726505 44.39333378 3.9945391 41.72216797 3.9675293 C40.61356415 3.95469406 39.50496033 3.94185883 38.36276245 3.92863464 C37.16797272 3.92124771 35.97318298 3.91386078 34.7421875 3.90625 C33.50638947 3.89817825 32.27059143 3.89010651 30.99734497 3.88179016 C28.37975463 3.86795843 25.76214632 3.85723221 23.14453125 3.84936523 C19.16117822 3.83617653 15.17844032 3.78829345 11.1953125 3.74414062 C8.64844358 3.73401022 6.10156763 3.72549521 3.5546875 3.71875 C2.37204315 3.70124191 1.1893988 3.68373383 -0.02908325 3.66569519 C-7.44722314 3.68494304 -13.11116341 4.82463295 -19.75 8.14453125 Z " fill="#BCBCBC" transform="translate(233.75,163.85546875)"/>
<path d="M0 0 C1.1280455 -0.00315216 2.256091 -0.00630432 3.4183197 -0.009552 C4.63709305 -0.00752777 5.85586639 -0.00550354 7.11157227 -0.00341797 C8.9887368 -0.00485306 8.9887368 -0.00485306 10.90382385 -0.00631714 C13.55261683 -0.0069982 16.2013178 -0.00564985 18.85009766 -0.00097656 C22.24067853 0.00471472 25.63118013 0.0014436 29.02175808 -0.00454903 C32.26003229 -0.00903813 35.49829702 -0.00589173 38.73657227 -0.00341797 C39.95332138 -0.0054422 41.1700705 -0.00746643 42.4236908 -0.009552 C44.12048729 -0.00482376 44.12048729 -0.00482376 45.8515625 0 C47.34356422 0.00119339 47.34356422 0.00119339 48.8657074 0.00241089 C51.24664374 0.11759806 53.20413307 0.50755468 55.49047852 1.12939453 C57.87504803 1.26739333 60.26274147 1.35424351 62.65063477 1.41064453 C63.34914047 1.42864609 64.04764618 1.44664764 64.76731873 1.4651947 C66.25881591 1.50345888 67.75036077 1.53990045 69.24194336 1.57467651 C73.09723979 1.66595776 76.9520233 1.77541255 80.80688477 1.88330078 C81.93950241 1.91460838 81.93950241 1.91460838 83.09500122 1.94654846 C89.06198882 2.11294856 95.02711405 2.29739112 100.99047852 2.56689453 C101.74723877 2.59396484 102.50399902 2.62103516 103.28369141 2.64892578 C108.25630169 2.89521771 108.25630169 2.89521771 110.49047852 5.12939453 C110.2236272 9.79929261 107.86207764 13.22773145 105.49047852 17.12939453 C105.16047852 17.12939453 104.83047852 17.12939453 104.49047852 17.12939453 C104.11951077 11.5648784 104.11951077 11.5648784 105.92797852 9.44189453 C106.44360352 9.00876953 106.95922852 8.57564453 107.49047852 8.12939453 C107.82047852 7.13939453 108.15047852 6.14939453 108.49047852 5.12939453 C107.56976563 5.13463135 106.64905273 5.13986816 105.70043945 5.14526367 C86.51690296 5.23833045 67.35600636 5.1182157 48.17797852 4.62939453 C35.29991977 4.30781748 22.42385696 4.0056588 9.54141235 3.95214844 C8.10273212 3.94536878 6.6640635 3.93517295 5.22543335 3.92138672 C3.26957558 3.90380675 1.31360176 3.90093457 -0.64233398 3.89892578 C-2.28032959 3.89276245 -2.28032959 3.89276245 -3.95141602 3.88647461 C-6.67598295 3.87112718 -6.67598295 3.87112718 -8.50952148 6.12939453 C-12.13452148 6.25439453 -12.13452148 6.25439453 -15.50952148 6.12939453 C-15.56237305 6.69658203 -15.61522461 7.26376953 -15.66967773 7.84814453 C-16.90194214 11.19531853 -19.13464583 12.49359819 -21.94702148 14.62939453 C-26.65760057 18.14350021 -26.65760057 18.14350021 -29.50952148 23.12939453 C-30.49952148 23.12939453 -31.48952148 23.12939453 -32.50952148 23.12939453 C-33.25684182 29.93216397 -33.75959044 36.7100306 -34.04077148 43.54736328 C-34.10306946 45.02573921 -34.10306946 45.02573921 -34.16662598 46.53398132 C-34.60794879 57.64022567 -34.78794981 68.75011424 -34.95535278 79.86328125 C-35.047932 85.97945554 -35.15105837 92.09544594 -35.25561523 98.21142578 C-35.27607407 99.4097403 -35.2965329 100.60805481 -35.31761169 101.84268188 C-35.5775815 116.60899211 -36.0075166 131.36948229 -36.50952148 146.12939453 C-35.50719482 146.12069336 -35.50719482 146.12069336 -34.48461914 146.11181641 C-33.15503174 146.10504883 -33.15503174 146.10504883 -31.79858398 146.09814453 C-30.92411621 146.09234375 -30.04964844 146.08654297 -29.14868164 146.08056641 C-25.54052049 146.14732239 -22.07732464 146.6008311 -18.50952148 147.12939453 C-18.52112305 146.29021484 -18.53272461 145.45103516 -18.54467773 144.58642578 C-18.60369405 136.72039435 -18.48113086 128.86566679 -18.19702148 121.00439453 C-18.17454346 120.10438721 -18.15206543 119.20437988 -18.12890625 118.27709961 C-18.09337646 117.42140381 -18.05784668 116.56570801 -18.02124023 115.68408203 C-17.99505615 114.92595215 -17.96887207 114.16782227 -17.94189453 113.38671875 C-17.31202211 110.09829389 -16.87824739 108.59227034 -14.50952148 106.12939453 C-10.8157145 105.38887604 -7.15804844 105.52655423 -3.40405273 105.60595703 C-2.29205002 105.6106601 -1.1800473 105.61536316 -0.03434753 105.62020874 C3.53705054 105.6415909 7.10697816 105.6980901 10.67797852 105.75439453 C13.03408399 105.77090589 15.39020569 105.78525286 17.74633789 105.79736328 C29.68967467 105.8834561 41.58278782 106.17223219 53.49047852 107.12939453 C53.63356445 106.51580078 53.77665039 105.90220703 53.92407227 105.27001953 C54.51748812 103.02731686 55.39778127 101.16909606 56.49047852 99.12939453 C57.15047852 99.12939453 57.81047852 99.12939453 58.49047852 99.12939453 C58.63485352 97.85064453 58.77922852 96.57189453 58.92797852 95.25439453 C59.19690598 92.87246559 59.41274197 91.28486762 60.49047852 89.12939453 C44.20120597 88.29138436 27.92302537 87.85162579 11.61547852 87.56689453 C9.25870269 87.52354518 6.9019318 87.47992674 4.54516602 87.43603516 C-1.13967695 87.33073383 -6.82457076 87.22869901 -12.50952148 87.12939453 C-12.50952148 86.46939453 -12.50952148 85.80939453 -12.50952148 85.12939453 C-13.49952148 85.12939453 -14.48952148 85.12939453 -15.50952148 85.12939453 C-16.98518454 82.17806841 -16.65178761 79.18823576 -16.64233398 75.95361328 C-16.64376907 74.87210747 -16.64376907 74.87210747 -16.64523315 73.76875305 C-16.64591489 72.23458774 -16.64406105 70.70041956 -16.63989258 69.16625977 C-16.63462961 66.86418791 -16.63979257 64.56231896 -16.64624023 62.26025391 C-16.66442115 37.37562842 -16.66442115 37.37562842 -14.00610352 34.50708008 C-13.51223145 34.05244385 -13.01835937 33.59780762 -12.50952148 33.12939453 C-12.10904704 30.80664276 -11.76981109 28.47200096 -11.50952148 26.12939453 C-10.50952148 25.12939453 -10.50952148 25.12939453 -7.44702148 25.06689453 C-5.99295898 25.09783203 -5.99295898 25.09783203 -4.50952148 25.12939453 C-5.29327148 25.85126953 -6.07702148 26.57314453 -6.88452148 27.31689453 C-9.39850015 30.0104431 -10.34350769 31.72104652 -11.50952148 35.12939453 C-12.16952148 36.11939453 -12.82952148 37.10939453 -13.50952148 38.12939453 C-13.79780813 40.16768993 -13.79780813 40.16768993 -13.73657227 42.41723633 C-13.7364212 43.27790207 -13.73627014 44.13856781 -13.7361145 45.02531433 C-13.72579193 45.95040298 -13.71546936 46.87549164 -13.70483398 47.82861328 C-13.70058914 49.25389091 -13.70058914 49.25389091 -13.69625854 50.70796204 C-13.68505864 53.74440068 -13.65995436 56.78054495 -13.63452148 59.81689453 C-13.62449144 61.87483298 -13.61536563 63.93277605 -13.60717773 65.99072266 C-13.58511991 71.03706013 -13.5505913 76.08317741 -13.50952148 81.12939453 C-9.87269948 82.34166853 -6.40663931 82.47680391 -2.61108398 82.66064453 C-1.78685944 82.70217651 -0.96263489 82.7437085 -0.11343384 82.78649902 C13.56642186 83.41993958 27.2687021 83.49558642 40.96020508 83.68164062 C44.65005744 83.73305892 48.33978468 83.79030075 52.02954102 83.84814453 C53.16783356 83.86171997 54.3061261 83.87529541 55.47891235 83.88928223 C57.03852188 83.91435852 57.03852188 83.91435852 58.62963867 83.93994141 C59.54717926 83.95246948 60.46471985 83.96499756 61.4100647 83.97790527 C63.49047852 84.12939453 63.49047852 84.12939453 64.49047852 85.12939453 C64.72577263 90.6588063 64.72577263 90.6588063 63.49047852 93.12939453 C62.83047852 93.12939453 62.17047852 93.12939453 61.49047852 93.12939453 C61.32032227 93.69787109 61.15016602 94.26634766 60.97485352 94.85205078 C59.34337025 100.05023417 57.58784808 104.62412971 54.49047852 109.12939453 C51.22704812 110.39456501 47.92528229 110.25854202 44.45922852 110.26220703 C43.26563721 110.26414062 42.0720459 110.26607422 40.84228516 110.26806641 C39.57118896 110.26355469 38.30009277 110.25904297 36.99047852 110.25439453 C35.68780029 110.25246094 34.38512207 110.25052734 33.04296875 110.24853516 C24.72845732 110.21165235 16.45466648 109.96768106 8.1550293 109.49194336 C-2.18230457 108.80683197 -2.18230457 108.80683197 -12.50952148 109.12939453 C-15.44449747 112.06437052 -14.82633535 115.19466262 -14.85327148 119.12939453 C-14.86789429 119.92087891 -14.88251709 120.71236328 -14.89758301 121.52783203 C-14.94416761 124.06163497 -14.97832596 126.5953581 -15.00952148 129.12939453 C-15.05056047 132.46302304 -15.10418813 135.79608939 -15.16577148 139.12939453 C-15.17104858 139.90025391 -15.17632568 140.67111328 -15.1817627 141.46533203 C-15.28391786 146.90379091 -15.28391786 146.90379091 -17.50952148 149.12939453 C-19.83203125 149.37231445 -19.83203125 149.37231445 -22.70092773 149.35986328 C-23.72766602 149.35792969 -24.7544043 149.35599609 -25.81225586 149.35400391 C-26.88797852 149.34175781 -27.96370117 149.32951172 -29.07202148 149.31689453 C-30.15161133 149.31625 -31.23120117 149.31560547 -32.34350586 149.31494141 C-40.36937551 149.26954051 -40.36937551 149.26954051 -41.50952148 148.12939453 C-41.60859553 146.33188274 -41.63751383 144.53046413 -41.63891602 142.73022461 C-41.64206818 141.57424271 -41.64522034 140.4182608 -41.64846802 139.22724915 C-41.64644379 137.96390244 -41.64441956 136.70055573 -41.64233398 135.39892578 C-41.64329071 134.10178146 -41.64424744 132.80463715 -41.64523315 131.46818542 C-41.64671209 128.7081891 -41.64455381 125.94822501 -41.63989258 123.18823242 C-41.63426786 119.69096376 -41.63742608 116.19377308 -41.64346504 112.69650745 C-41.64801094 109.32647451 -41.64479599 105.95646093 -41.64233398 102.58642578 C-41.64435822 101.34939407 -41.64638245 100.11236237 -41.64846802 98.83784485 C-41.62952437 91.64443317 -41.29841688 84.54121313 -40.73641968 77.37049866 C-40.42324501 72.89698701 -40.37456768 68.44403029 -40.36889648 63.96142578 C-40.35059097 62.14305365 -40.3310228 60.32469387 -40.31030273 58.50634766 C-40.28131093 55.71551841 -40.25951863 52.92551161 -40.2590332 50.13452148 C-40.23422655 29.86925741 -40.23422655 29.86925741 -34.50952148 21.12939453 C-34.09154297 20.49074463 -33.67356445 19.85209473 -33.24291992 19.1940918 C-32.0824407 17.56753729 -30.79855082 16.03108866 -29.50952148 14.50439453 C-28.68452148 13.50150391 -27.85952148 12.49861328 -27.00952148 11.46533203 C-24.37944166 9.00785119 -23.04239216 8.39435983 -19.50952148 8.12939453 C-19.50952148 7.46939453 -19.50952148 6.80939453 -19.50952148 6.12939453 C-17.73954674 5.31502585 -15.96850996 4.50296513 -14.19702148 3.69189453 C-13.21088867 3.23943359 -12.22475586 2.78697266 -11.20874023 2.32080078 C-7.2335544 0.56619632 -4.3138103 0.0034532 0 0 Z " fill="#616161" transform="translate(229.509521484375,167.87060546875)"/>
<path d="M0 0 C0.33 0 0.66 0 1 0 C1 15.18 1 30.36 1 46 C7.75597656 46.19916016 7.75597656 46.19916016 14.6484375 46.40234375 C17.51954393 46.48854872 20.39064119 46.57496059 23.26171875 46.66210938 C27.80837406 46.80009925 32.35504236 46.93736586 36.90185547 47.07006836 C40.57186035 47.17722879 44.24174686 47.28784699 47.91157913 47.40075874 C49.30440288 47.44302442 50.69726361 47.48409107 52.09016037 47.5238781 C73.87652775 48.14857142 73.87652775 48.14857142 79 51 C79.34986966 55.1984359 78.60104849 56.77469987 76 60 C75.835 60.721875 75.67 61.44375 75.5 62.1875 C75.335 62.785625 75.17 63.38375 75 64 C73.515 64.495 73.515 64.495 72 65 C71.938125 66.051875 71.87625 67.10375 71.8125 68.1875 C70.86115946 72.65148252 69.50850201 74.17608375 66 77 C65.34 77 64.68 77 64 77 C64 77.66 64 78.32 64 79 C61.25334611 80.37332694 59.06375932 80.11964892 55.98974609 80.11352539 C54.72858978 80.11344986 53.46743347 80.11337433 52.1680603 80.11329651 C50.78651897 80.10818949 49.40497804 80.10297349 48.0234375 80.09765625 C46.6138209 80.09579144 45.20420366 80.09436783 43.79458618 80.09336853 C40.08246068 80.08954833 36.37037422 80.07972228 32.65826416 80.06866455 C28.87113981 80.05843975 25.08400917 80.05386862 21.296875 80.04882812 C13.86456552 80.03809958 6.43228823 80.02102911 -1 80 C-0.99419922 81.02738281 -0.98839844 82.05476563 -0.98242188 83.11328125 C-0.95103809 91.09248896 -1.03641878 99.03141463 -1.5 107 C-1.54769531 107.88171875 -1.59539062 108.7634375 -1.64453125 109.671875 C-1.75918272 111.7814621 -1.87897853 113.89076875 -2 116 C-4.475 116.495 -4.475 116.495 -7 117 C-7 117.66 -7 118.32 -7 119 C-9.35152296 120.17576148 -10.77516759 120.12909897 -13.39453125 120.1328125 C-14.70454102 120.13474609 -14.70454102 120.13474609 -16.04101562 120.13671875 C-16.95560547 120.13285156 -17.87019531 120.12898438 -18.8125 120.125 C-20.16698242 120.13080078 -20.16698242 120.13080078 -21.54882812 120.13671875 C-30.49416621 120.12357351 -30.49416621 120.12357351 -34 119 C-35.48335079 116.03329842 -35.14227209 113.01343995 -35.1328125 109.76171875 C-35.13376923 109.04393753 -35.13472595 108.32615631 -35.13571167 107.58662415 C-35.13639269 106.06596794 -35.13454386 104.54530883 -35.13037109 103.0246582 C-35.1250451 100.70712664 -35.13030653 98.38979096 -35.13671875 96.07226562 C-35.1360575 94.59374957 -35.13477535 93.11523365 -35.1328125 91.63671875 C-35.13483673 90.94696457 -35.13686096 90.25721039 -35.13894653 89.54655457 C-35.12130773 85.88774296 -34.76634743 82.56799659 -34 79 C-33.85843072 77.08957224 -33.75525298 75.17604396 -33.68359375 73.26171875 C-33.64169922 72.19501953 -33.59980469 71.12832031 -33.55664062 70.02929688 C-33.49766602 68.37510742 -33.49766602 68.37510742 -33.4375 66.6875 C-33.39431641 65.56537109 -33.35113281 64.44324219 -33.30664062 63.28710938 C-33.20085213 60.52485431 -33.09876328 57.7625137 -33 55 C-32.67 55 -32.34 55 -32 55 C-31.67 74.8 -31.34 94.6 -31 115 C-23.41 115 -15.82 115 -8 115 C-5.98647826 112.98647826 -6.81519534 108.89910884 -6.7890625 106.1328125 C-6.760993 104.50910452 -6.73232853 102.88540673 -6.703125 101.26171875 C-6.66184273 98.69189751 -6.62497198 96.12226642 -6.59863281 93.55224609 C-6.57105914 91.07869726 -6.52518628 88.60602499 -6.4765625 86.1328125 C-6.47330963 85.36397736 -6.47005676 84.59514221 -6.46670532 83.80300903 C-6.34426734 78.50170479 -6.34426734 78.50170479 -4.63598633 76.01220703 C-2.10461429 74.44601266 -0.0156395 74.67977076 2.9375 74.75 C4.20851562 74.77578125 5.47953125 74.8015625 6.7890625 74.828125 C10.34923058 74.95831399 13.90374909 75.15875018 17.46020508 75.36450195 C18.2364624 75.40921631 19.01271973 75.45393066 19.8125 75.5 C21.01072388 75.56997192 21.01072388 75.56997192 22.2331543 75.64135742 C36.13350115 76.3643468 50.08585615 76.08142054 64 76 C64.30341309 75.06720215 64.60682617 74.1344043 64.91943359 73.17333984 C65.94624308 70.15786995 67.1717522 67.45500888 68.625 64.625 C69.29402344 63.31402344 69.29402344 63.31402344 69.9765625 61.9765625 C70.31429687 61.32429688 70.65203125 60.67203125 71 60 C71.66 60 72.32 60 73 60 C73 56.7 73 53.4 73 50 C71.65075439 50.01087646 70.30150879 50.02175293 68.91137695 50.03295898 C54.78411204 50.11023755 40.70011957 49.77749971 26.58520508 49.20043945 C23.11758591 49.05966164 19.64967604 48.9289067 16.18164062 48.79882812 C13.96872682 48.71152316 11.75583513 48.62365514 9.54296875 48.53515625 C7.99333687 48.47727684 7.99333687 48.47727684 6.41239929 48.41822815 C5.46572891 48.37826218 4.51905853 48.3382962 3.54370117 48.29711914 C2.71150558 48.26380997 1.87931 48.23050079 1.02189636 48.19618225 C-1 48 -1 48 -3 47 C-3.02953635 42.77084853 -3.04697584 38.54172428 -3.0625 34.3125 C-3.07087891 33.13365234 -3.07925781 31.95480469 -3.08789062 30.74023438 C-3.14739121 9.02252146 -3.14739121 9.02252146 0 0 Z " fill="#A9A9A9" transform="translate(220,201)"/>
<path d="M0 0 C1.1280455 -0.00315216 2.256091 -0.00630432 3.4183197 -0.009552 C4.63709305 -0.00752777 5.85586639 -0.00550354 7.11157227 -0.00341797 C8.9887368 -0.00485306 8.9887368 -0.00485306 10.90382385 -0.00631714 C13.55261683 -0.0069982 16.2013178 -0.00564985 18.85009766 -0.00097656 C22.24067853 0.00471472 25.63118013 0.0014436 29.02175808 -0.00454903 C32.26003229 -0.00903813 35.49829702 -0.00589173 38.73657227 -0.00341797 C39.95332138 -0.0054422 41.1700705 -0.00746643 42.4236908 -0.009552 C44.12048729 -0.00482376 44.12048729 -0.00482376 45.8515625 0 C47.34356422 0.00119339 47.34356422 0.00119339 48.8657074 0.00241089 C51.24664374 0.11759806 53.20413307 0.50755468 55.49047852 1.12939453 C57.87504803 1.26739333 60.26274147 1.35424351 62.65063477 1.41064453 C63.34914047 1.42864609 64.04764618 1.44664764 64.76731873 1.4651947 C66.25881591 1.50345888 67.75036077 1.53990045 69.24194336 1.57467651 C73.09723979 1.66595776 76.9520233 1.77541255 80.80688477 1.88330078 C81.93950241 1.91460838 81.93950241 1.91460838 83.09500122 1.94654846 C89.06198882 2.11294856 95.02711405 2.29739112 100.99047852 2.56689453 C101.74723877 2.59396484 102.50399902 2.62103516 103.28369141 2.64892578 C108.25630169 2.89521771 108.25630169 2.89521771 110.49047852 5.12939453 C110.2236272 9.79929261 107.86207764 13.22773145 105.49047852 17.12939453 C105.16047852 17.12939453 104.83047852 17.12939453 104.49047852 17.12939453 C104.11951077 11.5648784 104.11951077 11.5648784 105.92797852 9.44189453 C106.44360352 9.00876953 106.95922852 8.57564453 107.49047852 8.12939453 C107.82047852 7.13939453 108.15047852 6.14939453 108.49047852 5.12939453 C107.56976563 5.13463135 106.64905273 5.13986816 105.70043945 5.14526367 C86.51690296 5.23833045 67.35600636 5.1182157 48.17797852 4.62939453 C35.29991977 4.30781748 22.42385696 4.0056588 9.54141235 3.95214844 C8.10273212 3.94536878 6.6640635 3.93517295 5.22543335 3.92138672 C3.26957558 3.90380675 1.31360176 3.90093457 -0.64233398 3.89892578 C-2.28032959 3.89276245 -2.28032959 3.89276245 -3.95141602 3.88647461 C-6.67598295 3.87112718 -6.67598295 3.87112718 -8.50952148 6.12939453 C-12.13452148 6.25439453 -12.13452148 6.25439453 -15.50952148 6.12939453 C-15.56237305 6.69658203 -15.61522461 7.26376953 -15.66967773 7.84814453 C-16.90194214 11.19531853 -19.13464583 12.49359819 -21.94702148 14.62939453 C-26.65760057 18.14350021 -26.65760057 18.14350021 -29.50952148 23.12939453 C-30.49952148 23.12939453 -31.48952148 23.12939453 -32.50952148 23.12939453 C-33.25684182 29.93216397 -33.75959044 36.7100306 -34.04077148 43.54736328 C-34.10306946 45.02573921 -34.10306946 45.02573921 -34.16662598 46.53398132 C-34.60794879 57.64022567 -34.78794981 68.75011424 -34.95535278 79.86328125 C-35.047932 85.97945554 -35.15105837 92.09544594 -35.25561523 98.21142578 C-35.27607407 99.4097403 -35.2965329 100.60805481 -35.31761169 101.84268188 C-35.5775815 116.60899211 -36.0075166 131.36948229 -36.50952148 146.12939453 C-33.20952148 146.12939453 -29.90952148 146.12939453 -26.50952148 146.12939453 C-26.50952148 146.45939453 -26.50952148 146.78939453 -26.50952148 147.12939453 C-28.321942 147.15626732 -30.13447382 147.17573169 -31.94702148 147.19189453 C-32.95635742 147.20349609 -33.96569336 147.21509766 -35.00561523 147.22705078 C-37.50952148 147.12939453 -37.50952148 147.12939453 -38.50952148 146.12939453 C-38.6006785 143.02631525 -38.62138642 139.94744726 -38.59936523 136.84423828 C-38.59367775 135.33276466 -38.59367775 135.33276466 -38.58787537 133.79075623 C-38.51796796 119.69707024 -38.33092496 105.60390751 -38.13720703 91.51147461 C-38.08195307 87.47926528 -38.03179623 83.44700919 -37.9828043 79.41471958 C-37.94343485 76.24609092 -37.90047204 73.07751785 -37.85658073 69.9089489 C-37.83657006 68.42337649 -37.8178026 66.93778667 -37.80044746 65.45218086 C-37.6802371 55.31291549 -37.20764803 45.24582562 -36.50952148 35.12939453 C-36.43733902 33.85024673 -36.36515656 32.57109894 -36.29078674 31.25318909 C-35.72023154 22.45409526 -32.72628257 17.78610881 -27.11499023 11.35986328 C-24.42900508 9.0604667 -22.98279148 8.40999983 -19.50952148 8.12939453 C-19.50952148 7.46939453 -19.50952148 6.80939453 -19.50952148 6.12939453 C-17.73954674 5.31502585 -15.96850996 4.50296513 -14.19702148 3.69189453 C-13.21088867 3.23943359 -12.22475586 2.78697266 -11.20874023 2.32080078 C-7.2335544 0.56619632 -4.3138103 0.0034532 0 0 Z " fill="#1E1E1E" transform="translate(229.509521484375,167.87060546875)"/>
<path d="M0 0 C0.6875 1.8125 0.6875 1.8125 1 4 C-0.1875 5.3125 -0.1875 5.3125 -2 7 C-4.947528 11.64458957 -6.62169747 15.69883642 -8 21 C-10.09836211 23.09836211 -14.73299564 22.16398307 -17.62890625 22.16796875 C-18.5419603 22.17202225 -19.45501434 22.17607574 -20.39573669 22.18025208 C-23.45135822 22.18987183 -26.5068651 22.18962115 -29.5625 22.1875 C-30.60623779 22.1882251 -31.64997559 22.1889502 -32.7253418 22.18969727 C-59.50421096 22.18766564 -86.24866 21.12656286 -113 20 C-113.33 20.99 -113.66 21.98 -114 23 C-114.639375 23.2475 -115.27875 23.495 -115.9375 23.75 C-118.27879279 24.89342242 -118.27879279 24.89342242 -119.1875 27.8125 C-121.94388801 42.01849976 -121.47587644 57.84866399 -122 72 C-96.92 72.99 -71.84 73.98 -46 75 C-46 75.33 -46 75.66 -46 76 C-53.48493706 76.0256954 -60.96986245 76.0430091 -68.45483398 76.05493164 C-70.99259872 76.05991048 -73.53036067 76.06669597 -76.06811523 76.07543945 C-100.40420441 76.15708806 -100.40420441 76.15708806 -112.04296875 75.62109375 C-112.80531326 75.59048355 -113.56765778 75.55987335 -114.35310364 75.52833557 C-118.0902179 75.32190955 -120.7353844 74.78799304 -124 73 C-124.07416805 66.9494088 -124.12861087 60.89908235 -124.16479492 54.84814453 C-124.1798795 52.78982941 -124.20034987 50.73154642 -124.22631836 48.67333984 C-124.26271585 45.71443756 -124.27972966 42.75596033 -124.29296875 39.796875 C-124.30845261 38.87694763 -124.32393646 37.95702026 -124.33988953 37.00921631 C-124.34190399 29.35836657 -124.34190399 29.35836657 -121 26 C-120.566875 24.7625 -120.566875 24.7625 -120.125 23.5 C-118.60626624 20.12503608 -117.15321501 18.96510662 -114 17 C-110.84381074 16.63379515 -108.08805647 16.53331411 -104.9375 16.625 C-103.4829541 16.64433594 -103.4829541 16.64433594 -101.99902344 16.6640625 C-90.29180172 16.88792333 -78.59196543 17.56019632 -66.89828491 18.1418457 C-48.58692537 19.04737505 -30.3297278 19.23134608 -12 19 C-11.71125 17.88496094 -11.4225 16.76992187 -11.125 15.62109375 C-9.95889503 11.86769337 -9.39036361 10.80113067 -6 9 C-5.34 9 -4.68 9 -4 9 C-3.896875 8.443125 -3.79375 7.88625 -3.6875 7.3125 C-2.86866423 4.55823422 -1.54146219 2.41272343 0 0 Z " fill="#9D9D9D" transform="translate(339,176)"/>
<path d="M0 0 C1.4540625 0.0309375 1.4540625 0.0309375 2.9375 0.0625 C2.15375 0.784375 1.37 1.50625 0.5625 2.25 C-1.95147867 4.94354857 -2.89648621 6.65415198 -4.0625 10.0625 C-5.0525 11.5475 -5.0525 11.5475 -6.0625 13.0625 C-6.35078665 15.1007954 -6.35078665 15.1007954 -6.28955078 17.3503418 C-6.28939972 18.21100754 -6.28924866 19.07167328 -6.28909302 19.9584198 C-6.27877045 20.88350845 -6.26844788 21.80859711 -6.2578125 22.76171875 C-6.2549826 23.71190384 -6.25215271 24.66208893 -6.24923706 25.6410675 C-6.23803715 28.67750615 -6.21293288 31.71365042 -6.1875 34.75 C-6.17746996 36.80793845 -6.16834415 38.86588152 -6.16015625 40.92382812 C-6.13809842 45.9701656 -6.10356982 51.01628288 -6.0625 56.0625 C-2.425678 57.274774 1.04038218 57.40990937 4.8359375 57.59375 C5.66016205 57.63528198 6.4843866 57.67681396 7.33358765 57.71960449 C21.01344335 58.35304505 34.71572358 58.42869189 48.40722656 58.61474609 C52.09707892 58.66616439 55.78680616 58.72340621 59.4765625 58.78125 C60.61485504 58.79482544 61.75314758 58.80840088 62.92593384 58.8223877 C64.48554337 58.84746399 64.48554337 58.84746399 66.07666016 58.87304688 C66.99420074 58.88557495 67.91174133 58.89810303 68.85708618 58.91101074 C70.9375 59.0625 70.9375 59.0625 71.9375 60.0625 C71.97830783 62.06208364 71.98004356 64.06295254 71.9375 66.0625 C71.298125 66.18625 70.65875 66.31 70 66.4375 C69.319375 66.64375 68.63875 66.85 67.9375 67.0625 C67.6075 67.7225 67.2775 68.3825 66.9375 69.0625 C67.2675 67.4125 67.5975 65.7625 67.9375 64.0625 C51.64822746 63.22448983 35.37004686 62.78473126 19.0625 62.5 C16.70572418 62.45665065 14.34895329 62.41303221 11.9921875 62.36914062 C6.30734453 62.26383929 0.62245073 62.16180447 -5.0625 62.0625 C-5.0625 61.4025 -5.0625 60.7425 -5.0625 60.0625 C-6.0525 60.0625 -7.0425 60.0625 -8.0625 60.0625 C-9.53816306 57.11117388 -9.20476613 54.12134123 -9.1953125 50.88671875 C-9.19626923 50.16571487 -9.19722595 49.444711 -9.19821167 48.70185852 C-9.19889341 47.16769321 -9.19703957 45.63352503 -9.19287109 44.09936523 C-9.18760812 41.79729338 -9.19277108 39.49542443 -9.19921875 37.19335938 C-9.21739967 12.30873389 -9.21739967 12.30873389 -6.55908203 9.44018555 C-6.06520996 8.98554932 -5.57133789 8.53091309 -5.0625 8.0625 C-4.66202556 5.73974823 -4.3227896 3.40510643 -4.0625 1.0625 C-3.0625 0.0625 -3.0625 0.0625 0 0 Z " fill="#464646" transform="translate(222.0625,192.9375)"/>
<path d="M0 0 C1.1280455 -0.00307663 2.256091 -0.00615326 3.4183197 -0.00932312 C4.63709305 -0.0021376 5.85586639 0.00504791 7.11157227 0.01245117 C8.9887368 0.0131385 8.9887368 0.0131385 10.90382385 0.01383972 C13.55271942 0.01686335 16.20126792 0.02368184 18.85009766 0.03710938 C22.24068829 0.05408164 25.63112994 0.05792408 29.02175808 0.05716419 C32.26004415 0.05750203 35.49829914 0.06634508 38.73657227 0.07495117 C40.56169594 0.07662041 40.56169594 0.07662041 42.4236908 0.07832336 C44.12048729 0.08789314 44.12048729 0.08789314 45.8515625 0.09765625 C46.84623032 0.10146805 47.84089813 0.10527985 48.8657074 0.10920715 C51.24328366 0.23032716 53.20648558 0.62294296 55.49047852 1.24291992 C57.87504803 1.38091872 60.26274147 1.4677689 62.65063477 1.52416992 C63.34914047 1.54217148 64.04764618 1.56017303 64.76731873 1.57872009 C66.25881591 1.61698427 67.75036077 1.65342584 69.24194336 1.6882019 C73.09723979 1.77948315 76.9520233 1.88893794 80.80688477 1.99682617 C81.93950241 2.02813377 81.93950241 2.02813377 83.09500122 2.06007385 C89.06198882 2.22647395 95.02711405 2.41091651 100.99047852 2.68041992 C101.74723877 2.70749023 102.50399902 2.73456055 103.28369141 2.76245117 C108.25630169 3.0087431 108.25630169 3.0087431 110.49047852 5.24291992 C110.2236272 9.912818 107.86207764 13.34125684 105.49047852 17.24291992 C105.16047852 17.24291992 104.83047852 17.24291992 104.49047852 17.24291992 C104.11951077 11.67840379 104.11951077 11.67840379 105.92797852 9.55541992 C106.44360352 9.12229492 106.95922852 8.68916992 107.49047852 8.24291992 C107.82047852 7.25291992 108.15047852 6.26291992 108.49047852 5.24291992 C107.52787109 5.25339355 106.56526367 5.26386719 105.57348633 5.2746582 C87.22047565 5.4556064 68.96386852 5.33889084 50.64404297 4.1673584 C37.34708936 3.32183991 24.06097515 2.89801899 10.74047852 2.61791992 C9.77236237 2.59754669 8.80424622 2.57717346 7.80679321 2.55618286 C2.36815696 2.443697 -3.0705837 2.33967858 -8.50952148 2.24291992 C-5.12079932 -0.01622819 -3.96958734 -0.00569161 0 0 Z " fill="#444444" transform="translate(229.509521484375,167.757080078125)"/>
<path d="M0 0 C1.42033791 0.00515121 1.42033791 0.00515121 2.86936951 0.01040649 C14.92828702 0.06769982 26.98654945 0.21590558 39.04418945 0.39550781 C41.70270804 0.43475481 44.36113381 0.46860065 47.01977539 0.5 C61.65051425 0.67341205 76.23073245 1.06113907 90.828125 2.0546875 C92.07308243 2.13915131 93.31803986 2.22361511 94.60072327 2.31063843 C103.22306142 2.94551509 103.22306142 2.94551509 105.48828125 4.078125 C105.48828125 5.728125 105.48828125 7.378125 105.48828125 9.078125 C104.82828125 9.408125 104.16828125 9.738125 103.48828125 10.078125 C102.49828125 8.098125 102.49828125 8.098125 101.48828125 6.078125 C92.26195968 5.50604437 83.03754605 5.0747315 73.796875 4.82421875 C73.03866455 4.80347794 72.2804541 4.78273712 71.49926758 4.7613678 C67.65606135 4.65766392 63.81279572 4.56066023 59.96923828 4.47094727 C58.52896865 4.4338613 57.08870161 4.39667485 55.6484375 4.359375 C54.36590088 4.32908203 53.08336426 4.29878906 51.76196289 4.26757812 C48.48828125 4.078125 48.48828125 4.078125 46.62916565 3.5773468 C44.02827624 2.9708588 41.63161503 2.92813285 38.96044922 2.90112305 C37.8518454 2.88828781 36.74324158 2.87545258 35.6010437 2.86222839 C34.40625397 2.85484146 33.21146423 2.84745453 31.98046875 2.83984375 C30.74467072 2.831772 29.50887268 2.82370026 28.23562622 2.81538391 C25.61803588 2.80155218 23.00042757 2.79082596 20.3828125 2.78295898 C16.39945947 2.76977028 12.41672157 2.7218872 8.43359375 2.67773438 C5.88672483 2.66760397 3.33984888 2.65908896 0.79296875 2.65234375 C-0.3896756 2.63483566 -1.57231995 2.61732758 -2.790802 2.59928894 C-9.34765184 2.616302 -14.43452935 3.33308474 -20.40133667 6.12043762 C-22.43101161 7.04150025 -24.33839425 7.60817489 -26.51171875 8.078125 C-26.51171875 8.738125 -26.51171875 9.398125 -26.51171875 10.078125 C-28.16171875 10.408125 -29.81171875 10.738125 -31.51171875 11.078125 C-28.74524168 8.10672371 -26.01494862 6.10631071 -22.51171875 4.078125 C-21.85171875 3.418125 -21.19171875 2.758125 -20.51171875 2.078125 C-13.93384222 -0.19883226 -6.87091228 -0.04656209 0 0 Z " fill="#8A8A8A" transform="translate(236.51171875,165.921875)"/>
<path d="M0 0 C0.33 0 0.66 0 1 0 C1 15.18 1 30.36 1 46 C7.75597656 46.19916016 7.75597656 46.19916016 14.6484375 46.40234375 C17.51954393 46.48854872 20.39064119 46.57496059 23.26171875 46.66210938 C27.80837406 46.80009925 32.35504236 46.93736586 36.90185547 47.07006836 C40.57186035 47.17722879 44.24174686 47.28784699 47.91157913 47.40075874 C49.30440288 47.44302442 50.69726361 47.48409107 52.09016037 47.5238781 C73.87652775 48.14857142 73.87652775 48.14857142 79 51 C79.25 53.25 79.25 53.25 79 56 C77 58.3125 77 58.3125 75 60 C75 57.36 75 54.72 75 52 C72.0462168 50.5231084 69.30762321 50.74840905 66.01171875 50.62695312 C65.29287506 50.59915268 64.57403137 50.57135223 63.83340454 50.54270935 C62.27073685 50.48285812 60.70798687 50.42512691 59.14517212 50.36924744 C56.67431784 50.28077801 54.20373896 50.18662776 51.7331543 50.09094238 C46.48895629 49.88885683 41.24450524 49.69392634 36 49.5 C29.92426855 49.27533736 23.84867568 49.04778136 17.77334595 48.81248474 C15.33494114 48.71960479 12.89637747 48.6322382 10.45776367 48.54504395 C8.96792581 48.48798215 7.47809775 48.4306638 5.98828125 48.37304688 C4.68415283 48.32498901 3.38002441 48.27693115 2.03637695 48.22741699 C-1 48 -1 48 -3 47 C-3.02953635 42.77084853 -3.04697584 38.54172428 -3.0625 34.3125 C-3.07087891 33.13365234 -3.07925781 31.95480469 -3.08789062 30.74023438 C-3.14739121 9.02252146 -3.14739121 9.02252146 0 0 Z " fill="#CCCCCC" transform="translate(220,201)"/>
<path d="M0 0 C1.12995403 3.3898621 0.76095871 5.54867348 0 9 C-0.96879537 19.81528541 -1.18963833 30.65252828 -1.31640625 41.50390625 C-1.33710015 43.04020077 -1.35809849 44.57649121 -1.37937927 46.11277771 C-1.42287614 49.31026666 -1.46383564 52.50777353 -1.50268555 55.70532227 C-1.55163063 59.73004377 -1.60530447 63.7546837 -1.66065407 67.77932167 C-1.89920226 85.18755216 -2.05161887 102.58969232 -2 120 C4.27 120.33 10.54 120.66 17 121 C17 121.33 17 121.66 17 122 C10.07 122 3.14 122 -4 122 C-6.32420862 117.35158276 -5.19418605 110.61311405 -5.1875 105.4375 C-5.18722809 104.65742584 -5.18695618 103.87735168 -5.18667603 103.07363892 C-5.15863146 84.93732975 -4.75055953 66.80351767 -4.30728149 48.67337036 C-4.22627011 45.35452307 -4.15136519 42.03562524 -4.08163452 38.71652222 C-3.9972361 34.73356503 -3.89844254 30.75120258 -3.78918457 26.76885223 C-3.75055363 25.28381491 -3.7165409 23.79864905 -3.68753052 22.31339264 C-3.52880684 14.38794335 -3.0518986 7.40867982 0 0 Z " fill="#3F3F3F" transform="translate(194,194)"/>
<path d="M0 0 C-0.66 15.18 -1.32 30.36 -2 46 C23.08 46.99 48.16 47.98 74 49 C74 49.33 74 49.66 74 50 C66.51506294 50.0256954 59.03013755 50.0430091 51.54516602 50.05493164 C49.00740128 50.05991048 46.46963933 50.06669597 43.93188477 50.07543945 C19.59579559 50.15708806 19.59579559 50.15708806 7.95703125 49.62109375 C7.19468674 49.59048355 6.43234222 49.55987335 5.64689636 49.52833557 C1.9097821 49.32190955 -0.7353844 48.78799304 -4 47 C-4.07416805 40.9494088 -4.12861087 34.89908235 -4.16479492 28.84814453 C-4.1798795 26.78982941 -4.20034987 24.73154642 -4.22631836 22.67333984 C-4.26271585 19.71443756 -4.27972966 16.75596033 -4.29296875 13.796875 C-4.30845261 12.87694763 -4.32393646 11.95702026 -4.33988953 11.00921631 C-4.34157367 4.61291938 -4.34157367 4.61291938 -2.54418945 1.38769531 C-1 0 -1 0 0 0 Z " fill="#878787" transform="translate(219,202)"/>
<path d="M0 0 C0.83257324 0.009104 1.66514648 0.01820801 2.52294922 0.02758789 C56.61296237 0.99398119 56.61296237 0.99398119 63.25 4.3125 C67.72443572 4.55703837 72.20713724 4.49770356 76.6875 4.5 C77.94111328 4.51224609 79.19472656 4.52449219 80.48632812 4.53710938 C81.68580078 4.53904297 82.88527344 4.54097656 84.12109375 4.54296875 C85.77516235 4.54913208 85.77516235 4.54913208 87.46264648 4.55541992 C90.46065451 4.51899437 90.46065451 4.51899437 93.25 2.3125 C92.59 3.6325 91.93 4.9525 91.25 6.3125 C67.65023083 6.83515247 44.1312649 5.90910454 20.5625 4.8125 C19.40568033 4.75868982 19.40568033 4.75868982 18.22549057 4.70379257 C8.56634352 4.25325988 -1.09210162 3.78907065 -10.75 3.3125 C-7.53754449 -0.3551544 -4.64385918 -0.10446998 0 0 Z " fill="#2B2B2B" transform="translate(235.75,189.6875)"/>
<path d="M0 0 C1.05532928 0.04599335 2.11065857 0.09198669 3.19796753 0.13937378 C6.64841452 0.29224786 10.09742947 0.46673387 13.546875 0.640625 C17.13081317 0.8032488 20.71498404 0.95971197 24.29922485 1.11550903 C26.72717628 1.22112716 29.15505379 1.32845804 31.58285522 1.43746948 C43.19284869 1.95250477 54.80355216 2.26542883 66.421875 2.515625 C68.2099616 2.55563465 69.99804755 2.59567282 71.78613281 2.63574219 C79.54079761 2.81990924 79.54079761 2.81990924 87.296875 2.890625 C87.626875 1.900625 87.956875 0.910625 88.296875 -0.109375 C87.546875 4.640625 87.546875 4.640625 85.296875 6.890625 C82.62304688 7.13354492 82.62304688 7.13354492 79.265625 7.12109375 C77.46158203 7.11819336 77.46158203 7.11819336 75.62109375 7.11523438 C74.35910156 7.10298828 73.09710938 7.09074219 71.796875 7.078125 C69.90388672 7.0771582 69.90388672 7.0771582 67.97265625 7.07617188 C58.57733868 7.03085684 58.57733868 7.03085684 56.296875 5.890625 C54.18645173 5.67766007 52.0702657 5.52083904 49.953125 5.390625 C48.65286377 5.3086084 47.35260254 5.2265918 46.01293945 5.14208984 C44.60759996 5.05801164 43.20224479 4.97419526 41.796875 4.890625 C40.3674165 4.80314414 38.93797314 4.7154156 37.50854492 4.62744141 C34.69643539 4.45514981 31.88417812 4.28563072 29.07177734 4.11816406 C26.02754607 3.93466752 22.98441561 3.74148535 19.94140625 3.5390625 C12.08250929 3.03074163 4.23480149 2.77206576 -3.640625 2.703125 C-4.50067139 2.69007324 -5.36071777 2.67702148 -6.24682617 2.66357422 C-7.04580322 2.66244629 -7.84478027 2.66131836 -8.66796875 2.66015625 C-9.3755835 2.65604736 -10.08319824 2.65193848 -10.81225586 2.64770508 C-13.03478037 2.79094895 -13.03478037 2.79094895 -15.703125 4.890625 C-18.390625 5.015625 -18.390625 5.015625 -20.703125 4.890625 C-19.36979167 4.22395833 -18.03645833 3.55729167 -16.703125 2.890625 C-15.88489258 2.36887695 -15.06666016 1.84712891 -14.22363281 1.30957031 C-9.34457961 -0.65693851 -5.1914097 -0.29247157 0 0 Z " fill="#0C0C0C" transform="translate(240.703125,188.109375)"/>
<path d="M0 0 C0 0.66 0 1.32 0 2 C-2.74665389 3.37332694 -4.93624068 3.11964892 -8.01025391 3.11352539 C-9.27141022 3.11344986 -10.53256653 3.11337433 -11.8319397 3.11329651 C-13.21348103 3.10818949 -14.59502196 3.10297349 -15.9765625 3.09765625 C-17.3861791 3.09579144 -18.79579634 3.09436783 -20.20541382 3.09336853 C-23.91753932 3.08954833 -27.62962578 3.07972228 -31.34173584 3.06866455 C-35.12886019 3.05843975 -38.91599083 3.05386862 -42.703125 3.04882812 C-50.13543448 3.03809958 -57.56771177 3.02102911 -65 3 C-64.99419922 4.02738281 -64.98839844 5.05476563 -64.98242188 6.11328125 C-64.95103809 14.09248896 -65.03641878 22.03141463 -65.5 30 C-65.54769531 30.88171875 -65.59539062 31.7634375 -65.64453125 32.671875 C-65.75918272 34.7814621 -65.87897853 36.89076875 -66 39 C-68.475 39.495 -68.475 39.495 -71 40 C-70.67 39.34 -70.34 38.68 -70 38 C-68.89025298 30.00160109 -68.72552629 21.87251449 -68.4375 13.8125 C-68.39431641 12.66974609 -68.35113281 11.52699219 -68.30664062 10.34960938 C-68.20183704 7.56649189 -68.09966701 4.78330535 -68 2 C-65.28043585 0.64021793 -63.15752253 0.88773067 -60.11328125 0.90234375 C-58.87860107 0.90564697 -57.6439209 0.9089502 -56.37182617 0.91235352 C-55.71040619 0.91647247 -55.04898621 0.92059143 -54.36752319 0.92483521 C-52.30009938 0.93757642 -50.23273957 0.94410858 -48.1652832 0.94897461 C-43.03068751 0.96236065 -37.8961527 0.98657507 -32.76159668 1.01037598 C-28.42345527 1.0300743 -24.08533629 1.04572827 -19.74716187 1.05593872 C-17.70745835 1.06243642 -15.66784679 1.07494453 -13.62817383 1.08764648 C-12.39349365 1.09094971 -11.15881348 1.09425293 -9.88671875 1.09765625 C-8.79576904 1.10289307 -7.70481934 1.10812988 -6.58081055 1.11352539 C-4.03971478 1.00174698 -2.48021364 0 0 0 Z " fill="#D5D5D5" transform="translate(284,278)"/>
<path d="M0 0 C0.33 0 0.66 0 1 0 C1.33 19.8 1.66 39.6 2 60 C5.14755608 60.78688902 7.58362787 61.17362433 10.765625 61.31640625 C11.65507812 61.35830078 12.54453125 61.40019531 13.4609375 61.44335938 C14.84152344 61.50233398 14.84152344 61.50233398 16.25 61.5625 C17.18585938 61.60568359 18.12171875 61.64886719 19.0859375 61.69335938 C21.39048641 61.7991805 23.69513839 61.90126557 26 62 C26 62.66 26 63.32 26 64 C23.64847704 65.17576148 22.22483241 65.12909897 19.60546875 65.1328125 C18.29545898 65.13474609 18.29545898 65.13474609 16.95898438 65.13671875 C16.04439453 65.13285156 15.12980469 65.12898438 14.1875 65.125 C12.83301758 65.13080078 12.83301758 65.13080078 11.45117188 65.13671875 C2.50583379 65.12357351 2.50583379 65.12357351 -1 64 C-2.48335079 61.03329842 -2.14227209 58.01343995 -2.1328125 54.76171875 C-2.13376923 54.04393753 -2.13472595 53.32615631 -2.13571167 52.58662415 C-2.13639269 51.06596794 -2.13454386 49.54530883 -2.13037109 48.0246582 C-2.1250451 45.70712664 -2.13030653 43.38979096 -2.13671875 41.07226562 C-2.1360575 39.59374957 -2.13477535 38.11523365 -2.1328125 36.63671875 C-2.13483673 35.94696457 -2.13686096 35.25721039 -2.13894653 34.54655457 C-2.12130773 30.88774296 -1.76634743 27.56799659 -1 24 C-0.85843072 22.08957224 -0.75525298 20.17604396 -0.68359375 18.26171875 C-0.64169922 17.19501953 -0.59980469 16.12832031 -0.55664062 15.02929688 C-0.51732422 13.92650391 -0.47800781 12.82371094 -0.4375 11.6875 C-0.39431641 10.56537109 -0.35113281 9.44324219 -0.30664062 8.28710938 C-0.20085213 5.52485431 -0.09876328 2.7625137 0 0 Z " fill="#C2C2C2" transform="translate(187,256)"/>
<path d="M0 0 C35.88083402 -0.18981478 35.88083402 -0.18981478 51.6875 0.4375 C52.7180249 0.47673584 53.7485498 0.51597168 54.81030273 0.55639648 C61.7361622 0.8680811 61.7361622 0.8680811 64 2 C64 4.97 64 7.94 64 11 C62.02 11.99 62.02 11.99 60 13 C59.18129815 16.56206661 59.18129815 16.56206661 59 20 C58.01 20.33 57.02 20.66 56 21 C55.9175 22.11375 55.835 23.2275 55.75 24.375 C55 28 55 28 52.9375 29.4375 C52.298125 29.623125 51.65875 29.80875 51 30 C50.67210501 25.85394999 51.37052973 23.89570029 53.8125 20.5625 C57.35548943 15.52376739 59.8842439 11.10083151 61 5 C59.61494263 4.91697632 59.61494263 4.91697632 58.2019043 4.83227539 C54.77444546 4.62489719 51.34724948 4.41389758 47.92016602 4.20043945 C46.43718216 4.10881716 44.95410846 4.01863706 43.47094727 3.92993164 C41.33845127 3.80213894 39.20633271 3.66915421 37.07421875 3.53515625 C35.14968872 3.41732788 35.14968872 3.41732788 33.1862793 3.29711914 C30 3 30 3 27 2 C24.93637009 1.84970012 22.86876085 1.75155552 20.80078125 1.68359375 C19.59228516 1.64169922 18.38378906 1.59980469 17.13867188 1.55664062 C15.87603516 1.51732422 14.61339844 1.47800781 13.3125 1.4375 C12.03826172 1.39431641 10.76402344 1.35113281 9.45117188 1.30664062 C6.30089148 1.2004514 3.15053161 1.09840467 0 1 C0 0.67 0 0.34 0 0 Z " fill="#BFBFBF" transform="translate(281,165)"/>
<path d="M0 0 C0.33 0 0.66 0 1 0 C1.01458252 0.98919434 1.02916504 1.97838867 1.04418945 2.99755859 C1.1020897 6.66182919 1.17932152 10.32547985 1.26245117 13.98925781 C1.2957398 15.57606965 1.32375947 17.16300103 1.34643555 18.75 C1.37991078 21.02916484 1.4322186 23.30723041 1.48828125 25.5859375 C1.49467117 26.29744965 1.5010611 27.00896179 1.50764465 27.74203491 C1.54009648 29.9600456 1.54009648 29.9600456 2 33 C5.07763799 35.05175866 5.87283302 35.26862718 9.37719727 35.39428711 C10.71076515 35.44801231 10.71076515 35.44801231 12.0712738 35.50282288 C13.03904251 35.53153976 14.00681122 35.56025665 15.00390625 35.58984375 C16.01868546 35.62665756 17.03346466 35.66347137 18.07899475 35.70140076 C30.36160674 36.12456469 42.64983794 36.34714288 54.9375 36.5625 C57.28971838 36.60585812 59.64193197 36.64947671 61.99414062 36.69335938 C67.66270905 36.79855992 73.33132694 36.90060582 79 37 C79.495 39.475 79.495 39.475 80 42 C78.515 42.495 78.515 42.495 77 43 C76.505 43.99 76.505 43.99 76 45 C76.33 43.35 76.66 41.7 77 40 C60.71072746 39.16198983 44.43254686 38.72223126 28.125 38.4375 C25.76822418 38.39415065 23.41145329 38.35053221 21.0546875 38.30664062 C15.36984453 38.20133929 9.68495073 38.09930447 4 38 C4 37.34 4 36.68 4 36 C3.01 36 2.02 36 1 36 C-0.53297297 32.93405406 -0.12131455 29.72888147 -0.09765625 26.3671875 C-0.0962413 25.61535187 -0.09482635 24.86351624 -0.09336853 24.08889771 C-0.08776465 21.6842249 -0.07521157 19.27964473 -0.0625 16.875 C-0.0574855 15.24609509 -0.0529225 13.61718873 -0.04882812 11.98828125 C-0.03779397 7.99215173 -0.02052679 3.99609158 0 0 Z " fill="#232323" transform="translate(213,217)"/>
<path d="M0 0 C0 3.50872167 -0.94057099 5.34499948 -2.4375 8.5 C-5.30230323 14.57240344 -6.17547586 19.29300546 -6.28125 25.98828125 C-6.30886414 27.33045967 -6.30886414 27.33045967 -6.33703613 28.69975281 C-6.395776 31.57060154 -6.44847009 34.44151342 -6.5 37.3125 C-6.71850222 49.23924965 -6.96010557 61.1106245 -8 73 C-8.33 73 -8.66 73 -9 73 C-9.02550799 65.6534093 -9.04293284 58.30683016 -9.05493164 50.96020508 C-9.05993771 48.46475803 -9.06674455 45.96931388 -9.07543945 43.47387695 C-9.08766905 39.87190024 -9.09326573 36.26996255 -9.09765625 32.66796875 C-9.10281754 31.56543259 -9.10797882 30.46289642 -9.11329651 29.32695007 C-9.11464339 10.42003862 -9.11464339 10.42003862 -6.58241272 7.1940155 C-5 6 -5 6 -3 6 C-2.814375 5.071875 -2.814375 5.071875 -2.625 4.125 C-2 2 -2 2 0 0 Z " fill="#B6B6B6" transform="translate(197,183)"/>
<path d="M0 0 C0.9812384 0.00328812 1.96247681 0.00657623 2.97344971 0.00996399 C6.09213453 0.0256178 9.20972151 0.06956757 12.328125 0.11328125 C14.4062411 0.12478673 16.48436749 0.1345677 18.5625 0.14257812 C28.2692454 0.20153891 37.92462756 0.3162288 47.578125 1.42578125 C47.578125 1.75578125 47.578125 2.08578125 47.578125 2.42578125 C46.91857819 2.42134003 46.25903137 2.4168988 45.57949829 2.412323 C38.73433594 2.36818348 31.88921379 2.33795399 25.04394531 2.31591797 C22.48696247 2.30584087 19.92999121 2.29217899 17.37304688 2.27490234 C13.70439808 2.25072908 10.03590121 2.2393154 6.3671875 2.23046875 C5.21819977 2.22014618 4.06921204 2.20982361 2.88540649 2.19918823 C1.8244577 2.19903717 0.76350891 2.19888611 -0.32958984 2.19873047 C-1.73523697 2.19206863 -1.73523697 2.19206863 -3.16928101 2.18527222 C-5.62363571 2.20884895 -5.62363571 2.20884895 -7.421875 4.42578125 C-11.046875 4.55078125 -11.046875 4.55078125 -14.421875 4.42578125 C-14.47214844 4.9878125 -14.52242187 5.54984375 -14.57421875 6.12890625 C-15.83259639 9.53870373 -18.15134662 10.96146022 -20.984375 13.17578125 C-22.50224609 14.37460938 -22.50224609 14.37460938 -24.05078125 15.59765625 C-24.83324219 16.2009375 -25.61570313 16.80421875 -26.421875 17.42578125 C-26.421875 16.43578125 -26.421875 15.44578125 -26.421875 14.42578125 C-25.431875 14.09578125 -24.441875 13.76578125 -23.421875 13.42578125 C-23.421875 11.44578125 -23.421875 9.46578125 -23.421875 7.42578125 C-21.771875 7.09578125 -20.121875 6.76578125 -18.421875 6.42578125 C-18.421875 5.76578125 -18.421875 5.10578125 -18.421875 4.42578125 C-12.03143734 0.65982123 -7.34943244 -0.13876869 0 0 Z " fill="#1D1D1D" transform="translate(228.421875,169.57421875)"/>
<path d="M0 0 C0.6875 1.8125 0.6875 1.8125 1 4 C-0.09741211 5.61621094 -0.09741211 5.61621094 -2 7 C-4.78735352 7.35644531 -4.78735352 7.35644531 -8.12890625 7.328125 C-9.32837891 7.32296875 -10.52785156 7.3178125 -11.76367188 7.3125 C-13.6440918 7.2815625 -13.6440918 7.2815625 -15.5625 7.25 C-16.81998047 7.24484375 -18.07746094 7.2396875 -19.37304688 7.234375 C-28.6916564 7.1541718 -28.6916564 7.1541718 -31 6 C-32.70363822 5.77377919 -34.41328701 5.59111527 -36.125 5.4375 C-37.03507812 5.35371094 -37.94515625 5.26992187 -38.8828125 5.18359375 C-39.58148438 5.12300781 -40.28015625 5.06242188 -41 5 C-41 4.67 -41 4.34 -41 4 C-27.47 3.67 -13.94 3.34 0 3 C0 2.01 0 1.02 0 0 Z " fill="#181818" transform="translate(328,188)"/>
<path d="M0 0 C35.88083402 -0.18981478 35.88083402 -0.18981478 51.6875 0.4375 C52.7180249 0.47673584 53.7485498 0.51597168 54.81030273 0.55639648 C61.7361622 0.8680811 61.7361622 0.8680811 64 2 C64 4.97 64 7.94 64 11 C62.02 11.99 62.02 11.99 60 13 C60.33 12.34 60.66 11.68 61 11 C61.06950541 9.45976004 61.08452357 7.91665012 61.0625 6.375 C61.05347656 5.55773437 61.04445313 4.74046875 61.03515625 3.8984375 C61.02355469 3.27195313 61.01195312 2.64546875 61 2 C59.66714966 2.00785522 59.66714966 2.00785522 58.30737305 2.01586914 C38.84097814 2.11478502 19.44921963 1.92078904 0 1 C0 0.67 0 0.34 0 0 Z " fill="#E2E2E2" transform="translate(281,165)"/>
<path d="M0 0 C7.79621694 -0.02528819 15.59242336 -0.04284068 23.38867188 -0.05493164 C26.04264725 -0.05997042 28.69661984 -0.06680151 31.35058594 -0.07543945 C35.15821011 -0.08752489 38.96579769 -0.09323275 42.7734375 -0.09765625 C43.96617279 -0.10281754 45.15890808 -0.10797882 46.38778687 -0.11329651 C47.48877716 -0.11337204 48.58976746 -0.11344757 49.72412109 -0.11352539 C51.1830629 -0.11685631 51.1830629 -0.11685631 52.67147827 -0.12025452 C55 0 55 0 57 1 C57 2.65 57 4.3 57 6 C56.34 6.33 55.68 6.66 55 7 C54.34 5.68 53.68 4.36 53 3 C35.34864411 1.90552279 17.67640182 1.4760032 0 1 C0 0.67 0 0.34 0 0 Z " fill="#747474" transform="translate(285,169)"/>
<path d="M0 0 C0.6875 1.8125 0.6875 1.8125 1 4 C0.001514 5.00151171 -0.9988578 6.00114351 -2 7 C-3.06879148 8.80579528 -4.0863176 10.64250714 -5.0625 12.5 C-6.61769555 15.444187 -8.15122196 18.22683295 -10 21 C-13.07275391 21.34057617 -13.07275391 21.34057617 -16.9765625 21.29296875 C-17.66181 21.28872391 -18.3470575 21.28447906 -19.05307007 21.28010559 C-21.24411129 21.26329753 -23.43423632 21.22564405 -25.625 21.1875 C-27.10936173 21.17245579 -28.59373785 21.15876693 -30.078125 21.14648438 C-33.71904833 21.1133879 -37.35943478 21.06159207 -41 21 C-41 20.67 -41 20.34 -41 20 C-31.43 19.67 -21.86 19.34 -12 19 C-11.01 15.535 -11.01 15.535 -10 12 C-6.90322581 9 -6.90322581 9 -4 9 C-3.896875 8.443125 -3.79375 7.88625 -3.6875 7.3125 C-2.86866423 4.55823422 -1.54146219 2.41272343 0 0 Z " fill="#7A7A7A" transform="translate(339,176)"/>
<path d="M0 0 C1.8871875 0.0309375 1.8871875 0.0309375 3.8125 0.0625 C3.8125 0.3925 3.8125 0.7225 3.8125 1.0625 C2.74 1.145 1.6675 1.2275 0.5625 1.3125 C-3.63609758 2.15221952 -4.40241687 3.00789269 -7.1875 6.0625 C-8.1775 6.51625 -9.1675 6.97 -10.1875 7.4375 C-13.88903739 9.44249942 -14.99479816 11.49935952 -17.1875 15.0625 C-19.12536149 17.45125005 -21.14580418 19.76218938 -23.1875 22.0625 C-23.1875 18.30883583 -22.07329937 16.27534338 -20.1875 13.0625 C-19.1975 12.7325 -18.2075 12.4025 -17.1875 12.0625 C-17.105 11.299375 -17.0225 10.53625 -16.9375 9.75 C-16.02206067 6.46967573 -15.10278755 5.7283786 -12.1875 4.0625 C-10.85643378 3.72022583 -9.52349921 3.38498257 -8.1875 3.0625 C-7.8575 2.4025 -7.5275 1.7425 -7.1875 1.0625 C-4.43671116 0.14557039 -2.82801087 -0.04636083 0 0 Z " fill="#B6B6B6" transform="translate(219.1875,166.9375)"/>
<path d="M0 0 C1.22847656 0.02578125 2.45695313 0.0515625 3.72265625 0.078125 C11.84039128 0.37729029 19.95230525 0.79308762 28.0625 1.25 C28.0625 1.58 28.0625 1.91 28.0625 2.25 C27.11407227 2.27505615 26.16564453 2.3001123 25.18847656 2.32592773 C21.66231968 2.4211884 18.13632041 2.52041441 14.61035156 2.62231445 C13.08565614 2.66556707 11.56091531 2.70724885 10.03613281 2.74731445 C7.84165778 2.80525203 5.64740932 2.86887795 3.453125 2.93359375 C2.43415131 2.95866249 2.43415131 2.95866249 1.39459229 2.98423767 C-1.9281045 3.08772902 -4.68285248 3.43633812 -7.9375 4.25 C-7.9375 8.54 -7.9375 12.83 -7.9375 17.25 C-8.2675 17.25 -8.5975 17.25 -8.9375 17.25 C-9.01847324 14.97975032 -9.07667704 12.70867925 -9.125 10.4375 C-9.15980469 9.17292969 -9.19460937 7.90835937 -9.23046875 6.60546875 C-8.9375 3.25 -8.9375 3.25 -7.796875 1.31640625 C-5.11149006 -0.22374099 -3.08857169 -0.07344998 0 0 Z " fill="#8E8E8E" transform="translate(222.9375,275.75)"/>
<path d="M0 0 C9.24 0 18.48 0 28 0 C28 0.33 28 0.66 28 1 C15.625 1.495 15.625 1.495 3 2 C1.15555733 5.68888535 0.72875554 7.08068195 0.5859375 10.984375 C0.54726562 11.91894531 0.50859375 12.85351562 0.46875 13.81640625 C0.4378125 14.78449219 0.406875 15.75257813 0.375 16.75 C0.33632812 17.73355469 0.29765625 18.71710938 0.2578125 19.73046875 C0.16371574 22.15346037 0.07807672 24.57644796 0 27 C-0.33 27 -0.66 27 -1 27 C-1.02892385 22.87501462 -1.04677267 18.75005515 -1.0625 14.625 C-1.07087891 13.449375 -1.07925781 12.27375 -1.08789062 11.0625 C-1.09111328 9.94101562 -1.09433594 8.81953125 -1.09765625 7.6640625 C-1.10289307 6.62717285 -1.10812988 5.5902832 -1.11352539 4.52197266 C-1 2 -1 2 0 0 Z " fill="#1D1D1D" transform="translate(212,273)"/>
<path d="M0 0 C1.32 0.33 2.64 0.66 4 1 C3.35184326 1.55163818 2.70368652 2.10327637 2.03588867 2.67163086 C-0.38976806 5.44576304 -0.51640819 6.62844967 -0.57421875 10.25390625 C-0.60193359 11.27419922 -0.62964844 12.29449219 -0.65820312 13.34570312 C-0.66787109 14.40724609 -0.67753906 15.46878906 -0.6875 16.5625 C-0.73036284 18.6471929 -0.77592242 20.73183215 -0.82421875 22.81640625 C-0.84532715 23.83621582 -0.86643555 24.85602539 -0.88818359 25.90673828 C-1.0587075 30.62406983 -1.50480508 35.30699527 -2 40 C-2.33 40 -2.66 40 -3 40 C-3.12082597 31.26025494 -2.98147322 22.54571541 -2.625 13.8125 C-2.59414307 12.90411377 -2.56328613 11.99572754 -2.53149414 11.05981445 C-2.4927417 10.200896 -2.45398926 9.34197754 -2.4140625 8.45703125 C-2.3826416 7.69366455 -2.3512207 6.93029785 -2.31884766 6.14379883 C-1.96540351 3.7673876 -1.17727257 2.08043832 0 0 Z " fill="#464646" transform="translate(214,275)"/>
<path d="M0 0 C4.08327357 -0.0580772 8.16644083 -0.09362249 12.25 -0.125 C13.98830078 -0.15013672 13.98830078 -0.15013672 15.76171875 -0.17578125 C16.87675781 -0.18222656 17.99179687 -0.18867188 19.140625 -0.1953125 C20.68024902 -0.21102295 20.68024902 -0.21102295 22.25097656 -0.22705078 C25.01984288 0.00163889 26.64418792 0.5756701 29 2 C29.25 4.25 29.25 4.25 29 7 C27 9.3125 27 9.3125 25 11 C25 8.36 25 5.72 25 3 C22.48322887 1.74161443 20.58706712 1.79181027 17.7734375 1.68359375 C16.7421875 1.64169922 15.7109375 1.59980469 14.6484375 1.55664062 C13.56820313 1.51732422 12.48796875 1.47800781 11.375 1.4375 C9.74304688 1.37272461 9.74304688 1.37272461 8.078125 1.30664062 C5.3855483 1.2003547 2.69287747 1.09831943 0 1 C0 0.67 0 0.34 0 0 Z " fill="#BDBDBD" transform="translate(270,250)"/>
<path d="M0 0 C1.4540625 0.0309375 1.4540625 0.0309375 2.9375 0.0625 C2.15375 0.784375 1.37 1.50625 0.5625 2.25 C-1.95147867 4.94354857 -2.89648621 6.65415198 -4.0625 10.0625 C-5.0525 11.5475 -5.0525 11.5475 -6.0625 13.0625 C-6.52022063 15.80122955 -6.52022063 15.80122955 -6.6875 18.75 C-6.76226562 19.74386719 -6.83703125 20.73773438 -6.9140625 21.76171875 C-6.96304688 22.52097656 -7.01203125 23.28023437 -7.0625 24.0625 C-7.3925 24.0625 -7.7225 24.0625 -8.0625 24.0625 C-8.1435206 21.95896505 -8.20169907 19.85454048 -8.25 17.75 C-8.28480469 16.57824219 -8.31960937 15.40648437 -8.35546875 14.19921875 C-8.02990289 10.71349365 -7.59675968 10.23379666 -5.0625 8.0625 C-4.66202556 5.73974823 -4.3227896 3.40510643 -4.0625 1.0625 C-3.0625 0.0625 -3.0625 0.0625 0 0 Z " fill="#363636" transform="translate(222.0625,192.9375)"/>
<path d="M0 0 C0.495 0.99 0.495 0.99 1 2 C0.34 2.99 -0.32 3.98 -1 5 C-3.76628915 5.2667616 -6.30619631 5.34804189 -9.0703125 5.29296875 C-9.86654022 5.28872391 -10.66276794 5.28447906 -11.48312378 5.28010559 C-14.03075729 5.26328834 -16.57760489 5.22563179 -19.125 5.1875 C-20.85024901 5.17245705 -22.57551039 5.15876796 -24.30078125 5.14648438 C-28.53415782 5.11337501 -32.76694559 5.06157285 -37 5 C-37 4.67 -37 4.34 -37 4 C-19.675 3.505 -19.675 3.505 -2 3 C-2 2.34 -2 1.68 -2 1 C-1.34 0.67 -0.68 0.34 0 0 Z " fill="#E6E6E6" transform="translate(286,277)"/>
<path d="M0 0 C1.12148437 0.00322266 2.24296875 0.00644531 3.3984375 0.00976562 C4.5740625 0.01814453 5.7496875 0.02652344 6.9609375 0.03515625 C8.14429688 0.03966797 9.32765625 0.04417969 10.546875 0.04882812 C13.47661257 0.06064158 16.40625022 0.07711367 19.3359375 0.09765625 C19.3359375 0.42765625 19.3359375 0.75765625 19.3359375 1.09765625 C18.72596924 1.11747559 18.11600098 1.13729492 17.48754883 1.15771484 C14.70743217 1.25333501 11.92802904 1.3628633 9.1484375 1.47265625 C7.70887695 1.5190625 7.70887695 1.5190625 6.24023438 1.56640625 C4.84321289 1.62441406 4.84321289 1.62441406 3.41796875 1.68359375 C2.13756714 1.7307251 2.13756714 1.7307251 0.83129883 1.77880859 C-1.9288154 2.13148536 -4.10502001 3.03207297 -6.6640625 4.09765625 C-9.4765625 4.22265625 -9.4765625 4.22265625 -11.6640625 4.09765625 C-10.3440625 3.76765625 -9.0240625 3.43765625 -7.6640625 3.09765625 C-7.6640625 2.43765625 -7.6640625 1.77765625 -7.6640625 1.09765625 C-5.00228029 -0.23323485 -2.97666854 -0.01503368 0 0 Z " fill="#E7E7E7" transform="translate(226.6640625,162.90234375)"/>
<path d="M0 0 C0.33 0.99 0.66 1.98 1 3 C0.01 3.33 -0.98 3.66 -2 4 C-2.0825 5.11375 -2.165 6.2275 -2.25 7.375 C-3 11 -3 11 -5.0625 12.4375 C-6.0215625 12.7159375 -6.0215625 12.7159375 -7 13 C-7.3077917 9.86162389 -7.27813784 8.40656372 -5.46875 5.76171875 C-4.8190625 5.07722656 -4.169375 4.39273438 -3.5 3.6875 C-2.8503125 2.99011719 -2.200625 2.29273438 -1.53125 1.57421875 C-1.0259375 1.05472656 -0.520625 0.53523437 0 0 Z " fill="#DBDBDB" transform="translate(339,182)"/>
<path d="M0 0 C1.40576287 2.81152574 0.69237269 4.5549697 0.125 7.625 C-0.72852996 12.4116883 -1.44277321 17.17070118 -2 22 C-2.33 22 -2.66 22 -3 22 C-3.08103404 19.08277452 -3.14051081 16.16780484 -3.1875 13.25 C-3.21263672 12.425 -3.23777344 11.6 -3.26367188 10.75 C-3.33834499 4.57702246 -3.33834499 4.57702246 -1.48828125 1.421875 C-0.99714844 0.95265625 -0.50601563 0.4834375 0 0 Z " fill="#696969" transform="translate(218,202)"/>
<path d="M0 0 C0 3.07868526 -0.43386841 4.35430616 -1.75 7.0625 C-2.07484375 7.75472656 -2.3996875 8.44695312 -2.734375 9.16015625 C-4.23126884 11.33619637 -5.58150096 12.0193901 -8 13 C-7.75 10.625 -7.75 10.625 -7 8 C-5.68352881 7.30062468 -4.34977849 6.63270867 -3 6 C-2.33820153 4.01954441 -2.33820153 4.01954441 -2 2 C-1.34 1.34 -0.68 0.68 0 0 Z " fill="#D0D0D0" transform="translate(197,183)"/>
<path d="M0 0 C0.33 0 0.66 0 1 0 C1.2421875 2.2734375 1.2421875 2.2734375 1 5 C-0.6796875 6.9140625 -0.6796875 6.9140625 -2.875 8.625 C-5.52391444 10.72324406 -7.09472455 12.14208682 -9 15 C-8.48386345 10.52412834 -6.85147631 8.12454734 -4 4.6875 C-3.278125 3.80449219 -2.55625 2.92148438 -1.8125 2.01171875 C-1.214375 1.34785156 -0.61625 0.68398437 0 0 Z " fill="#404040" transform="translate(204,178)"/>
<path d="M0 0 C6.6 0 13.2 0 20 0 C19 4 19 4 16 6 C16 4.68 16 3.36 16 2 C10.72 1.67 5.44 1.34 0 1 C0 0.67 0 0.34 0 0 Z " fill="#131313" transform="translate(318,173)"/>
<path d="M0 0 C0.66 0.33 1.32 0.66 2 1 C-0.97 4.63 -3.94 8.26 -7 12 C-7 8.2205439 -5.95320589 6.20883825 -4 3 C-1.8125 2.125 -1.8125 2.125 0 2 C0 1.34 0 0.68 0 0 Z " fill="#8B8B8B" transform="translate(203,177)"/>
<path d="M0 0 C1.98 0 3.96 0 6 0 C2.93906776 3.93548431 0.50884026 6.68116787 -4 9 C-3.34 7.68 -2.68 6.36 -2 5 C-1.34 5 -0.68 5 0 5 C0 3.35 0 1.7 0 0 Z " fill="#121212" transform="translate(205,178)"/>
<path d="M0 0 C0.33 0.66 0.66 1.32 1 2 C0.34 2 -0.32 2 -1 2 C-1.18175781 2.61488281 -1.36351562 3.22976563 -1.55078125 3.86328125 C-1.80214844 4.67152344 -2.05351562 5.47976563 -2.3125 6.3125 C-2.55613281 7.11300781 -2.79976563 7.91351563 -3.05078125 8.73828125 C-4.04182023 11.09964573 -5.08074943 12.33879993 -7 14 C-7 12.35 -7 10.7 -7 9 C-6.01 8.67 -5.02 8.34 -4 8 C-3.896875 7.236875 -3.79375 6.47375 -3.6875 5.6875 C-2.95635961 2.82940576 -2.23048087 1.84257115 0 0 Z " fill="#454545" transform="translate(292,259)"/>
<path d="M0 0 C0.66 0.33 1.32 0.66 2 1 C1.42365861 5.75481646 -0.55068521 8.97048212 -3 13 C-3.33 13 -3.66 13 -4 13 C-4.1875 10.1875 -4.1875 10.1875 -4 7 C-2.5625 5.375 -2.5625 5.375 -1 4 C-0.28552357 1.89667109 -0.28552357 1.89667109 0 0 Z " fill="#4B4B4B" transform="translate(338,172)"/>
<path d="M0 0 C0.99 0.33 1.98 0.66 3 1 C2.360625 1.226875 1.72125 1.45375 1.0625 1.6875 C0.381875 2.120625 -0.29875 2.55375 -1 3 C-1.165 3.825 -1.33 4.65 -1.5 5.5 C-1.665 6.325 -1.83 7.15 -2 8 C-4.0625 9.3125 -4.0625 9.3125 -6 10 C-5.67 8.35 -5.34 6.7 -5 5 C-4.01 4.67 -3.02 4.34 -2 4 C-0.79117904 1.99983534 -0.79117904 1.99983534 0 0 Z " fill="#E8E8E8" transform="translate(204,171)"/>
<path d="M0 0 C0.99 0.33 1.98 0.66 3 1 C2.50769231 8.38461538 2.50769231 8.38461538 -0.0625 11.5 C-0.701875 11.995 -1.34125 12.49 -2 13 C-2.33 12.34 -2.66 11.68 -3 11 C-2.67 10.34 -2.34 9.68 -2 9 C-1.34 9 -0.68 9 0 9 C0 6.03 0 3.06 0 0 Z " fill="#858585" transform="translate(293,252)"/>
<path d="M0 0 C0.33 0 0.66 0 1 0 C1.375 2.6875 1.375 2.6875 1 6 C-0.823983 8.06398076 -2.72763839 9.39041053 -5 11 C-3.77782954 6.95743617 -2.37245704 3.50711041 0 0 Z " fill="#969696" transform="translate(289,266)"/>
<path d="M0 0 C1.32 0 2.64 0 4 0 C3.67 1.32 3.34 2.64 3 4 C0.36 4 -2.28 4 -5 4 C-4.34 3.34 -3.68 2.68 -3 2 C-2.01 2 -1.02 2 0 2 C0 1.34 0 0.68 0 0 Z " fill="#282828" transform="translate(210,174)"/>
<path d="M0 0 C2.475 0.495 2.475 0.495 5 1 C5 3.64 5 6.28 5 9 C3.02 9.99 3.02 9.99 1 11 C1.99 8.03 2.98 5.06 4 2 C2.68 1.34 1.36 0.68 0 0 Z " fill="#E8E8E8" transform="translate(295,250)"/>
<path d="M0 0 C1.98 0 3.96 0 6 0 C4.75 2 4.75 2 3 4 C1.68 4 0.36 4 -1 4 C-0.67 2.68 -0.34 1.36 0 0 Z " fill="#272727" transform="translate(219,193)"/>
<path d="M0 0 C2.31 0.33 4.62 0.66 7 1 C7 2.65 7 4.3 7 6 C6.01 6.495 6.01 6.495 5 7 C4.731875 6.030625 4.46375 5.06125 4.1875 4.0625 C3.795625 3.051875 3.40375 2.04125 3 1 C2.01 0.67 1.02 0.34 0 0 Z " fill="#909090" transform="translate(335,169)"/>
<path d="M0 0 C0.86625 0.3403125 0.86625 0.3403125 1.75 0.6875 C0.76 1.0175 -0.23 1.3475 -1.25 1.6875 C-2.25642948 3.01598691 -3.25692179 4.34900329 -4.25 5.6875 C-4.91 5.6875 -5.57 5.6875 -6.25 5.6875 C-6.58 6.3475 -6.91 7.0075 -7.25 7.6875 C-6.91753345 4.61218444 -6.61895244 3.06917494 -4.4375 0.8125 C-2.25 -0.3125 -2.25 -0.3125 0 0 Z " fill="#C6C6C6" transform="translate(209.25,171.3125)"/>
<path d="M0 0 C0 0.66 0 1.32 0 2 C-3.50776784 3.60355101 -6.14354879 4.22036864 -10 4 C-8.68 3.67 -7.36 3.34 -6 3 C-6 2.34 -6 1.68 -6 1 C-4 0 -4 0 0 0 Z " fill="#EEEEEE" transform="translate(225,163)"/>
</svg>
