<svg width="1148" height="262" viewBox="0 0 1148 262" fill="none" xmlns="http://www.w3.org/2000/svg">
<g filter="url(#filter0_d_677_3172)">
<circle cx="93.7126" cy="94.0935" r="75.7126" fill="#3AB54A"/>
</g>
<g filter="url(#filter1_d_677_3172)">
<path d="M114.755 63.0498V75.1893H89.4127V88.3036H108.375V100.089H89.4127V125.254H74.2604V63.0498H114.755Z" fill="white"/>
</g>
<g filter="url(#filter2_d_677_3172)">
<circle cx="332.667" cy="86.2165" r="75.7126" fill="#3AB54A"/>
</g>
<g filter="url(#filter3_d_677_3172)">
<path d="M344.06 102.012H320.844L317.123 113H301.262L323.768 50.7959H341.313L363.82 113H347.782L344.06 102.012ZM340.161 90.3159L332.452 67.5431L324.832 90.3159H340.161Z" fill="white"/>
</g>
<g filter="url(#filter4_d_677_3172)">
<circle cx="562.869" cy="87.9665" r="75.7126" fill="#3AB54A"/>
</g>
<g filter="url(#filter5_d_677_3172)">
<path d="M531.219 87.9363C531.219 81.7927 532.548 76.3284 535.206 71.5435C537.865 66.6995 541.557 62.9483 546.283 60.29C551.068 57.5726 556.473 56.214 562.498 56.214C569.882 56.214 576.203 58.1634 581.461 62.0622C586.718 65.961 590.233 71.2776 592.005 78.012H575.347C574.106 75.4128 572.334 73.4338 570.03 72.0751C567.785 70.7164 565.216 70.0371 562.321 70.0371C557.654 70.0371 553.874 71.6616 550.979 74.9106C548.084 78.1597 546.637 82.5015 546.637 87.9363C546.637 93.371 548.084 97.7129 550.979 100.962C553.874 104.211 557.654 105.835 562.321 105.835C565.216 105.835 567.785 105.156 570.03 103.797C572.334 102.439 574.106 100.46 575.347 97.8606H592.005C590.233 104.595 586.718 109.912 581.461 113.81C576.203 117.65 569.882 119.57 562.498 119.57C556.473 119.57 551.068 118.241 546.283 115.583C541.557 112.865 537.865 109.114 535.206 104.329C532.548 99.5442 531.219 94.0799 531.219 87.9363Z" fill="white"/>
</g>
<g filter="url(#filter6_d_677_3172)">
<circle cx="777.315" cy="87.9665" r="75.7126" fill="#3AB54A"/>
</g>
<g filter="url(#filter7_d_677_3172)">
<path d="M800.861 56.9228V69.0624H784.379V119.127H769.227V69.0624H752.746V56.9228H800.861Z" fill="white"/>
</g>
<g filter="url(#filter8_d_677_3172)">
<circle cx="997.012" cy="87.9665" r="75.7126" fill="#3AB54A"/>
</g>
<g filter="url(#filter9_d_677_3172)">
<path d="M996.476 119.747C990.628 119.747 985.252 118.389 980.349 115.671C975.505 112.954 971.635 109.173 968.741 104.329C965.905 99.426 964.488 93.9322 964.488 87.8477C964.488 81.7631 965.905 76.2989 968.741 71.4549C971.635 66.6108 975.505 62.8302 980.349 60.1128C985.252 57.3954 990.628 56.0367 996.476 56.0367C1002.32 56.0367 1007.67 57.3954 1012.51 60.1128C1017.42 62.8302 1021.26 66.6108 1024.03 71.4549C1026.87 76.2989 1028.29 81.7631 1028.29 87.8477C1028.29 93.9322 1026.87 99.426 1024.03 104.329C1021.2 109.173 1017.36 112.954 1012.51 115.671C1007.67 118.389 1002.32 119.747 996.476 119.747ZM996.476 105.924C1001.44 105.924 1005.4 104.27 1008.35 100.962C1011.36 97.6538 1012.87 93.2824 1012.87 87.8477C1012.87 82.3539 1011.36 77.9824 1008.35 74.7334C1005.4 71.4253 1001.44 69.7713 996.476 69.7713C991.455 69.7713 987.438 71.3958 984.425 74.6448C981.471 77.8938 979.994 82.2948 979.994 87.8477C979.994 93.3415 981.471 97.7424 984.425 101.051C987.438 104.3 991.455 105.924 996.476 105.924Z" fill="white"/>
</g>
<g filter="url(#filter10_d_677_3172)">
<path d="M53.8388 193.686V196.128H46.0925V201.511H52.132V203.953H46.0925V211.936H43.099V193.686H53.8388ZM58.136 195.55C57.5934 195.55 57.1382 195.366 56.7706 194.999C56.403 194.631 56.2191 194.176 56.2191 193.633C56.2191 193.091 56.403 192.635 56.7706 192.268C57.1382 191.9 57.5934 191.716 58.136 191.716C58.6612 191.716 59.1076 191.9 59.4752 192.268C59.8428 192.635 60.0267 193.091 60.0267 193.633C60.0267 194.176 59.8428 194.631 59.4752 194.999C59.1076 195.366 58.6612 195.55 58.136 195.55ZM59.6065 197.467V211.936H56.613V197.467H59.6065ZM70.8366 197.231C71.9745 197.231 72.9898 197.467 73.8826 197.94C74.7929 198.412 75.5019 199.113 76.0096 200.04C76.5173 200.968 76.7711 202.089 76.7711 203.401V211.936H73.8039V203.848C73.8039 202.552 73.48 201.563 72.8323 200.881C72.1846 200.18 71.3005 199.83 70.1802 199.83C69.0598 199.83 68.167 200.18 67.5018 200.881C66.8541 201.563 66.5302 202.552 66.5302 203.848V211.936H63.5367V197.467H66.5302V199.121C67.0204 198.526 67.6418 198.062 68.3946 197.73C69.1648 197.397 69.9788 197.231 70.8366 197.231ZM79.5917 204.636C79.5917 203.183 79.8893 201.896 80.4845 200.776C81.0972 199.655 81.9199 198.789 82.9528 198.176C84.0031 197.546 85.1585 197.231 86.4189 197.231C87.5568 197.231 88.5459 197.458 89.3862 197.913C90.2439 198.351 90.9267 198.902 91.4343 199.568V197.467H94.4541V211.936H91.4343V209.782C90.9267 210.465 90.2352 211.034 89.3599 211.489C88.4846 211.944 87.4868 212.172 86.3664 212.172C85.1235 212.172 83.9856 211.857 82.9528 211.227C81.9199 210.579 81.0972 209.686 80.4845 208.548C79.8893 207.393 79.5917 206.089 79.5917 204.636ZM91.4343 204.688C91.4343 203.69 91.2243 202.824 90.8041 202.089C90.4015 201.353 89.8676 200.793 89.2023 200.408C88.5371 200.023 87.8194 199.83 87.0491 199.83C86.2789 199.83 85.5611 200.023 84.8959 200.408C84.2307 200.776 83.688 201.327 83.2679 202.062C82.8652 202.78 82.6639 203.638 82.6639 204.636C82.6639 205.633 82.8652 206.509 83.2679 207.261C83.688 208.014 84.2307 208.592 84.8959 208.995C85.5786 209.38 86.2964 209.572 87.0491 209.572C87.8194 209.572 88.5371 209.38 89.2023 208.995C89.8676 208.609 90.4015 208.049 90.8041 207.314C91.2243 206.561 91.4343 205.686 91.4343 204.688ZM105.686 197.231C106.824 197.231 107.839 197.467 108.732 197.94C109.642 198.412 110.351 199.113 110.859 200.04C111.366 200.968 111.62 202.089 111.62 203.401V211.936H108.653V203.848C108.653 202.552 108.329 201.563 107.682 200.881C107.034 200.18 106.15 199.83 105.029 199.83C103.909 199.83 103.016 200.18 102.351 200.881C101.703 201.563 101.379 202.552 101.379 203.848V211.936H98.3859V197.467H101.379V199.121C101.87 198.526 102.491 198.062 103.244 197.73C104.014 197.397 104.828 197.231 105.686 197.231ZM114.441 204.688C114.441 203.2 114.738 201.896 115.334 200.776C115.946 199.638 116.787 198.762 117.854 198.15C118.922 197.537 120.148 197.231 121.531 197.231C123.281 197.231 124.726 197.651 125.863 198.491C127.019 199.314 127.798 200.496 128.2 202.036H124.971C124.708 201.318 124.288 200.758 123.71 200.355C123.132 199.953 122.406 199.752 121.531 199.752C120.305 199.752 119.325 200.189 118.59 201.064C117.872 201.922 117.513 203.13 117.513 204.688C117.513 206.246 117.872 207.463 118.59 208.338C119.325 209.213 120.305 209.651 121.531 209.651C123.264 209.651 124.41 208.89 124.971 207.367H128.2C127.78 208.837 126.993 210.01 125.837 210.885C124.682 211.743 123.246 212.172 121.531 212.172C120.148 212.172 118.922 211.866 117.854 211.253C116.787 210.623 115.946 209.747 115.334 208.627C114.738 207.489 114.441 206.176 114.441 204.688ZM144.444 204.347C144.444 204.889 144.409 205.38 144.339 205.817H133.284C133.372 206.973 133.801 207.9 134.571 208.601C135.341 209.301 136.287 209.651 137.407 209.651C139.018 209.651 140.155 208.977 140.821 207.629H144.05C143.613 208.96 142.816 210.054 141.661 210.911C140.523 211.752 139.105 212.172 137.407 212.172C136.024 212.172 134.781 211.866 133.678 211.253C132.593 210.623 131.735 209.747 131.105 208.627C130.492 207.489 130.186 206.176 130.186 204.688C130.186 203.2 130.483 201.896 131.079 200.776C131.691 199.638 132.54 198.762 133.626 198.15C134.729 197.537 135.989 197.231 137.407 197.231C138.772 197.231 139.989 197.528 141.057 198.123C142.125 198.719 142.956 199.559 143.552 200.644C144.147 201.712 144.444 202.946 144.444 204.347ZM141.32 203.401C141.302 202.299 140.908 201.415 140.138 200.749C139.368 200.084 138.414 199.752 137.276 199.752C136.243 199.752 135.359 200.084 134.624 200.749C133.888 201.397 133.451 202.281 133.311 203.401H141.32Z" fill="black"/>
</g>
<g filter="url(#filter11_d_677_3172)">
<path d="M273.325 208.271H265.683L264.37 212H261.246L267.784 193.724H271.25L277.789 212H274.638L273.325 208.271ZM272.484 205.829L269.517 197.348L266.524 205.829H272.484ZM285.883 212.236C284.745 212.236 283.721 212.035 282.811 211.632C281.918 211.212 281.209 210.652 280.684 209.952C280.159 209.234 279.879 208.438 279.844 207.562H282.942C282.995 208.175 283.284 208.691 283.809 209.112C284.352 209.514 285.025 209.715 285.831 209.715C286.671 209.715 287.319 209.558 287.774 209.243C288.247 208.91 288.483 208.49 288.483 207.982C288.483 207.44 288.22 207.037 287.695 206.775C287.187 206.512 286.373 206.223 285.253 205.908C284.168 205.61 283.284 205.322 282.601 205.041C281.918 204.761 281.323 204.332 280.815 203.755C280.325 203.177 280.08 202.416 280.08 201.47C280.08 200.7 280.308 200 280.763 199.37C281.218 198.722 281.866 198.214 282.706 197.847C283.564 197.479 284.544 197.295 285.647 197.295C287.292 197.295 288.614 197.715 289.612 198.556C290.627 199.378 291.17 200.507 291.24 201.943H288.247C288.194 201.295 287.931 200.779 287.459 200.394C286.986 200.009 286.347 199.816 285.542 199.816C284.754 199.816 284.15 199.965 283.73 200.262C283.31 200.56 283.1 200.954 283.1 201.444C283.1 201.829 283.24 202.153 283.52 202.416C283.8 202.678 284.141 202.888 284.544 203.046C284.947 203.186 285.542 203.37 286.33 203.597C287.38 203.877 288.238 204.166 288.903 204.464C289.586 204.744 290.172 205.164 290.662 205.724C291.153 206.284 291.406 207.028 291.424 207.956C291.424 208.779 291.196 209.514 290.741 210.162C290.286 210.81 289.638 211.317 288.798 211.685C287.975 212.053 287.004 212.236 285.883 212.236ZM299.91 212.236C298.772 212.236 297.748 212.035 296.838 211.632C295.945 211.212 295.236 210.652 294.711 209.952C294.186 209.234 293.906 208.438 293.871 207.562H296.969C297.022 208.175 297.311 208.691 297.836 209.112C298.378 209.514 299.052 209.715 299.858 209.715C300.698 209.715 301.346 209.558 301.801 209.243C302.273 208.91 302.51 208.49 302.51 207.982C302.51 207.44 302.247 207.037 301.722 206.775C301.214 206.512 300.4 206.223 299.28 205.908C298.195 205.61 297.311 205.322 296.628 205.041C295.945 204.761 295.35 204.332 294.842 203.755C294.352 203.177 294.107 202.416 294.107 201.47C294.107 200.7 294.335 200 294.79 199.37C295.245 198.722 295.893 198.214 296.733 197.847C297.591 197.479 298.571 197.295 299.674 197.295C301.319 197.295 302.641 197.715 303.639 198.556C304.654 199.378 305.197 200.507 305.267 201.943H302.273C302.221 201.295 301.958 200.779 301.486 200.394C301.013 200.009 300.374 199.816 299.569 199.816C298.781 199.816 298.177 199.965 297.757 200.262C297.337 200.56 297.127 200.954 297.127 201.444C297.127 201.829 297.267 202.153 297.547 202.416C297.827 202.678 298.168 202.888 298.571 203.046C298.974 203.186 299.569 203.37 300.357 203.597C301.407 203.877 302.265 204.166 302.93 204.464C303.613 204.744 304.199 205.164 304.689 205.724C305.179 206.284 305.433 207.028 305.451 207.956C305.451 208.779 305.223 209.514 304.768 210.162C304.313 210.81 303.665 211.317 302.825 211.685C302.002 212.053 301.031 212.236 299.91 212.236ZM321.788 197.531V212H318.795V210.293C318.322 210.888 317.701 211.361 316.93 211.711C316.178 212.044 315.372 212.21 314.515 212.21C313.377 212.21 312.353 211.974 311.442 211.501C310.55 211.028 309.841 210.328 309.315 209.4C308.808 208.473 308.554 207.352 308.554 206.039V197.531H311.521V205.593C311.521 206.888 311.845 207.886 312.493 208.586C313.14 209.269 314.025 209.61 315.145 209.61C316.265 209.61 317.149 209.269 317.797 208.586C318.462 207.886 318.795 206.888 318.795 205.593V197.531H321.788ZM328.732 199.632C329.169 198.897 329.747 198.328 330.465 197.925C331.2 197.505 332.066 197.295 333.064 197.295V200.394H332.303C331.13 200.394 330.237 200.691 329.624 201.286C329.029 201.882 328.732 202.914 328.732 204.385V212H325.738V197.531H328.732V199.632ZM334.818 204.7C334.818 203.247 335.116 201.96 335.711 200.84C336.324 199.72 337.146 198.853 338.179 198.24C339.229 197.61 340.385 197.295 341.645 197.295C342.783 197.295 343.772 197.523 344.613 197.978C345.47 198.415 346.153 198.967 346.661 199.632V197.531H349.68V212H346.661V209.847C346.153 210.53 345.462 211.098 344.586 211.554C343.711 212.009 342.713 212.236 341.593 212.236C340.35 212.236 339.212 211.921 338.179 211.291C337.146 210.643 336.324 209.751 335.711 208.613C335.116 207.457 334.818 206.153 334.818 204.7ZM346.661 204.753C346.661 203.755 346.451 202.888 346.03 202.153C345.628 201.418 345.094 200.858 344.429 200.472C343.763 200.087 343.046 199.895 342.275 199.895C341.505 199.895 340.787 200.087 340.122 200.472C339.457 200.84 338.914 201.391 338.494 202.127C338.092 202.844 337.89 203.702 337.89 204.7C337.89 205.698 338.092 206.573 338.494 207.326C338.914 208.079 339.457 208.656 340.122 209.059C340.805 209.444 341.523 209.637 342.275 209.637C343.046 209.637 343.763 209.444 344.429 209.059C345.094 208.674 345.628 208.114 346.03 207.378C346.451 206.626 346.661 205.75 346.661 204.753ZM360.912 197.295C362.05 197.295 363.065 197.531 363.958 198.004C364.869 198.477 365.577 199.177 366.085 200.105C366.593 201.033 366.847 202.153 366.847 203.466V212H363.879V203.912C363.879 202.617 363.556 201.628 362.908 200.945C362.26 200.245 361.376 199.895 360.256 199.895C359.135 199.895 358.243 200.245 357.577 200.945C356.93 201.628 356.606 202.617 356.606 203.912V212H353.612V197.531H356.606V199.186C357.096 198.591 357.717 198.127 358.47 197.794C359.24 197.461 360.054 197.295 360.912 197.295ZM369.667 204.753C369.667 203.265 369.965 201.96 370.56 200.84C371.173 199.702 372.013 198.827 373.081 198.214C374.149 197.601 375.374 197.295 376.757 197.295C378.508 197.295 379.952 197.715 381.09 198.556C382.245 199.378 383.024 200.56 383.427 202.1H380.197C379.934 201.383 379.514 200.823 378.937 200.42C378.359 200.017 377.632 199.816 376.757 199.816C375.532 199.816 374.551 200.254 373.816 201.129C373.098 201.987 372.739 203.195 372.739 204.753C372.739 206.311 373.098 207.527 373.816 208.403C374.551 209.278 375.532 209.715 376.757 209.715C378.49 209.715 379.637 208.954 380.197 207.431H383.427C383.007 208.901 382.219 210.074 381.064 210.95C379.908 211.807 378.473 212.236 376.757 212.236C375.374 212.236 374.149 211.93 373.081 211.317C372.013 210.687 371.173 209.812 370.56 208.691C369.965 207.554 369.667 206.241 369.667 204.753ZM399.671 204.411C399.671 204.954 399.636 205.444 399.566 205.882H388.511C388.598 207.037 389.027 207.965 389.797 208.665C390.568 209.365 391.513 209.715 392.633 209.715C394.244 209.715 395.382 209.042 396.047 207.694H399.277C398.839 209.024 398.043 210.118 396.887 210.976C395.749 211.816 394.331 212.236 392.633 212.236C391.25 212.236 390.007 211.93 388.905 211.317C387.819 210.687 386.961 209.812 386.331 208.691C385.719 207.554 385.412 206.241 385.412 204.753C385.412 203.265 385.71 201.96 386.305 200.84C386.918 199.702 387.767 198.827 388.852 198.214C389.955 197.601 391.215 197.295 392.633 197.295C393.999 197.295 395.215 197.593 396.283 198.188C397.351 198.783 398.183 199.623 398.778 200.709C399.373 201.777 399.671 203.011 399.671 204.411ZM396.546 203.466C396.528 202.363 396.135 201.479 395.364 200.814C394.594 200.149 393.64 199.816 392.502 199.816C391.469 199.816 390.585 200.149 389.85 200.814C389.115 201.462 388.677 202.346 388.537 203.466H396.546Z" fill="black"/>
</g>
<g filter="url(#filter12_d_677_3172)">
<path d="M487.401 202.771C487.401 200.986 487.812 199.384 488.635 197.966C489.475 196.548 490.604 195.445 492.022 194.657C493.458 193.852 495.025 193.449 496.723 193.449C498.666 193.449 500.39 193.931 501.896 194.894C503.419 195.839 504.521 197.187 505.204 198.937H501.607C501.134 197.975 500.478 197.257 499.637 196.784C498.797 196.312 497.825 196.075 496.723 196.075C495.515 196.075 494.438 196.347 493.493 196.889C492.547 197.432 491.803 198.211 491.261 199.226C490.736 200.242 490.473 201.423 490.473 202.771C490.473 204.119 490.736 205.301 491.261 206.316C491.803 207.332 492.547 208.119 493.493 208.679C494.438 209.222 495.515 209.493 496.723 209.493C497.825 209.493 498.797 209.257 499.637 208.785C500.478 208.312 501.134 207.594 501.607 206.631H505.204C504.521 208.382 503.419 209.73 501.896 210.675C500.39 211.62 498.666 212.093 496.723 212.093C495.007 212.093 493.44 211.699 492.022 210.911C490.604 210.106 489.475 208.995 488.635 207.577C487.812 206.159 487.401 204.557 487.401 202.771ZM514.984 212.172C513.618 212.172 512.384 211.866 511.281 211.253C510.179 210.623 509.312 209.747 508.682 208.627C508.052 207.489 507.736 206.176 507.736 204.688C507.736 203.218 508.06 201.913 508.708 200.776C509.356 199.638 510.24 198.762 511.36 198.15C512.481 197.537 513.732 197.231 515.115 197.231C516.498 197.231 517.75 197.537 518.87 198.15C519.991 198.762 520.875 199.638 521.522 200.776C522.17 201.913 522.494 203.218 522.494 204.688C522.494 206.159 522.161 207.463 521.496 208.601C520.831 209.739 519.921 210.623 518.765 211.253C517.627 211.866 516.367 212.172 514.984 212.172ZM514.984 209.572C515.754 209.572 516.472 209.388 517.137 209.021C517.82 208.653 518.371 208.102 518.791 207.367C519.212 206.631 519.422 205.738 519.422 204.688C519.422 203.638 519.22 202.754 518.818 202.036C518.415 201.301 517.881 200.749 517.216 200.382C516.551 200.014 515.833 199.83 515.063 199.83C514.292 199.83 513.575 200.014 512.909 200.382C512.262 200.749 511.745 201.301 511.36 202.036C510.975 202.754 510.783 203.638 510.783 204.688C510.783 206.246 511.176 207.454 511.964 208.312C512.769 209.152 513.776 209.572 514.984 209.572ZM532.753 197.231C533.891 197.231 534.906 197.467 535.799 197.94C536.709 198.412 537.418 199.113 537.926 200.04C538.434 200.968 538.688 202.089 538.688 203.401V211.936H535.72V203.848C535.72 202.552 535.396 201.563 534.749 200.881C534.101 200.18 533.217 199.83 532.097 199.83C530.976 199.83 530.083 200.18 529.418 200.881C528.77 201.563 528.447 202.552 528.447 203.848V211.936H525.453V197.467H528.447V199.121C528.937 198.526 529.558 198.062 530.311 197.73C531.081 197.397 531.895 197.231 532.753 197.231ZM547.758 212.172C546.62 212.172 545.596 211.971 544.685 211.568C543.793 211.148 543.084 210.588 542.558 209.887C542.033 209.17 541.753 208.373 541.718 207.498H544.817C544.869 208.111 545.158 208.627 545.683 209.047C546.226 209.45 546.9 209.651 547.705 209.651C548.545 209.651 549.193 209.493 549.648 209.178C550.121 208.846 550.357 208.426 550.357 207.918C550.357 207.375 550.095 206.973 549.569 206.71C549.062 206.447 548.248 206.159 547.127 205.844C546.042 205.546 545.158 205.257 544.475 204.977C543.793 204.697 543.197 204.268 542.69 203.69C542.2 203.113 541.954 202.351 541.954 201.406C541.954 200.636 542.182 199.935 542.637 199.305C543.092 198.657 543.74 198.15 544.58 197.782C545.438 197.414 546.418 197.231 547.521 197.231C549.167 197.231 550.489 197.651 551.486 198.491C552.502 199.314 553.044 200.443 553.114 201.878H550.121C550.068 201.231 549.806 200.714 549.333 200.329C548.861 199.944 548.222 199.752 547.416 199.752C546.629 199.752 546.025 199.9 545.604 200.198C545.184 200.496 544.974 200.889 544.974 201.38C544.974 201.765 545.114 202.089 545.394 202.351C545.674 202.614 546.016 202.824 546.418 202.981C546.821 203.121 547.416 203.305 548.204 203.533C549.254 203.813 550.112 204.102 550.777 204.399C551.46 204.679 552.047 205.1 552.537 205.66C553.027 206.22 553.281 206.964 553.298 207.892C553.298 208.714 553.071 209.45 552.616 210.097C552.16 210.745 551.513 211.253 550.672 211.62C549.85 211.988 548.878 212.172 547.758 212.172ZM569.636 197.467V211.936H566.642V210.229C566.17 210.824 565.548 211.297 564.778 211.647C564.025 211.979 563.22 212.146 562.362 212.146C561.224 212.146 560.2 211.909 559.29 211.437C558.397 210.964 557.688 210.264 557.163 209.336C556.655 208.408 556.401 207.288 556.401 205.975V197.467H559.369V205.528C559.369 206.824 559.693 207.822 560.34 208.522C560.988 209.205 561.872 209.546 562.992 209.546C564.113 209.546 564.997 209.205 565.645 208.522C566.31 207.822 566.642 206.824 566.642 205.528V197.467H569.636ZM576.579 192.504V211.936H573.586V192.504H576.579ZM584.002 199.909V207.918C584.002 208.461 584.124 208.855 584.369 209.1C584.632 209.327 585.07 209.441 585.682 209.441H587.52V211.936H585.157C583.809 211.936 582.776 211.62 582.059 210.99C581.341 210.36 580.982 209.336 580.982 207.918V199.909H579.275V197.467H580.982V193.87H584.002V197.467H587.52V199.909H584.002ZM589.281 204.636C589.281 203.183 589.579 201.896 590.174 200.776C590.787 199.655 591.61 198.789 592.643 198.176C593.693 197.546 594.848 197.231 596.109 197.231C597.247 197.231 598.236 197.458 599.076 197.913C599.934 198.351 600.617 198.902 601.124 199.568V197.467H604.144V211.936H601.124V209.782C600.617 210.465 599.925 211.034 599.05 211.489C598.174 211.944 597.177 212.172 596.056 212.172C594.813 212.172 593.675 211.857 592.643 211.227C591.61 210.579 590.787 209.686 590.174 208.548C589.579 207.393 589.281 206.089 589.281 204.636ZM601.124 204.688C601.124 203.69 600.914 202.824 600.494 202.089C600.091 201.353 599.557 200.793 598.892 200.408C598.227 200.023 597.509 199.83 596.739 199.83C595.969 199.83 595.251 200.023 594.586 200.408C593.921 200.776 593.378 201.327 592.958 202.062C592.555 202.78 592.354 203.638 592.354 204.636C592.354 205.633 592.555 206.509 592.958 207.261C593.378 208.014 593.921 208.592 594.586 208.995C595.268 209.38 595.986 209.572 596.739 209.572C597.509 209.572 598.227 209.38 598.892 208.995C599.557 208.609 600.091 208.049 600.494 207.314C600.914 206.561 601.124 205.686 601.124 204.688ZM615.376 197.231C616.514 197.231 617.529 197.467 618.422 197.94C619.332 198.412 620.041 199.113 620.549 200.04C621.056 200.968 621.31 202.089 621.31 203.401V211.936H618.343V203.848C618.343 202.552 618.019 201.563 617.371 200.881C616.724 200.18 615.84 199.83 614.719 199.83C613.599 199.83 612.706 200.18 612.041 200.881C611.393 201.563 611.069 202.552 611.069 203.848V211.936H608.076V197.467H611.069V199.121C611.559 198.526 612.181 198.062 612.934 197.73C613.704 197.397 614.518 197.231 615.376 197.231ZM624.131 204.688C624.131 203.2 624.428 201.896 625.023 200.776C625.636 199.638 626.476 198.762 627.544 198.15C628.612 197.537 629.838 197.231 631.221 197.231C632.971 197.231 634.415 197.651 635.553 198.491C636.709 199.314 637.488 200.496 637.89 202.036H634.66C634.398 201.318 633.978 200.758 633.4 200.355C632.822 199.953 632.096 199.752 631.221 199.752C629.995 199.752 629.015 200.189 628.28 201.064C627.562 201.922 627.203 203.13 627.203 204.688C627.203 206.246 627.562 207.463 628.28 208.338C629.015 209.213 629.995 209.651 631.221 209.651C632.954 209.651 634.1 208.89 634.66 207.367H637.89C637.47 208.837 636.682 210.01 635.527 210.885C634.372 211.743 632.936 212.172 631.221 212.172C629.838 212.172 628.612 211.866 627.544 211.253C626.476 210.623 625.636 209.747 625.023 208.627C624.428 207.489 624.131 206.176 624.131 204.688ZM653.898 197.467L645.022 218.737H641.924L644.865 211.699L639.167 197.467H642.502L646.572 208.496L650.799 197.467H653.898Z" fill="black"/>
</g>
<g filter="url(#filter13_d_677_3172)">
<path d="M738.883 193.686V196.128H734.025V211.936H731.032V196.128H726.148V193.686H738.883ZM740.917 204.636C740.917 203.183 741.215 201.896 741.81 200.776C742.423 199.655 743.245 198.789 744.278 198.176C745.329 197.546 746.484 197.231 747.744 197.231C748.882 197.231 749.871 197.458 750.712 197.913C751.569 198.351 752.252 198.902 752.76 199.568V197.467H755.78V211.936H752.76V209.782C752.252 210.465 751.561 211.034 750.685 211.489C749.81 211.944 748.812 212.172 747.692 212.172C746.449 212.172 745.311 211.857 744.278 211.227C743.245 210.579 742.423 209.686 741.81 208.548C741.215 207.393 740.917 206.089 740.917 204.636ZM752.76 204.688C752.76 203.69 752.55 202.824 752.13 202.089C751.727 201.353 751.193 200.793 750.528 200.408C749.863 200.023 749.145 199.83 748.375 199.83C747.604 199.83 746.887 200.023 746.221 200.408C745.556 200.776 745.013 201.327 744.593 202.062C744.191 202.78 743.989 203.638 743.989 204.636C743.989 205.633 744.191 206.509 744.593 207.261C745.013 208.014 745.556 208.592 746.221 208.995C746.904 209.38 747.622 209.572 748.375 209.572C749.145 209.572 749.863 209.38 750.528 208.995C751.193 208.609 751.727 208.049 752.13 207.314C752.55 206.561 752.76 205.686 752.76 204.688ZM765.908 204.609L770.582 211.936H767.195L764.07 207.025L761.129 211.936H758.005L762.679 204.819L758.005 197.467H761.392L764.517 202.377L767.458 197.467H770.582L765.908 204.609ZM771.817 204.636C771.817 203.183 772.115 201.896 772.71 200.776C773.323 199.655 774.146 198.789 775.178 198.176C776.229 197.546 777.384 197.231 778.645 197.231C779.782 197.231 780.771 197.458 781.612 197.913C782.47 198.351 783.152 198.902 783.66 199.568V197.467H786.68V211.936H783.66V209.782C783.152 210.465 782.461 211.034 781.586 211.489C780.71 211.944 779.712 212.172 778.592 212.172C777.349 212.172 776.211 211.857 775.178 211.227C774.146 210.579 773.323 209.686 772.71 208.548C772.115 207.393 771.817 206.089 771.817 204.636ZM783.66 204.688C783.66 203.69 783.45 202.824 783.03 202.089C782.627 201.353 782.093 200.793 781.428 200.408C780.763 200.023 780.045 199.83 779.275 199.83C778.504 199.83 777.787 200.023 777.122 200.408C776.456 200.776 775.914 201.327 775.493 202.062C775.091 202.78 774.89 203.638 774.89 204.636C774.89 205.633 775.091 206.509 775.493 207.261C775.914 208.014 776.456 208.592 777.122 208.995C777.804 209.38 778.522 209.572 779.275 209.572C780.045 209.572 780.763 209.38 781.428 208.995C782.093 208.609 782.627 208.049 783.03 207.314C783.45 206.561 783.66 205.686 783.66 204.688ZM794.104 199.909V207.918C794.104 208.461 794.226 208.855 794.472 209.1C794.734 209.327 795.172 209.441 795.784 209.441H797.623V211.936H795.259C793.911 211.936 792.879 211.62 792.161 210.99C791.443 210.36 791.084 209.336 791.084 207.918V199.909H789.377V197.467H791.084V193.87H794.104V197.467H797.623V199.909H794.104ZM801.905 195.55C801.362 195.55 800.907 195.366 800.539 194.999C800.172 194.631 799.988 194.176 799.988 193.633C799.988 193.091 800.172 192.635 800.539 192.268C800.907 191.9 801.362 191.716 801.905 191.716C802.43 191.716 802.876 191.9 803.244 192.268C803.611 192.635 803.795 193.091 803.795 193.633C803.795 194.176 803.611 194.631 803.244 194.999C802.876 195.366 802.43 195.55 801.905 195.55ZM803.375 197.467V211.936H800.382V197.467H803.375ZM813.581 212.172C812.216 212.172 810.982 211.866 809.879 211.253C808.776 210.623 807.909 209.747 807.279 208.627C806.649 207.489 806.334 206.176 806.334 204.688C806.334 203.218 806.658 201.913 807.305 200.776C807.953 199.638 808.837 198.762 809.957 198.15C811.078 197.537 812.329 197.231 813.712 197.231C815.095 197.231 816.347 197.537 817.467 198.15C818.588 198.762 819.472 199.638 820.12 200.776C820.767 201.913 821.091 203.218 821.091 204.688C821.091 206.159 820.759 207.463 820.093 208.601C819.428 209.739 818.518 210.623 817.362 211.253C816.225 211.866 814.964 212.172 813.581 212.172ZM813.581 209.572C814.351 209.572 815.069 209.388 815.734 209.021C816.417 208.653 816.969 208.102 817.389 207.367C817.809 206.631 818.019 205.738 818.019 204.688C818.019 203.638 817.818 202.754 817.415 202.036C817.012 201.301 816.478 200.749 815.813 200.382C815.148 200.014 814.43 199.83 813.66 199.83C812.89 199.83 812.172 200.014 811.507 200.382C810.859 200.749 810.343 201.301 809.957 202.036C809.572 202.754 809.38 203.638 809.38 204.688C809.38 206.246 809.774 207.454 810.561 208.312C811.367 209.152 812.373 209.572 813.581 209.572ZM831.35 197.231C832.488 197.231 833.503 197.467 834.396 197.94C835.307 198.412 836.016 199.113 836.523 200.04C837.031 200.968 837.285 202.089 837.285 203.401V211.936H834.318V203.848C834.318 202.552 833.994 201.563 833.346 200.881C832.698 200.18 831.814 199.83 830.694 199.83C829.573 199.83 828.681 200.18 828.015 200.881C827.368 201.563 827.044 202.552 827.044 203.848V211.936H824.05V197.467H827.044V199.121C827.534 198.526 828.155 198.062 828.908 197.73C829.678 197.397 830.492 197.231 831.35 197.231Z" fill="black"/>
</g>
<g filter="url(#filter14_d_677_3172)">
<path d="M932.016 212.119C930.318 212.119 928.751 211.725 927.316 210.938C925.898 210.132 924.768 209.021 923.928 207.603C923.105 206.167 922.694 204.557 922.694 202.771C922.694 200.986 923.105 199.384 923.928 197.966C924.768 196.548 925.898 195.445 927.316 194.657C928.751 193.852 930.318 193.449 932.016 193.449C933.731 193.449 935.298 193.852 936.716 194.657C938.152 195.445 939.281 196.548 940.104 197.966C940.926 199.384 941.338 200.986 941.338 202.771C941.338 204.557 940.926 206.167 940.104 207.603C939.281 209.021 938.152 210.132 936.716 210.938C935.298 211.725 933.731 212.119 932.016 212.119ZM932.016 209.52C933.224 209.52 934.3 209.248 935.246 208.706C936.191 208.146 936.926 207.358 937.451 206.342C937.994 205.31 938.265 204.119 938.265 202.771C938.265 201.423 937.994 200.242 937.451 199.226C936.926 198.211 936.191 197.432 935.246 196.889C934.3 196.347 933.224 196.075 932.016 196.075C930.808 196.075 929.731 196.347 928.786 196.889C927.841 197.432 927.097 198.211 926.554 199.226C926.029 200.242 925.766 201.423 925.766 202.771C925.766 204.119 926.029 205.31 926.554 206.342C927.097 207.358 927.841 208.146 928.786 208.706C929.731 209.248 930.808 209.52 932.016 209.52ZM957.387 197.467V211.936H954.393V210.229C953.92 210.824 953.299 211.297 952.529 211.647C951.776 211.979 950.971 212.146 950.113 212.146C948.975 212.146 947.951 211.909 947.041 211.437C946.148 210.964 945.439 210.264 944.914 209.336C944.406 208.408 944.152 207.288 944.152 205.975V197.467H947.119V205.528C947.119 206.824 947.443 207.822 948.091 208.522C948.739 209.205 949.623 209.546 950.743 209.546C951.863 209.546 952.747 209.205 953.395 208.522C954.06 207.822 954.393 206.824 954.393 205.528V197.467H957.387ZM964.829 199.909V207.918C964.829 208.461 964.951 208.855 965.196 209.1C965.459 209.327 965.896 209.441 966.509 209.441H968.347V211.936H965.984C964.636 211.936 963.603 211.62 962.885 210.99C962.168 210.36 961.809 209.336 961.809 207.918V199.909H960.102V197.467H961.809V193.87H964.829V197.467H968.347V199.909H964.829ZM976.358 212.172C975.22 212.172 974.196 211.971 973.286 211.568C972.393 211.148 971.684 210.588 971.159 209.887C970.634 209.17 970.354 208.373 970.319 207.498H973.417C973.47 208.111 973.758 208.627 974.284 209.047C974.826 209.45 975.5 209.651 976.306 209.651C977.146 209.651 977.794 209.493 978.249 209.178C978.721 208.846 978.958 208.426 978.958 207.918C978.958 207.375 978.695 206.973 978.17 206.71C977.662 206.447 976.848 206.159 975.728 205.844C974.642 205.546 973.758 205.257 973.076 204.977C972.393 204.697 971.798 204.268 971.29 203.69C970.8 203.113 970.555 202.351 970.555 201.406C970.555 200.636 970.782 199.935 971.238 199.305C971.693 198.657 972.34 198.15 973.181 197.782C974.039 197.414 975.019 197.231 976.122 197.231C977.767 197.231 979.089 197.651 980.087 198.491C981.102 199.314 981.645 200.443 981.715 201.878H978.721C978.669 201.231 978.406 200.714 977.934 200.329C977.461 199.944 976.822 199.752 976.017 199.752C975.229 199.752 974.625 199.9 974.205 200.198C973.785 200.496 973.575 200.889 973.575 201.38C973.575 201.765 973.715 202.089 973.995 202.351C974.275 202.614 974.616 202.824 975.019 202.981C975.421 203.121 976.017 203.305 976.804 203.533C977.855 203.813 978.713 204.102 979.378 204.399C980.061 204.679 980.647 205.1 981.137 205.66C981.627 206.22 981.881 206.964 981.899 207.892C981.899 208.714 981.671 209.45 981.216 210.097C980.761 210.745 980.113 211.253 979.273 211.62C978.45 211.988 977.478 212.172 976.358 212.172ZM991.409 212.172C990.044 212.172 988.809 211.866 987.707 211.253C986.604 210.623 985.737 209.747 985.107 208.627C984.477 207.489 984.162 206.176 984.162 204.688C984.162 203.218 984.485 201.913 985.133 200.776C985.781 199.638 986.665 198.762 987.785 198.15C988.906 197.537 990.157 197.231 991.54 197.231C992.923 197.231 994.175 197.537 995.295 198.15C996.416 198.762 997.3 199.638 997.947 200.776C998.595 201.913 998.919 203.218 998.919 204.688C998.919 206.159 998.586 207.463 997.921 208.601C997.256 209.739 996.346 210.623 995.19 211.253C994.052 211.866 992.792 212.172 991.409 212.172ZM991.409 209.572C992.179 209.572 992.897 209.388 993.562 209.021C994.245 208.653 994.796 208.102 995.217 207.367C995.637 206.631 995.847 205.738 995.847 204.688C995.847 203.638 995.645 202.754 995.243 202.036C994.84 201.301 994.306 200.749 993.641 200.382C992.976 200.014 992.258 199.83 991.488 199.83C990.718 199.83 990 200.014 989.335 200.382C988.687 200.749 988.17 201.301 987.785 202.036C987.4 202.754 987.208 203.638 987.208 204.688C987.208 206.246 987.601 207.454 988.389 208.312C989.195 209.152 990.201 209.572 991.409 209.572ZM1014.98 197.467V211.936H1011.99V210.229C1011.52 210.824 1010.89 211.297 1010.12 211.647C1009.37 211.979 1008.57 212.146 1007.71 212.146C1006.57 212.146 1005.55 211.909 1004.64 211.437C1003.74 210.964 1003.03 210.264 1002.51 209.336C1002 208.408 1001.75 207.288 1001.75 205.975V197.467H1004.71V205.528C1004.71 206.824 1005.04 207.822 1005.69 208.522C1006.33 209.205 1007.22 209.546 1008.34 209.546C1009.46 209.546 1010.34 209.205 1010.99 208.522C1011.66 207.822 1011.99 206.824 1011.99 205.528V197.467H1014.98ZM1021.92 199.568C1022.36 198.832 1022.94 198.264 1023.66 197.861C1024.39 197.441 1025.26 197.231 1026.26 197.231V200.329H1025.5C1024.32 200.329 1023.43 200.627 1022.82 201.222C1022.22 201.817 1021.92 202.85 1021.92 204.321V211.936H1018.93V197.467H1021.92V199.568ZM1028.01 204.688C1028.01 203.2 1028.31 201.896 1028.9 200.776C1029.52 199.638 1030.36 198.762 1031.42 198.15C1032.49 197.537 1033.72 197.231 1035.1 197.231C1036.85 197.231 1038.3 197.651 1039.43 198.491C1040.59 199.314 1041.37 200.496 1041.77 202.036H1038.54C1038.28 201.318 1037.86 200.758 1037.28 200.355C1036.7 199.953 1035.98 199.752 1035.1 199.752C1033.88 199.752 1032.9 200.189 1032.16 201.064C1031.44 201.922 1031.08 203.13 1031.08 204.688C1031.08 206.246 1031.44 207.463 1032.16 208.338C1032.9 209.213 1033.88 209.651 1035.1 209.651C1036.83 209.651 1037.98 208.89 1038.54 207.367H1041.77C1041.35 208.837 1040.56 210.01 1039.41 210.885C1038.25 211.743 1036.82 212.172 1035.1 212.172C1033.72 212.172 1032.49 211.866 1031.42 211.253C1030.36 210.623 1029.52 209.747 1028.9 208.627C1028.31 207.489 1028.01 206.176 1028.01 204.688ZM1046.28 195.55C1045.73 195.55 1045.28 195.366 1044.91 194.999C1044.54 194.631 1044.36 194.176 1044.36 193.633C1044.36 193.091 1044.54 192.635 1044.91 192.268C1045.28 191.9 1045.73 191.716 1046.28 191.716C1046.8 191.716 1047.25 191.9 1047.62 192.268C1047.98 192.635 1048.17 193.091 1048.17 193.633C1048.17 194.176 1047.98 194.631 1047.62 194.999C1047.25 195.366 1046.8 195.55 1046.28 195.55ZM1047.75 197.467V211.936H1044.75V197.467H1047.75ZM1058.98 197.231C1060.12 197.231 1061.13 197.467 1062.02 197.94C1062.93 198.412 1063.64 199.113 1064.15 200.04C1064.66 200.968 1064.91 202.089 1064.91 203.401V211.936H1061.94V203.848C1061.94 202.552 1061.62 201.563 1060.97 200.881C1060.33 200.18 1059.44 199.83 1058.32 199.83C1057.2 199.83 1056.31 200.18 1055.64 200.881C1054.99 201.563 1054.67 202.552 1054.67 203.848V211.936H1051.68V197.467H1054.67V199.121C1055.16 198.526 1055.78 198.062 1056.54 197.73C1057.31 197.397 1058.12 197.231 1058.98 197.231ZM1074.56 197.231C1075.68 197.231 1076.67 197.458 1077.53 197.913C1078.4 198.351 1079.08 198.902 1079.58 199.568V197.467H1082.59V212.172C1082.59 213.502 1082.31 214.684 1081.75 215.717C1081.19 216.767 1080.38 217.59 1079.31 218.185C1078.26 218.78 1077 219.078 1075.53 219.078C1073.57 219.078 1071.94 218.614 1070.65 217.686C1069.35 216.776 1068.62 215.533 1068.44 213.957H1071.41C1071.64 214.71 1072.12 215.314 1072.85 215.769C1073.61 216.242 1074.5 216.478 1075.53 216.478C1076.74 216.478 1077.71 216.111 1078.45 215.375C1079.2 214.64 1079.58 213.572 1079.58 212.172V209.756C1079.07 210.439 1078.38 211.016 1077.5 211.489C1076.64 211.944 1075.66 212.172 1074.56 212.172C1073.3 212.172 1072.14 211.857 1071.09 211.227C1070.06 210.579 1069.24 209.686 1068.63 208.548C1068.03 207.393 1067.73 206.089 1067.73 204.636C1067.73 203.183 1068.03 201.896 1068.63 200.776C1069.24 199.655 1070.06 198.789 1071.09 198.176C1072.14 197.546 1073.3 197.231 1074.56 197.231ZM1079.58 204.688C1079.58 203.69 1079.37 202.824 1078.94 202.089C1078.54 201.353 1078.01 200.793 1077.34 200.408C1076.68 200.023 1075.96 199.83 1075.19 199.83C1074.42 199.83 1073.7 200.023 1073.04 200.408C1072.37 200.776 1071.83 201.327 1071.41 202.062C1071.01 202.78 1070.8 203.638 1070.8 204.636C1070.8 205.633 1071.01 206.509 1071.41 207.261C1071.83 208.014 1072.37 208.592 1073.04 208.995C1073.72 209.38 1074.44 209.572 1075.19 209.572C1075.96 209.572 1076.68 209.38 1077.34 208.995C1078.01 208.609 1078.54 208.049 1078.94 207.314C1079.37 206.561 1079.58 205.686 1079.58 204.688Z" fill="black"/>
</g>
<defs>
<filter id="filter0_d_677_3172" x="0.494192" y="18.3809" width="186.436" height="186.437" filterUnits="userSpaceOnUse" color-interpolation-filters="sRGB">
<feFlood flood-opacity="0" result="BackgroundImageFix"/>
<feColorMatrix in="SourceAlpha" type="matrix" values="0 0 0 0 0 0 0 0 0 0 0 0 0 0 0 0 0 0 127 0" result="hardAlpha"/>
<feMorphology radius="8.7529" operator="erode" in="SourceAlpha" result="effect1_dropShadow_677_3172"/>
<feOffset dy="17.5058"/>
<feGaussianBlur stdDeviation="13.1294"/>
<feComposite in2="hardAlpha" operator="out"/>
<feColorMatrix type="matrix" values="0 0 0 0 0.145098 0 0 0 0 0.203922 0 0 0 0 0.513726 0 0 0 1 0"/>
<feBlend mode="normal" in2="BackgroundImageFix" result="effect1_dropShadow_677_3172"/>
<feBlend mode="normal" in="SourceGraphic" in2="effect1_dropShadow_677_3172" result="shape"/>
</filter>
<filter id="filter1_d_677_3172" x="62.3133" y="63.0488" width="64.3889" height="86.0999" filterUnits="userSpaceOnUse" color-interpolation-filters="sRGB">
<feFlood flood-opacity="0" result="BackgroundImageFix"/>
<feColorMatrix in="SourceAlpha" type="matrix" values="0 0 0 0 0 0 0 0 0 0 0 0 0 0 0 0 0 0 127 0" result="hardAlpha"/>
<feMorphology radius="5.9737" operator="erode" in="SourceAlpha" result="effect1_dropShadow_677_3172"/>
<feOffset dy="11.9474"/>
<feGaussianBlur stdDeviation="8.96055"/>
<feComposite in2="hardAlpha" operator="out"/>
<feColorMatrix type="matrix" values="0 0 0 0 0.14902 0 0 0 0 0.223529 0 0 0 0 0.301961 0 0 0 1 0"/>
<feBlend mode="normal" in2="BackgroundImageFix" result="effect1_dropShadow_677_3172"/>
<feBlend mode="normal" in="SourceGraphic" in2="effect1_dropShadow_677_3172" result="shape"/>
</filter>
<filter id="filter2_d_677_3172" x="239.448" y="10.5039" width="186.436" height="186.437" filterUnits="userSpaceOnUse" color-interpolation-filters="sRGB">
<feFlood flood-opacity="0" result="BackgroundImageFix"/>
<feColorMatrix in="SourceAlpha" type="matrix" values="0 0 0 0 0 0 0 0 0 0 0 0 0 0 0 0 0 0 127 0" result="hardAlpha"/>
<feMorphology radius="8.7529" operator="erode" in="SourceAlpha" result="effect1_dropShadow_677_3172"/>
<feOffset dy="17.5058"/>
<feGaussianBlur stdDeviation="13.1294"/>
<feComposite in2="hardAlpha" operator="out"/>
<feColorMatrix type="matrix" values="0 0 0 0 0.145098 0 0 0 0 0.203922 0 0 0 0 0.513726 0 0 0 1 0"/>
<feBlend mode="normal" in2="BackgroundImageFix" result="effect1_dropShadow_677_3172"/>
<feBlend mode="normal" in="SourceGraphic" in2="effect1_dropShadow_677_3172" result="shape"/>
</filter>
<filter id="filter3_d_677_3172" x="289.314" y="50.7949" width="86.4534" height="86.0999" filterUnits="userSpaceOnUse" color-interpolation-filters="sRGB">
<feFlood flood-opacity="0" result="BackgroundImageFix"/>
<feColorMatrix in="SourceAlpha" type="matrix" values="0 0 0 0 0 0 0 0 0 0 0 0 0 0 0 0 0 0 127 0" result="hardAlpha"/>
<feMorphology radius="5.9737" operator="erode" in="SourceAlpha" result="effect1_dropShadow_677_3172"/>
<feOffset dy="11.9474"/>
<feGaussianBlur stdDeviation="8.96055"/>
<feComposite in2="hardAlpha" operator="out"/>
<feColorMatrix type="matrix" values="0 0 0 0 0.14902 0 0 0 0 0.223529 0 0 0 0 0.301961 0 0 0 1 0"/>
<feBlend mode="normal" in2="BackgroundImageFix" result="effect1_dropShadow_677_3172"/>
<feBlend mode="normal" in="SourceGraphic" in2="effect1_dropShadow_677_3172" result="shape"/>
</filter>
<filter id="filter4_d_677_3172" x="469.65" y="12.2539" width="186.436" height="186.437" filterUnits="userSpaceOnUse" color-interpolation-filters="sRGB">
<feFlood flood-opacity="0" result="BackgroundImageFix"/>
<feColorMatrix in="SourceAlpha" type="matrix" values="0 0 0 0 0 0 0 0 0 0 0 0 0 0 0 0 0 0 127 0" result="hardAlpha"/>
<feMorphology radius="8.7529" operator="erode" in="SourceAlpha" result="effect1_dropShadow_677_3172"/>
<feOffset dy="17.5058"/>
<feGaussianBlur stdDeviation="13.1294"/>
<feComposite in2="hardAlpha" operator="out"/>
<feColorMatrix type="matrix" values="0 0 0 0 0.145098 0 0 0 0 0.203922 0 0 0 0 0.513726 0 0 0 1 0"/>
<feBlend mode="normal" in2="BackgroundImageFix" result="effect1_dropShadow_677_3172"/>
<feBlend mode="normal" in="SourceGraphic" in2="effect1_dropShadow_677_3172" result="shape"/>
</filter>
<filter id="filter5_d_677_3172" x="519.271" y="56.2148" width="84.6819" height="87.2503" filterUnits="userSpaceOnUse" color-interpolation-filters="sRGB">
<feFlood flood-opacity="0" result="BackgroundImageFix"/>
<feColorMatrix in="SourceAlpha" type="matrix" values="0 0 0 0 0 0 0 0 0 0 0 0 0 0 0 0 0 0 127 0" result="hardAlpha"/>
<feMorphology radius="5.9737" operator="erode" in="SourceAlpha" result="effect1_dropShadow_677_3172"/>
<feOffset dy="11.9474"/>
<feGaussianBlur stdDeviation="8.96055"/>
<feComposite in2="hardAlpha" operator="out"/>
<feColorMatrix type="matrix" values="0 0 0 0 0.14902 0 0 0 0 0.223529 0 0 0 0 0.301961 0 0 0 1 0"/>
<feBlend mode="normal" in2="BackgroundImageFix" result="effect1_dropShadow_677_3172"/>
<feBlend mode="normal" in="SourceGraphic" in2="effect1_dropShadow_677_3172" result="shape"/>
</filter>
<filter id="filter6_d_677_3172" x="684.097" y="12.2539" width="186.436" height="186.437" filterUnits="userSpaceOnUse" color-interpolation-filters="sRGB">
<feFlood flood-opacity="0" result="BackgroundImageFix"/>
<feColorMatrix in="SourceAlpha" type="matrix" values="0 0 0 0 0 0 0 0 0 0 0 0 0 0 0 0 0 0 127 0" result="hardAlpha"/>
<feMorphology radius="8.7529" operator="erode" in="SourceAlpha" result="effect1_dropShadow_677_3172"/>
<feOffset dy="17.5058"/>
<feGaussianBlur stdDeviation="13.1294"/>
<feComposite in2="hardAlpha" operator="out"/>
<feColorMatrix type="matrix" values="0 0 0 0 0.145098 0 0 0 0 0.203922 0 0 0 0 0.513726 0 0 0 1 0"/>
<feBlend mode="normal" in2="BackgroundImageFix" result="effect1_dropShadow_677_3172"/>
<feBlend mode="normal" in="SourceGraphic" in2="effect1_dropShadow_677_3172" result="shape"/>
</filter>
<filter id="filter7_d_677_3172" x="740.799" y="56.9219" width="72.01" height="86.0999" filterUnits="userSpaceOnUse" color-interpolation-filters="sRGB">
<feFlood flood-opacity="0" result="BackgroundImageFix"/>
<feColorMatrix in="SourceAlpha" type="matrix" values="0 0 0 0 0 0 0 0 0 0 0 0 0 0 0 0 0 0 127 0" result="hardAlpha"/>
<feMorphology radius="5.9737" operator="erode" in="SourceAlpha" result="effect1_dropShadow_677_3172"/>
<feOffset dy="11.9474"/>
<feGaussianBlur stdDeviation="8.96055"/>
<feComposite in2="hardAlpha" operator="out"/>
<feColorMatrix type="matrix" values="0 0 0 0 0.14902 0 0 0 0 0.223529 0 0 0 0 0.301961 0 0 0 1 0"/>
<feBlend mode="normal" in2="BackgroundImageFix" result="effect1_dropShadow_677_3172"/>
<feBlend mode="normal" in="SourceGraphic" in2="effect1_dropShadow_677_3172" result="shape"/>
</filter>
<filter id="filter8_d_677_3172" x="903.794" y="12.2539" width="186.436" height="186.437" filterUnits="userSpaceOnUse" color-interpolation-filters="sRGB">
<feFlood flood-opacity="0" result="BackgroundImageFix"/>
<feColorMatrix in="SourceAlpha" type="matrix" values="0 0 0 0 0 0 0 0 0 0 0 0 0 0 0 0 0 0 127 0" result="hardAlpha"/>
<feMorphology radius="8.7529" operator="erode" in="SourceAlpha" result="effect1_dropShadow_677_3172"/>
<feOffset dy="17.5058"/>
<feGaussianBlur stdDeviation="13.1294"/>
<feComposite in2="hardAlpha" operator="out"/>
<feColorMatrix type="matrix" values="0 0 0 0 0.145098 0 0 0 0 0.203922 0 0 0 0 0.513726 0 0 0 1 0"/>
<feBlend mode="normal" in2="BackgroundImageFix" result="effect1_dropShadow_677_3172"/>
<feBlend mode="normal" in="SourceGraphic" in2="effect1_dropShadow_677_3172" result="shape"/>
</filter>
<filter id="filter9_d_677_3172" x="952.54" y="56.0371" width="87.6946" height="87.6057" filterUnits="userSpaceOnUse" color-interpolation-filters="sRGB">
<feFlood flood-opacity="0" result="BackgroundImageFix"/>
<feColorMatrix in="SourceAlpha" type="matrix" values="0 0 0 0 0 0 0 0 0 0 0 0 0 0 0 0 0 0 127 0" result="hardAlpha"/>
<feMorphology radius="5.9737" operator="erode" in="SourceAlpha" result="effect1_dropShadow_677_3172"/>
<feOffset dy="11.9474"/>
<feGaussianBlur stdDeviation="8.96055"/>
<feComposite in2="hardAlpha" operator="out"/>
<feColorMatrix type="matrix" values="0 0 0 0 0.14902 0 0 0 0 0.223529 0 0 0 0 0.301961 0 0 0 1 0"/>
<feBlend mode="normal" in2="BackgroundImageFix" result="effect1_dropShadow_677_3172"/>
<feBlend mode="normal" in="SourceGraphic" in2="effect1_dropShadow_677_3172" result="shape"/>
</filter>
<filter id="filter10_d_677_3172" x="25.5928" y="191.717" width="136.357" height="55.4667" filterUnits="userSpaceOnUse" color-interpolation-filters="sRGB">
<feFlood flood-opacity="0" result="BackgroundImageFix"/>
<feColorMatrix in="SourceAlpha" type="matrix" values="0 0 0 0 0 0 0 0 0 0 0 0 0 0 0 0 0 0 127 0" result="hardAlpha"/>
<feMorphology radius="8.7529" operator="erode" in="SourceAlpha" result="effect1_dropShadow_677_3172"/>
<feOffset dy="17.5058"/>
<feGaussianBlur stdDeviation="13.1294"/>
<feComposite in2="hardAlpha" operator="out"/>
<feColorMatrix type="matrix" values="0 0 0 0 0.227451 0 0 0 0 0.709804 0 0 0 0 0.290196 0 0 0 1 0"/>
<feBlend mode="normal" in2="BackgroundImageFix" result="effect1_dropShadow_677_3172"/>
<feBlend mode="normal" in="SourceGraphic" in2="effect1_dropShadow_677_3172" result="shape"/>
</filter>
<filter id="filter11_d_677_3172" x="243.74" y="193.725" width="173.436" height="53.5233" filterUnits="userSpaceOnUse" color-interpolation-filters="sRGB">
<feFlood flood-opacity="0" result="BackgroundImageFix"/>
<feColorMatrix in="SourceAlpha" type="matrix" values="0 0 0 0 0 0 0 0 0 0 0 0 0 0 0 0 0 0 127 0" result="hardAlpha"/>
<feMorphology radius="8.7529" operator="erode" in="SourceAlpha" result="effect1_dropShadow_677_3172"/>
<feOffset dy="17.5058"/>
<feGaussianBlur stdDeviation="13.1294"/>
<feComposite in2="hardAlpha" operator="out"/>
<feColorMatrix type="matrix" values="0 0 0 0 0.227451 0 0 0 0 0.709804 0 0 0 0 0.290196 0 0 0 1 0"/>
<feBlend mode="normal" in2="BackgroundImageFix" result="effect1_dropShadow_677_3172"/>
<feBlend mode="normal" in="SourceGraphic" in2="effect1_dropShadow_677_3172" result="shape"/>
</filter>
<filter id="filter12_d_677_3172" x="469.895" y="192.504" width="201.509" height="61.244" filterUnits="userSpaceOnUse" color-interpolation-filters="sRGB">
<feFlood flood-opacity="0" result="BackgroundImageFix"/>
<feColorMatrix in="SourceAlpha" type="matrix" values="0 0 0 0 0 0 0 0 0 0 0 0 0 0 0 0 0 0 127 0" result="hardAlpha"/>
<feMorphology radius="8.7529" operator="erode" in="SourceAlpha" result="effect1_dropShadow_677_3172"/>
<feOffset dy="17.5058"/>
<feGaussianBlur stdDeviation="13.1294"/>
<feComposite in2="hardAlpha" operator="out"/>
<feColorMatrix type="matrix" values="0 0 0 0 0.227451 0 0 0 0 0.709804 0 0 0 0 0.290196 0 0 0 1 0"/>
<feBlend mode="normal" in2="BackgroundImageFix" result="effect1_dropShadow_677_3172"/>
<feBlend mode="normal" in="SourceGraphic" in2="effect1_dropShadow_677_3172" result="shape"/>
</filter>
<filter id="filter13_d_677_3172" x="708.642" y="191.717" width="146.149" height="55.4667" filterUnits="userSpaceOnUse" color-interpolation-filters="sRGB">
<feFlood flood-opacity="0" result="BackgroundImageFix"/>
<feColorMatrix in="SourceAlpha" type="matrix" values="0 0 0 0 0 0 0 0 0 0 0 0 0 0 0 0 0 0 127 0" result="hardAlpha"/>
<feMorphology radius="8.7529" operator="erode" in="SourceAlpha" result="effect1_dropShadow_677_3172"/>
<feOffset dy="17.5058"/>
<feGaussianBlur stdDeviation="13.1294"/>
<feComposite in2="hardAlpha" operator="out"/>
<feColorMatrix type="matrix" values="0 0 0 0 0.227451 0 0 0 0 0.709804 0 0 0 0 0.290196 0 0 0 1 0"/>
<feBlend mode="normal" in2="BackgroundImageFix" result="effect1_dropShadow_677_3172"/>
<feBlend mode="normal" in="SourceGraphic" in2="effect1_dropShadow_677_3172" result="shape"/>
</filter>
<filter id="filter14_d_677_3172" x="905.189" y="191.717" width="194.912" height="62.3729" filterUnits="userSpaceOnUse" color-interpolation-filters="sRGB">
<feFlood flood-opacity="0" result="BackgroundImageFix"/>
<feColorMatrix in="SourceAlpha" type="matrix" values="0 0 0 0 0 0 0 0 0 0 0 0 0 0 0 0 0 0 127 0" result="hardAlpha"/>
<feMorphology radius="8.7529" operator="erode" in="SourceAlpha" result="effect1_dropShadow_677_3172"/>
<feOffset dy="17.5058"/>
<feGaussianBlur stdDeviation="13.1294"/>
<feComposite in2="hardAlpha" operator="out"/>
<feColorMatrix type="matrix" values="0 0 0 0 0.227451 0 0 0 0 0.709804 0 0 0 0 0.290196 0 0 0 1 0"/>
<feBlend mode="normal" in2="BackgroundImageFix" result="effect1_dropShadow_677_3172"/>
<feBlend mode="normal" in="SourceGraphic" in2="effect1_dropShadow_677_3172" result="shape"/>
</filter>
</defs>
</svg>
