<svg width="1440" height="140" viewBox="0 0 1440 140" fill="none" xmlns="http://www.w3.org/2000/svg">
<g opacity="0.5">
<g opacity="0.6">
<path d="M11.6853 60.356C11.5184 58.6722 10.8017 57.3641 9.53536 56.4318C8.26903 55.4994 6.55044 55.0332 4.37959 55.0332C2.90452 55.0332 1.65906 55.242 0.643218 55.6594C-0.37263 56.063 -1.15191 56.6266 -1.69462 57.3502C-2.22342 58.0738 -2.48782 58.8948 -2.48782 59.8133C-2.51565 60.5786 -2.35562 61.2466 -2.00773 61.8171C-1.64592 62.3877 -1.15191 62.8817 -0.525703 63.2992C0.100504 63.7027 0.824122 64.0576 1.64515 64.3637C2.46618 64.656 3.34287 64.9064 4.27522 65.1152L8.11596 66.0336C9.98067 66.4511 11.6923 67.0077 13.2509 67.7035C14.8094 68.3993 16.1592 69.2551 17.3003 70.2709C18.4414 71.2868 19.3251 72.4835 19.9513 73.8612C20.5914 75.2389 20.9184 76.8183 20.9323 78.5995C20.9184 81.2157 20.2505 83.4839 18.9285 85.4043C17.6204 87.3107 15.7279 88.7928 13.2509 89.8504C10.7878 90.894 7.81677 91.4159 4.33784 91.4159C0.886743 91.4159 -2.11905 90.8871 -4.67955 89.8295C-7.22612 88.7719 -9.21607 87.2064 -10.6494 85.1329C-12.0688 83.0456 -12.8133 80.4642 -12.8829 77.3888H-4.13683C-4.03942 78.8222 -3.62891 80.0189 -2.90529 80.9791C-2.16776 81.9254 -1.1867 82.642 0.0378829 83.1291C1.27638 83.6022 2.67491 83.8388 4.23347 83.8388C5.7642 83.8388 7.09315 83.6161 8.22033 83.1708C9.36142 82.7255 10.2451 82.1063 10.8713 81.3131C11.4975 80.5199 11.8106 79.6084 11.8106 78.5786C11.8106 77.6184 11.5253 76.8113 10.9548 76.1573C10.3981 75.5033 9.57711 74.9466 8.49168 74.4874C7.42017 74.0282 6.10514 73.6107 4.54658 73.235L-0.108231 72.0661C-3.7124 71.1894 -6.55817 69.8187 -8.64553 67.954C-10.7329 66.0893 -11.7696 63.5775 -11.7557 60.4186C-11.7696 57.8303 -11.0808 55.569 -9.6892 53.6347C-8.28372 51.7004 -6.35639 50.1906 -3.90722 49.1051C-1.45806 48.0197 1.32509 47.477 4.44221 47.477C7.61499 47.477 10.3842 48.0197 12.7499 49.1051C15.1295 50.1906 16.9803 51.7004 18.3023 53.6347C19.6243 55.569 20.3061 57.8094 20.3479 60.356H11.6853ZM43.8985 58.7487V65.4283H24.5904V58.7487H43.8985ZM28.9739 51.0673H37.866V80.9582C37.866 81.7792 37.9913 82.4194 38.2418 82.8786C38.4922 83.3239 38.8401 83.637 39.2854 83.8179C39.7446 83.9988 40.2734 84.0893 40.8718 84.0893C41.2893 84.0893 41.7068 84.0545 42.1242 83.9849C42.5417 83.9014 42.8618 83.8388 43.0844 83.797L44.483 90.4139C44.0376 90.5531 43.4114 90.7131 42.6043 90.894C41.7972 91.0889 40.8162 91.2071 39.6612 91.2489C37.5181 91.3324 35.6395 91.0471 34.0253 90.3931C32.425 89.739 31.1795 88.7232 30.2889 87.3455C29.3983 85.9679 28.96 84.2284 28.9739 82.1271V51.0673ZM58.8335 91.4159C56.7879 91.4159 54.965 91.061 53.3647 90.3513C51.7644 89.6277 50.498 88.5632 49.5657 87.1577C48.6472 85.7383 48.188 83.971 48.188 81.8558C48.188 80.0746 48.515 78.5786 49.1691 77.368C49.8231 76.1573 50.7137 75.1832 51.8409 74.4457C52.9681 73.7081 54.2483 73.1515 55.6816 72.7758C57.1289 72.4 58.6457 72.1357 60.2321 71.9826C62.0968 71.7878 63.5997 71.6069 64.7408 71.4399C65.8819 71.259 66.7098 70.9946 67.2247 70.6467C67.7396 70.2988 67.997 69.7839 67.997 69.102V68.9768C67.997 67.6548 67.5796 66.632 66.7446 65.9084C65.9236 65.1847 64.7547 64.8229 63.2379 64.8229C61.6376 64.8229 60.3643 65.1778 59.418 65.8875C58.4717 66.5833 57.8455 67.46 57.5394 68.5176L49.3152 67.8496C49.7327 65.9014 50.5537 64.2176 51.7783 62.7982C53.0029 61.3649 54.5823 60.2655 56.5166 59.5002C58.4648 58.7209 60.7191 58.3313 63.2796 58.3313C65.0608 58.3313 66.7655 58.54 68.3936 58.9575C70.0357 59.3749 71.4899 60.022 72.7562 60.8987C74.0365 61.7754 75.0454 62.9026 75.7829 64.2802C76.5204 65.644 76.8892 67.2791 76.8892 69.1855V90.8105H68.4563V86.3645H68.2058C67.6909 87.3664 67.0021 88.2501 66.1393 89.0154C65.2765 89.7669 64.2398 90.3583 63.0291 90.7897C61.8185 91.2071 60.4199 91.4159 58.8335 91.4159ZM61.3801 85.279C62.6882 85.279 63.8432 85.0216 64.8451 84.5067C65.8471 83.9779 66.6333 83.2682 67.2038 82.3776C67.7744 81.487 68.0597 80.4781 68.0597 79.351V75.9486C67.7813 76.1295 67.3987 76.2965 66.9116 76.4495C66.4385 76.5887 65.9027 76.7209 65.3043 76.8461C64.706 76.9574 64.1076 77.0618 63.5092 77.1592C62.9108 77.2427 62.3681 77.3193 61.8811 77.3888C60.8374 77.5419 59.9259 77.7854 59.1466 78.1194C58.3674 78.4534 57.762 78.9056 57.3306 79.4762C56.8993 80.0328 56.6836 80.7286 56.6836 81.5636C56.6836 82.7742 57.1219 83.6996 57.9986 84.3397C58.8892 84.9659 60.0164 85.279 61.3801 85.279ZM83.7879 90.8105V58.7487H92.4087V64.3428H92.7427C93.3271 62.3529 94.3082 60.85 95.6858 59.8342C97.0635 58.8044 98.6499 58.2895 100.445 58.2895C100.89 58.2895 101.37 58.3173 101.885 58.373C102.4 58.4287 102.852 58.5052 103.242 58.6026V66.4928C102.825 66.3676 102.247 66.2563 101.51 66.1588C100.772 66.0614 100.097 66.0127 99.4848 66.0127C98.1768 66.0127 97.0078 66.298 95.9781 66.8686C94.9622 67.4252 94.1551 68.2045 93.5567 69.2064C92.9723 70.2083 92.68 71.3633 92.68 72.6714V90.8105H83.7879ZM126.5 58.7487V65.4283H107.192V58.7487H126.5ZM111.576 51.0673H120.468V80.9582C120.468 81.7792 120.593 82.4194 120.844 82.8786C121.094 83.3239 121.442 83.637 121.887 83.8179C122.347 83.9988 122.875 84.0893 123.474 84.0893C123.891 84.0893 124.309 84.0545 124.726 83.9849C125.144 83.9014 125.464 83.8388 125.686 83.797L127.085 90.4139C126.64 90.5531 126.013 90.7131 125.206 90.894C124.399 91.0889 123.418 91.2071 122.263 91.2489C120.12 91.3324 118.241 91.0471 116.627 90.3931C115.027 89.739 113.781 88.7232 112.891 87.3455C112 85.9679 111.562 84.2284 111.576 82.1271V51.0673ZM146.56 91.4368C143.262 91.4368 140.423 90.7688 138.044 89.4329C135.678 88.0831 133.855 86.1766 132.575 83.7135C131.294 81.2365 130.654 78.3073 130.654 74.9258C130.654 71.6277 131.294 68.7333 132.575 66.2423C133.855 63.7514 135.657 61.8102 137.981 60.4186C140.319 59.027 143.06 58.3313 146.205 58.3313C148.32 58.3313 150.289 58.6722 152.112 59.3541C153.949 60.022 155.55 61.0309 156.913 62.3807C158.291 63.7306 159.362 65.4283 160.128 67.4739C160.893 69.5056 161.276 71.8852 161.276 74.6126V77.0549H134.203V71.5442H152.906C152.906 70.264 152.627 69.1299 152.071 68.1418C151.514 67.1538 150.742 66.3815 149.754 65.8249C148.78 65.2543 147.645 64.9691 146.351 64.9691C145.001 64.9691 143.805 65.2822 142.761 65.9084C141.731 66.5207 140.924 67.3486 140.34 68.3923C139.755 69.4221 139.456 70.5701 139.442 71.8365V77.0757C139.442 78.6621 139.734 80.0328 140.319 81.1878C140.917 82.3428 141.759 83.2334 142.844 83.8596C143.93 84.4859 145.217 84.799 146.706 84.799C147.694 84.799 148.599 84.6598 149.42 84.3815C150.241 84.1032 150.943 83.6857 151.528 83.1291C152.112 82.5724 152.558 81.8906 152.864 81.0835L161.088 81.6262C160.671 83.6022 159.815 85.3278 158.521 86.8028C157.24 88.264 155.584 89.4051 153.553 90.2261C151.535 91.0332 149.204 91.4368 146.56 91.4368ZM178.893 91.3324C176.458 91.3324 174.252 90.7062 172.276 89.4538C170.314 88.1874 168.756 86.3297 167.601 83.8805C166.459 81.4174 165.889 78.3977 165.889 74.8214C165.889 71.1476 166.48 68.0931 167.663 65.6579C168.846 63.2087 170.418 61.3788 172.381 60.1681C174.357 58.9435 176.521 58.3313 178.872 58.3313C180.667 58.3313 182.163 58.6374 183.36 59.2497C184.571 59.8481 185.545 60.5995 186.282 61.504C187.034 62.3946 187.604 63.2713 187.994 64.1341H188.265V48.0615H197.137V90.8105H188.37V85.6756H187.994C187.577 86.5663 186.985 87.4499 186.22 88.3266C185.468 89.1894 184.487 89.906 183.277 90.4766C182.08 91.0471 180.619 91.3324 178.893 91.3324ZM181.711 84.2562C183.144 84.2562 184.355 83.8666 185.343 83.0873C186.345 82.2941 187.11 81.1878 187.639 79.7684C188.182 78.349 188.453 76.6861 188.453 74.7796C188.453 72.8732 188.189 71.2172 187.66 69.8117C187.131 68.4062 186.366 67.3208 185.364 66.5554C184.362 65.7901 183.144 65.4074 181.711 65.4074C180.25 65.4074 179.018 65.804 178.016 66.5972C177.015 67.3904 176.256 68.4897 175.741 69.8952C175.226 71.3007 174.969 72.9288 174.969 74.7796C174.969 76.6443 175.226 78.2934 175.741 79.7267C176.27 81.1461 177.028 82.2593 178.016 83.0664C179.018 83.8596 180.25 84.2562 181.711 84.2562ZM218.219 90.8105V48.0615H246.524V55.5133H227.257V65.6996H244.645V73.1515H227.257V90.8105H218.219ZM252.436 90.8105V58.7487H261.328V90.8105H252.436ZM256.903 54.6158C255.581 54.6158 254.447 54.1774 253.501 53.3007C252.568 52.4101 252.102 51.3456 252.102 50.1071C252.102 48.8825 252.568 47.8318 253.501 46.9552C254.447 46.0645 255.581 45.6192 256.903 45.6192C258.225 45.6192 259.352 46.0645 260.284 46.9552C261.231 47.8318 261.704 48.8825 261.704 50.1071C261.704 51.3456 261.231 52.4101 260.284 53.3007C259.352 54.1774 258.225 54.6158 256.903 54.6158ZM277.343 48.0615V90.8105H268.451V48.0615H277.343ZM284.466 90.8105V58.7487H293.359V90.8105H284.466ZM288.933 54.6158C287.611 54.6158 286.477 54.1774 285.531 53.3007C284.599 52.4101 284.132 51.3456 284.132 50.1071C284.132 48.8825 284.599 47.8318 285.531 46.9552C286.477 46.0645 287.611 45.6192 288.933 45.6192C290.255 45.6192 291.383 46.0645 292.315 46.9552C293.261 47.8318 293.734 48.8825 293.734 50.1071C293.734 51.3456 293.261 52.4101 292.315 53.3007C291.383 54.1774 290.255 54.6158 288.933 54.6158ZM309.374 72.2748V90.8105H300.482V58.7487H308.956V64.4055H309.332C310.042 62.5408 311.232 61.0657 312.902 59.9803C314.571 58.8809 316.596 58.3313 318.976 58.3313C321.202 58.3313 323.143 58.8183 324.799 59.7924C326.455 60.7665 327.743 62.1581 328.661 63.9671C329.58 65.7623 330.039 67.9053 330.039 70.3962V90.8105H321.147V71.9826C321.16 70.0205 320.66 68.4897 319.644 67.3904C318.628 66.2771 317.229 65.7205 315.448 65.7205C314.251 65.7205 313.194 65.9779 312.275 66.4928C311.371 67.0077 310.661 67.7592 310.146 68.7472C309.645 69.7213 309.388 70.8972 309.374 72.2748ZM351.492 103.502C348.611 103.502 346.141 103.105 344.081 102.312C342.036 101.533 340.408 100.468 339.197 99.1182C337.986 97.7684 337.2 96.2516 336.838 94.5678L345.062 93.4615C345.313 94.1016 345.71 94.7 346.252 95.2566C346.795 95.8132 347.512 96.2586 348.402 96.5925C349.307 96.9404 350.406 97.1144 351.7 97.1144C353.635 97.1144 355.228 96.6412 356.48 95.695C357.747 94.7626 358.38 93.1971 358.38 90.9984V85.1329H358.004C357.614 86.0235 357.03 86.8654 356.251 87.6586C355.471 88.4518 354.47 89.0989 353.245 89.5999C352.02 90.1008 350.559 90.3513 348.861 90.3513C346.454 90.3513 344.262 89.7947 342.286 88.6814C340.324 87.5543 338.759 85.8357 337.59 83.5257C336.435 81.2017 335.857 78.2655 335.857 74.717C335.857 71.085 336.449 68.0514 337.632 65.6161C338.814 63.1809 340.387 61.3579 342.349 60.1473C344.325 58.9366 346.489 58.3313 348.841 58.3313C350.636 58.3313 352.139 58.6374 353.349 59.2497C354.56 59.8481 355.534 60.5995 356.272 61.504C357.023 62.3946 357.601 63.2713 358.004 64.1341H358.338V58.7487H367.168V91.1237C367.168 93.8511 366.5 96.1333 365.164 97.9702C363.828 99.8071 361.977 101.185 359.611 102.103C357.26 103.036 354.553 103.502 351.492 103.502ZM351.679 83.6718C353.113 83.6718 354.323 83.3169 355.311 82.6072C356.313 81.8836 357.079 80.8538 357.608 79.5179C358.15 78.1681 358.422 76.5539 358.422 74.6753C358.422 72.7966 358.157 71.1685 357.628 69.7909C357.1 68.3993 356.334 67.3208 355.332 66.5554C354.33 65.7901 353.113 65.4074 351.679 65.4074C350.218 65.4074 348.987 65.804 347.985 66.5972C346.983 67.3765 346.224 68.4619 345.71 69.8535C345.195 71.245 344.937 72.8523 344.937 74.6753C344.937 76.5261 345.195 78.1264 345.71 79.4762C346.238 80.8121 346.997 81.8488 347.985 82.5864C348.987 83.31 350.218 83.6718 351.679 83.6718Z" fill="#5F6C84"/>
</g>
<circle cx="429.484" cy="70.3093" r="7.69012" fill="#253483"/>
<path d="M508.228 57.9513C508.015 55.8028 507.101 54.1338 505.485 52.9442C503.869 51.7545 501.676 51.1597 498.906 51.1597C497.024 51.1597 495.435 51.426 494.139 51.9587C492.843 52.4736 491.848 53.1927 491.156 54.116C490.481 55.0393 490.144 56.0869 490.144 57.2588C490.108 58.2354 490.313 59.0876 490.756 59.8156C491.218 60.5436 491.848 61.1739 492.647 61.7066C493.446 62.2215 494.37 62.6743 495.417 63.0649C496.465 63.4378 497.584 63.7574 498.773 64.0237L503.674 65.1956C506.053 65.7282 508.237 66.4385 510.226 67.3263C512.214 68.214 513.937 69.306 515.392 70.6022C516.848 71.8983 517.976 73.4253 518.775 75.1831C519.592 76.941 520.009 78.9562 520.027 81.229C520.009 84.567 519.157 87.4612 517.47 89.9115C515.801 92.344 513.386 94.235 510.226 95.5844C507.083 96.9161 503.292 97.5819 498.853 97.5819C494.45 97.5819 490.614 96.9072 487.347 95.5578C484.098 94.2084 481.559 92.2108 479.73 89.5653C477.919 86.9019 476.969 83.6082 476.88 79.6842H488.04C488.164 81.513 488.688 83.04 489.611 84.2652C490.552 85.4726 491.804 86.387 493.367 87.0084C494.947 87.6121 496.731 87.914 498.72 87.914C500.673 87.914 502.369 87.6299 503.807 87.0617C505.263 86.4935 506.39 85.7034 507.189 84.6913C507.988 83.6792 508.388 82.5162 508.388 81.2023C508.388 79.9772 508.024 78.9474 507.296 78.1128C506.586 77.2783 505.538 76.5681 504.153 75.9822C502.786 75.3962 501.108 74.8635 499.119 74.3841L493.18 72.8927C488.581 71.7741 484.95 70.0251 482.287 67.6459C479.624 65.2666 478.301 62.0617 478.319 58.0312C478.301 54.7286 479.18 51.8433 480.955 49.3753C482.749 46.9072 485.208 44.9807 488.333 43.5958C491.458 42.2108 495.009 41.5184 498.986 41.5184C503.035 41.5184 506.568 42.2108 509.586 43.5958C512.623 44.9807 514.984 46.9072 516.671 49.3753C518.358 51.8433 519.228 54.702 519.281 57.9513H508.228ZM549.33 55.9005V64.4232H524.694V55.9005H549.33ZM530.287 46.0993H541.633V84.2385C541.633 85.2861 541.793 86.1029 542.113 86.6888C542.432 87.257 542.876 87.6565 543.444 87.8873C544.03 88.1182 544.705 88.2336 545.468 88.2336C546.001 88.2336 546.534 88.1892 547.066 88.1004C547.599 87.9939 548.007 87.914 548.292 87.8607L550.076 96.3035C549.508 96.4811 548.709 96.6853 547.679 96.9161C546.649 97.1647 545.397 97.3156 543.924 97.3689C541.189 97.4754 538.792 97.1114 536.733 96.2769C534.691 95.4424 533.102 94.1462 531.965 92.3884C530.829 90.6306 530.27 88.4111 530.287 85.73V46.0993ZM568.387 97.5819C565.776 97.5819 563.45 97.1292 561.409 96.2236C559.367 95.3003 557.751 93.942 556.561 92.1487C555.389 90.3376 554.803 88.0827 554.803 85.3838C554.803 83.1111 555.221 81.2023 556.055 79.6576C556.89 78.1128 558.026 76.8699 559.464 75.9289C560.903 74.9878 562.536 74.2776 564.365 73.7982C566.211 73.3188 568.147 72.9814 570.171 72.7861C572.55 72.5376 574.468 72.3067 575.924 72.0937C577.38 71.8628 578.436 71.5255 579.093 71.0816C579.75 70.6377 580.079 69.9807 580.079 69.1107V68.9509C580.079 67.2641 579.546 65.9591 578.481 65.0358C577.433 64.1125 575.942 63.6508 574.006 63.6508C571.964 63.6508 570.34 64.1036 569.132 65.0091C567.925 65.8969 567.126 67.0155 566.735 68.365L556.242 67.5127C556.774 65.0269 557.822 62.8785 559.384 61.0674C560.947 59.2385 562.962 57.8358 565.43 56.8593C567.916 55.865 570.792 55.3678 574.059 55.3678C576.332 55.3678 578.507 55.6341 580.585 56.1668C582.68 56.6995 584.535 57.5251 586.151 58.6437C587.785 59.7623 589.072 61.2006 590.013 62.9584C590.954 64.6984 591.425 66.7847 591.425 69.2172V96.8096H580.665V91.1366H580.345C579.688 92.415 578.809 93.5425 577.708 94.5191C576.607 95.4779 575.285 96.2325 573.74 96.7829C572.195 97.3156 570.411 97.5819 568.387 97.5819ZM571.636 89.7517C573.305 89.7517 574.779 89.4232 576.057 88.7662C577.335 88.0915 578.339 87.186 579.067 86.0496C579.795 84.9133 580.159 83.626 580.159 82.1878V77.8465C579.803 78.0773 579.315 78.2904 578.694 78.4857C578.09 78.6633 577.406 78.8319 576.643 78.9917C575.879 79.1338 575.116 79.267 574.352 79.3912C573.589 79.4978 572.896 79.5954 572.275 79.6842C570.943 79.8795 569.78 80.1903 568.786 80.6164C567.792 81.0425 567.019 81.6196 566.469 82.3476C565.919 83.0578 565.643 83.9456 565.643 85.0109C565.643 86.5557 566.203 87.7364 567.321 88.5532C568.458 89.3522 569.896 89.7517 571.636 89.7517ZM600.227 96.8096V55.9005H611.227V63.0383H611.653C612.398 60.4992 613.65 58.5816 615.408 57.2854C617.166 55.9715 619.19 55.3145 621.48 55.3145C622.049 55.3145 622.661 55.3501 623.318 55.4211C623.975 55.4921 624.552 55.5898 625.049 55.714V65.7815C624.517 65.6217 623.78 65.4797 622.839 65.3554C621.898 65.2311 621.037 65.1689 620.255 65.1689C618.586 65.1689 617.095 65.5329 615.781 66.2609C614.485 66.9711 613.455 67.9655 612.691 69.2439C611.946 70.5223 611.573 71.996 611.573 73.665V96.8096H600.227ZM654.726 55.9005V64.4232H630.09V55.9005H654.726ZM635.683 46.0993H647.029V84.2385C647.029 85.2861 647.188 86.1029 647.508 86.6888C647.828 87.257 648.272 87.6565 648.84 87.8873C649.426 88.1182 650.1 88.2336 650.864 88.2336C651.397 88.2336 651.929 88.1892 652.462 88.1004C652.995 87.9939 653.403 87.914 653.687 87.8607L655.472 96.3035C654.903 96.4811 654.104 96.6853 653.074 96.9161C652.045 97.1647 650.793 97.3156 649.319 97.3689C646.585 97.4754 644.188 97.1114 642.128 96.2769C640.086 95.4424 638.497 94.1462 637.361 92.3884C636.224 90.6306 635.665 88.4111 635.683 85.73V46.0993ZM680.321 97.6086C676.112 97.6086 672.49 96.7563 669.454 95.0518C666.436 93.3295 664.11 90.8969 662.476 87.7542C660.843 84.5937 660.026 80.8561 660.026 76.5415C660.026 72.3334 660.843 68.6402 662.476 65.4619C664.11 62.2836 666.409 59.8067 669.374 58.0312C672.357 56.2556 675.855 55.3678 679.868 55.3678C682.567 55.3678 685.079 55.8028 687.405 56.6729C689.749 57.5251 691.791 58.8124 693.531 60.5347C695.289 62.257 696.656 64.4232 697.632 67.0333C698.609 69.6256 699.097 72.6618 699.097 76.142V79.2581H664.554V72.2268H688.417C688.417 70.5933 688.062 69.1462 687.352 67.8856C686.642 66.6249 685.656 65.6395 684.396 64.9292C683.153 64.2013 681.706 63.8373 680.054 63.8373C678.332 63.8373 676.805 64.2368 675.473 65.0358C674.159 65.817 673.13 66.8735 672.384 68.2052C671.638 69.5191 671.256 70.9839 671.239 72.5997V79.2847C671.239 81.3089 671.611 83.0578 672.357 84.5315C673.121 86.0052 674.195 87.1416 675.58 87.9406C676.965 88.7396 678.607 89.1391 680.507 89.1391C681.768 89.1391 682.922 88.9616 683.969 88.6064C685.017 88.2513 685.914 87.7187 686.659 87.0084C687.405 86.2982 687.973 85.4282 688.364 84.3983L698.858 85.0908C698.325 87.6121 697.233 89.8138 695.582 91.6959C693.948 93.5603 691.835 95.0162 689.243 96.0638C686.668 97.0937 683.694 97.6086 680.321 97.6086ZM721.576 97.4754C718.469 97.4754 715.654 96.6764 713.133 95.0784C710.63 93.4626 708.641 91.0922 707.167 87.9672C705.711 84.8245 704.983 80.9715 704.983 76.4083C704.983 71.7208 705.738 67.8234 707.247 64.7162C708.756 61.5912 710.763 59.2563 713.266 57.7116C715.788 56.1491 718.549 55.3678 721.549 55.3678C723.84 55.3678 725.748 55.7584 727.275 56.5397C728.82 57.3032 730.063 58.262 731.004 59.4161C731.963 60.5525 732.691 61.6711 733.188 62.7719H733.534V42.2641H744.854V96.8096H733.668V90.2577H733.188C732.655 91.3941 731.901 92.5216 730.924 93.6402C729.965 94.741 728.714 95.6555 727.169 96.3834C725.642 97.1114 723.778 97.4754 721.576 97.4754ZM725.171 88.4466C727 88.4466 728.545 87.9495 729.806 86.9552C731.084 85.9431 732.061 84.5315 732.735 82.7204C733.428 80.9094 733.774 78.7876 733.774 76.355C733.774 73.9225 733.437 71.8096 732.762 70.0162C732.087 68.2229 731.111 66.838 729.832 65.8614C728.554 64.8849 727 64.3966 725.171 64.3966C723.307 64.3966 721.736 64.9026 720.457 65.9147C719.179 66.9268 718.211 68.3295 717.554 70.1228C716.897 71.9161 716.569 73.9935 716.569 76.355C716.569 78.7343 716.897 80.8383 717.554 82.6672C718.229 84.4782 719.197 85.8987 720.457 86.9285C721.736 87.9406 723.307 88.4466 725.171 88.4466ZM771.753 96.8096V42.2641H807.869V51.7723H783.286V64.7694H805.472V74.2776H783.286V96.8096H771.753ZM815.412 96.8096V55.9005H826.758V96.8096H815.412ZM821.112 50.627C819.425 50.627 817.978 50.0677 816.771 48.9491C815.581 47.8128 814.986 46.4545 814.986 44.8742C814.986 43.3117 815.581 41.9711 816.771 40.8525C817.978 39.7162 819.425 39.148 821.112 39.148C822.799 39.148 824.237 39.7162 825.427 40.8525C826.634 41.9711 827.238 43.3117 827.238 44.8742C827.238 46.4545 826.634 47.8128 825.427 48.9491C824.237 50.0677 822.799 50.627 821.112 50.627ZM847.193 42.2641V96.8096H835.847V42.2641H847.193ZM856.282 96.8096V55.9005H867.627V96.8096H856.282ZM861.981 50.627C860.294 50.627 858.847 50.0677 857.64 48.9491C856.45 47.8128 855.855 46.4545 855.855 44.8742C855.855 43.3117 856.45 41.9711 857.64 40.8525C858.847 39.7162 860.294 39.148 861.981 39.148C863.668 39.148 865.106 39.7162 866.296 40.8525C867.503 41.9711 868.107 43.3117 868.107 44.8742C868.107 46.4545 867.503 47.8128 866.296 48.9491C865.106 50.0677 863.668 50.627 861.981 50.627ZM888.062 73.159V96.8096H876.716V55.9005H887.529V63.1182H888.009C888.914 60.7389 890.432 58.8568 892.563 57.4719C894.694 56.0692 897.277 55.3678 900.313 55.3678C903.154 55.3678 905.631 55.9893 907.744 57.2322C909.857 58.4751 911.5 60.2506 912.671 62.5589C913.843 64.8493 914.429 67.5837 914.429 70.762V96.8096H903.083V72.7861C903.101 70.2826 902.462 68.3295 901.166 66.9268C899.87 65.5063 898.085 64.7961 895.812 64.7961C894.285 64.7961 892.936 65.1246 891.764 65.7815C890.61 66.4385 889.704 67.3973 889.047 68.6579C888.408 69.9008 888.08 71.4012 888.062 73.159ZM941.802 113.003C938.126 113.003 934.975 112.497 932.347 111.485C929.737 110.49 927.659 109.132 926.115 107.41C924.57 105.687 923.567 103.752 923.105 101.604L933.599 100.192C933.918 101.009 934.424 101.772 935.117 102.483C935.809 103.193 936.724 103.761 937.86 104.187C939.014 104.631 940.417 104.853 942.068 104.853C944.536 104.853 946.569 104.249 948.167 103.042C949.783 101.852 950.591 99.8547 950.591 97.0493V89.5653H950.112C949.614 90.7016 948.869 91.7758 947.874 92.7879C946.88 93.8 945.602 94.6256 944.039 95.2648C942.477 95.904 940.612 96.2236 938.446 96.2236C935.374 96.2236 932.578 95.5134 930.056 94.093C927.553 92.6547 925.555 90.4619 924.064 87.5145C922.59 84.5493 921.853 80.8028 921.853 76.2751C921.853 71.6409 922.608 67.7702 924.117 64.6629C925.626 61.5557 927.633 59.2297 930.136 57.6849C932.658 56.1402 935.419 55.3678 938.419 55.3678C940.71 55.3678 942.627 55.7584 944.172 56.5397C945.717 57.3032 946.96 58.262 947.901 59.4161C948.86 60.5525 949.597 61.6711 950.112 62.7719H950.538V55.9005H961.804V97.2091C961.804 100.689 960.951 103.601 959.247 105.945C957.542 108.289 955.181 110.046 952.162 111.218C949.162 112.408 945.708 113.003 941.802 113.003ZM942.042 87.7009C943.87 87.7009 945.415 87.2481 946.676 86.3426C947.954 85.4193 948.931 84.1054 949.605 82.4008C950.298 80.6785 950.644 78.6189 950.644 76.2219C950.644 73.8248 950.307 71.7474 949.632 69.9896C948.957 68.214 947.981 66.838 946.702 65.8614C945.424 64.8849 943.87 64.3966 942.042 64.3966C940.177 64.3966 938.606 64.9026 937.327 65.9147C936.049 66.909 935.081 68.2939 934.424 70.0695C933.767 71.8451 933.439 73.8959 933.439 76.2219C933.439 78.5834 933.767 80.6253 934.424 82.3476C935.099 84.0521 936.067 85.3749 937.327 86.316C938.606 87.2393 940.177 87.7009 942.042 87.7009Z" fill="#E9FFE9"/>
<circle cx="1001.32" cy="70.3093" r="7.69012" fill="#253483"/>
<path opacity="0.6" d="M1096.92 60.356C1096.75 58.6722 1096.04 57.3641 1094.77 56.4318C1093.51 55.4994 1091.79 55.0332 1089.62 55.0332C1088.14 55.0332 1086.9 55.242 1085.88 55.6594C1084.86 56.063 1084.08 56.6266 1083.54 57.3502C1083.01 58.0738 1082.75 58.8948 1082.75 59.8133C1082.72 60.5786 1082.88 61.2466 1083.23 61.8171C1083.59 62.3877 1084.08 62.8817 1084.71 63.2992C1085.34 63.7027 1086.06 64.0576 1086.88 64.3637C1087.7 64.656 1088.58 64.9064 1089.51 65.1152L1093.35 66.0336C1095.22 66.4511 1096.93 67.0077 1098.49 67.7035C1100.05 68.3993 1101.4 69.2551 1102.54 70.2709C1103.68 71.2868 1104.56 72.4835 1105.19 73.8612C1105.83 75.2389 1106.15 76.8183 1106.17 78.5995C1106.15 81.2157 1105.49 83.4839 1104.16 85.4043C1102.86 87.3107 1100.96 88.7928 1098.49 89.8504C1096.02 90.894 1093.05 91.4159 1089.57 91.4159C1086.12 91.4159 1083.12 90.8871 1080.56 89.8295C1078.01 88.7719 1076.02 87.2064 1074.59 85.1329C1073.17 83.0456 1072.42 80.4642 1072.35 77.3888H1081.1C1081.2 78.8222 1081.61 80.0189 1082.33 80.9791C1083.07 81.9254 1084.05 82.642 1085.27 83.1291C1086.51 83.6022 1087.91 83.8388 1089.47 83.8388C1091 83.8388 1092.33 83.6161 1093.46 83.1708C1094.6 82.7255 1095.48 82.1063 1096.11 81.3131C1096.73 80.5199 1097.05 79.6084 1097.05 78.5786C1097.05 77.6184 1096.76 76.8113 1096.19 76.1573C1095.63 75.5033 1094.81 74.9466 1093.73 74.4874C1092.66 74.0282 1091.34 73.6107 1089.78 73.235L1085.13 72.0661C1081.52 71.1894 1078.68 69.8187 1076.59 67.954C1074.5 66.0893 1073.47 63.5775 1073.48 60.4186C1073.47 57.8303 1074.16 55.569 1075.55 53.6347C1076.95 51.7004 1078.88 50.1906 1081.33 49.1051C1083.78 48.0197 1086.56 47.477 1089.68 47.477C1092.85 47.477 1095.62 48.0197 1097.99 49.1051C1100.37 50.1906 1102.22 51.7004 1103.54 53.6347C1104.86 55.569 1105.54 57.8094 1105.58 60.356H1096.92ZM1129.13 58.7487V65.4283H1109.83V58.7487H1129.13ZM1114.21 51.0673H1123.1V80.9582C1123.1 81.7792 1123.23 82.4194 1123.48 82.8786C1123.73 83.3239 1124.08 83.637 1124.52 83.8179C1124.98 83.9988 1125.51 84.0893 1126.11 84.0893C1126.53 84.0893 1126.94 84.0545 1127.36 83.9849C1127.78 83.9014 1128.1 83.8388 1128.32 83.797L1129.72 90.4139C1129.27 90.5531 1128.65 90.7131 1127.84 90.894C1127.03 91.0889 1126.05 91.2071 1124.9 91.2489C1122.75 91.3324 1120.88 91.0471 1119.26 90.3931C1117.66 89.739 1116.42 88.7232 1115.53 87.3455C1114.63 85.9679 1114.2 84.2284 1114.21 82.1271V51.0673ZM1144.07 91.4159C1142.02 91.4159 1140.2 91.061 1138.6 90.3513C1137 89.6277 1135.73 88.5632 1134.8 87.1577C1133.88 85.7383 1133.42 83.971 1133.42 81.8558C1133.42 80.0746 1133.75 78.5786 1134.41 77.368C1135.06 76.1573 1135.95 75.1832 1137.08 74.4457C1138.2 73.7081 1139.48 73.1515 1140.92 72.7758C1142.37 72.4 1143.88 72.1357 1145.47 71.9826C1147.33 71.7878 1148.84 71.6069 1149.98 71.4399C1151.12 71.259 1151.95 70.9946 1152.46 70.6467C1152.98 70.2988 1153.23 69.7839 1153.23 69.102V68.9768C1153.23 67.6548 1152.82 66.632 1151.98 65.9084C1151.16 65.1847 1149.99 64.8229 1148.47 64.8229C1146.87 64.8229 1145.6 65.1778 1144.65 65.8875C1143.71 66.5833 1143.08 67.46 1142.78 68.5176L1134.55 67.8496C1134.97 65.9014 1135.79 64.2176 1137.01 62.7982C1138.24 61.3649 1139.82 60.2655 1141.75 59.5002C1143.7 58.7209 1145.96 58.3313 1148.52 58.3313C1150.3 58.3313 1152 58.54 1153.63 58.9575C1155.27 59.3749 1156.73 60.022 1157.99 60.8987C1159.27 61.7754 1160.28 62.9026 1161.02 64.2802C1161.76 65.644 1162.13 67.2791 1162.13 69.1855V90.8105H1153.69V86.3645H1153.44C1152.93 87.3664 1152.24 88.2501 1151.38 89.0154C1150.51 89.7669 1149.48 90.3583 1148.27 90.7897C1147.05 91.2071 1145.66 91.4159 1144.07 91.4159ZM1146.62 85.279C1147.92 85.279 1149.08 85.0216 1150.08 84.5067C1151.08 83.9779 1151.87 83.2682 1152.44 82.3776C1153.01 81.487 1153.3 80.4781 1153.3 79.351V75.9486C1153.02 76.1295 1152.63 76.2965 1152.15 76.4495C1151.67 76.5887 1151.14 76.7209 1150.54 76.8461C1149.94 76.9574 1149.34 77.0618 1148.75 77.1592C1148.15 77.2427 1147.6 77.3193 1147.12 77.3888C1146.07 77.5419 1145.16 77.7854 1144.38 78.1194C1143.6 78.4534 1143 78.9056 1142.57 79.4762C1142.14 80.0328 1141.92 80.7286 1141.92 81.5636C1141.92 82.7742 1142.36 83.6996 1143.23 84.3397C1144.13 84.9659 1145.25 85.279 1146.62 85.279ZM1169.02 90.8105V58.7487H1177.65V64.3428H1177.98C1178.56 62.3529 1179.54 60.85 1180.92 59.8342C1182.3 58.8044 1183.89 58.2895 1185.68 58.2895C1186.13 58.2895 1186.61 58.3173 1187.12 58.373C1187.64 58.4287 1188.09 58.5052 1188.48 58.6026V66.4928C1188.06 66.3676 1187.48 66.2563 1186.75 66.1588C1186.01 66.0614 1185.33 66.0127 1184.72 66.0127C1183.41 66.0127 1182.24 66.298 1181.21 66.8686C1180.2 67.4252 1179.39 68.2045 1178.79 69.2064C1178.21 70.2083 1177.92 71.3633 1177.92 72.6714V90.8105H1169.02ZM1211.74 58.7487V65.4283H1192.43V58.7487H1211.74ZM1196.81 51.0673H1205.7V80.9582C1205.7 81.7792 1205.83 82.4194 1206.08 82.8786C1206.33 83.3239 1206.68 83.637 1207.12 83.8179C1207.58 83.9988 1208.11 84.0893 1208.71 84.0893C1209.13 84.0893 1209.55 84.0545 1209.96 83.9849C1210.38 83.9014 1210.7 83.8388 1210.92 83.797L1212.32 90.4139C1211.88 90.5531 1211.25 90.7131 1210.44 90.894C1209.64 91.0889 1208.65 91.2071 1207.5 91.2489C1205.36 91.3324 1203.48 91.0471 1201.86 90.3931C1200.26 89.739 1199.02 88.7232 1198.13 87.3455C1197.24 85.9679 1196.8 84.2284 1196.81 82.1271V51.0673ZM1231.8 91.4368C1228.5 91.4368 1225.66 90.7688 1223.28 89.4329C1220.91 88.0831 1219.09 86.1766 1217.81 83.7135C1216.53 81.2365 1215.89 78.3073 1215.89 74.9258C1215.89 71.6277 1216.53 68.7333 1217.81 66.2423C1219.09 63.7514 1220.89 61.8102 1223.22 60.4186C1225.56 59.027 1228.3 58.3313 1231.44 58.3313C1233.56 58.3313 1235.53 58.6722 1237.35 59.3541C1239.19 60.022 1240.79 61.0309 1242.15 62.3807C1243.53 63.7306 1244.6 65.4283 1245.36 67.4739C1246.13 69.5056 1246.51 71.8852 1246.51 74.6126V77.0549H1219.44V71.5442H1238.14C1238.14 70.264 1237.86 69.1299 1237.31 68.1418C1236.75 67.1538 1235.98 66.3815 1234.99 65.8249C1234.02 65.2543 1232.88 64.9691 1231.59 64.9691C1230.24 64.9691 1229.04 65.2822 1228 65.9084C1226.97 66.5207 1226.16 67.3486 1225.58 68.3923C1224.99 69.4221 1224.69 70.5701 1224.68 71.8365V77.0757C1224.68 78.6621 1224.97 80.0328 1225.56 81.1878C1226.15 82.3428 1227 83.2334 1228.08 83.8596C1229.17 84.4859 1230.45 84.799 1231.94 84.799C1232.93 84.799 1233.83 84.6598 1234.66 84.3815C1235.48 84.1032 1236.18 83.6857 1236.76 83.1291C1237.35 82.5724 1237.79 81.8906 1238.1 81.0835L1246.32 81.6262C1245.91 83.6022 1245.05 85.3278 1243.76 86.8028C1242.48 88.264 1240.82 89.4051 1238.79 90.2261C1236.77 91.0332 1234.44 91.4368 1231.8 91.4368ZM1264.13 91.3324C1261.69 91.3324 1259.49 90.7062 1257.51 89.4538C1255.55 88.1874 1253.99 86.3297 1252.84 83.8805C1251.7 81.4174 1251.13 78.3977 1251.13 74.8214C1251.13 71.1476 1251.72 68.0931 1252.9 65.6579C1254.08 63.2087 1255.65 61.3788 1257.62 60.1681C1259.59 58.9435 1261.76 58.3313 1264.11 58.3313C1265.9 58.3313 1267.4 58.6374 1268.6 59.2497C1269.81 59.8481 1270.78 60.5995 1271.52 61.504C1272.27 62.3946 1272.84 63.2713 1273.23 64.1341H1273.5V48.0615H1282.37V90.8105H1273.61V85.6756H1273.23C1272.81 86.5663 1272.22 87.4499 1271.46 88.3266C1270.7 89.1894 1269.72 89.906 1268.51 90.4766C1267.32 91.0471 1265.86 91.3324 1264.13 91.3324ZM1266.95 84.2562C1268.38 84.2562 1269.59 83.8666 1270.58 83.0873C1271.58 82.2941 1272.35 81.1878 1272.88 79.7684C1273.42 78.349 1273.69 76.6861 1273.69 74.7796C1273.69 72.8732 1273.43 71.2172 1272.9 69.8117C1272.37 68.4062 1271.6 67.3208 1270.6 66.5554C1269.6 65.7901 1268.38 65.4074 1266.95 65.4074C1265.49 65.4074 1264.25 65.804 1263.25 66.5972C1262.25 67.3904 1261.49 68.4897 1260.98 69.8952C1260.46 71.3007 1260.21 72.9288 1260.21 74.7796C1260.21 76.6443 1260.46 78.2934 1260.98 79.7267C1261.51 81.1461 1262.26 82.2593 1263.25 83.0664C1264.25 83.8596 1265.49 84.2562 1266.95 84.2562ZM1303.46 90.8105V48.0615H1331.76V55.5133H1312.49V65.6996H1329.88V73.1515H1312.49V90.8105H1303.46ZM1337.67 90.8105V58.7487H1346.56V90.8105H1337.67ZM1342.14 54.6158C1340.82 54.6158 1339.68 54.1774 1338.74 53.3007C1337.8 52.4101 1337.34 51.3456 1337.34 50.1071C1337.34 48.8825 1337.8 47.8318 1338.74 46.9552C1339.68 46.0645 1340.82 45.6192 1342.14 45.6192C1343.46 45.6192 1344.59 46.0645 1345.52 46.9552C1346.47 47.8318 1346.94 48.8825 1346.94 50.1071C1346.94 51.3456 1346.47 52.4101 1345.52 53.3007C1344.59 54.1774 1343.46 54.6158 1342.14 54.6158ZM1362.58 48.0615V90.8105H1353.69V48.0615H1362.58ZM1369.7 90.8105V58.7487H1378.59V90.8105H1369.7ZM1374.17 54.6158C1372.85 54.6158 1371.71 54.1774 1370.77 53.3007C1369.84 52.4101 1369.37 51.3456 1369.37 50.1071C1369.37 48.8825 1369.84 47.8318 1370.77 46.9552C1371.71 46.0645 1372.85 45.6192 1374.17 45.6192C1375.49 45.6192 1376.62 46.0645 1377.55 46.9552C1378.5 47.8318 1378.97 48.8825 1378.97 50.1071C1378.97 51.3456 1378.5 52.4101 1377.55 53.3007C1376.62 54.1774 1375.49 54.6158 1374.17 54.6158ZM1394.61 72.2748V90.8105H1385.72V58.7487H1394.19V64.4055H1394.57C1395.28 62.5408 1396.47 61.0657 1398.14 59.9803C1399.81 58.8809 1401.83 58.3313 1404.21 58.3313C1406.44 58.3313 1408.38 58.8183 1410.04 59.7924C1411.69 60.7665 1412.98 62.1581 1413.9 63.9671C1414.82 65.7623 1415.28 67.9053 1415.28 70.3962V90.8105H1406.38V71.9826C1406.4 70.0205 1405.9 68.4897 1404.88 67.3904C1403.86 66.2771 1402.47 65.7205 1400.68 65.7205C1399.49 65.7205 1398.43 65.9779 1397.51 66.4928C1396.61 67.0077 1395.9 67.7592 1395.38 68.7472C1394.88 69.7213 1394.62 70.8972 1394.61 72.2748ZM1436.73 103.502C1433.85 103.502 1431.38 103.105 1429.32 102.312C1427.27 101.533 1425.64 100.468 1424.43 99.1182C1423.22 97.7684 1422.44 96.2516 1422.07 94.5678L1430.3 93.4615C1430.55 94.1016 1430.95 94.7 1431.49 95.2566C1432.03 95.8132 1432.75 96.2586 1433.64 96.5925C1434.54 96.9404 1435.64 97.1144 1436.94 97.1144C1438.87 97.1144 1440.46 96.6412 1441.72 95.695C1442.98 94.7626 1443.62 93.1971 1443.62 90.9984V85.1329H1443.24C1442.85 86.0235 1442.27 86.8654 1441.49 87.6586C1440.71 88.4518 1439.71 89.0989 1438.48 89.5999C1437.26 90.1008 1435.8 90.3513 1434.1 90.3513C1431.69 90.3513 1429.5 89.7947 1427.52 88.6814C1425.56 87.5543 1424 85.8357 1422.83 83.5257C1421.67 81.2017 1421.09 78.2655 1421.09 74.717C1421.09 71.085 1421.68 68.0514 1422.87 65.6161C1424.05 63.1809 1425.62 61.3579 1427.59 60.1473C1429.56 58.9366 1431.73 58.3313 1434.08 58.3313C1435.87 58.3313 1437.37 58.6374 1438.59 59.2497C1439.8 59.8481 1440.77 60.5995 1441.51 61.504C1442.26 62.3946 1442.84 63.2713 1443.24 64.1341H1443.57V58.7487H1452.4V91.1237C1452.4 93.8511 1451.74 96.1333 1450.4 97.9702C1449.06 99.8071 1447.21 101.185 1444.85 102.103C1442.5 103.036 1439.79 103.502 1436.73 103.502ZM1436.92 83.6718C1438.35 83.6718 1439.56 83.3169 1440.55 82.6072C1441.55 81.8836 1442.32 80.8538 1442.84 79.5179C1443.39 78.1681 1443.66 76.5539 1443.66 74.6753C1443.66 72.7966 1443.39 71.1685 1442.86 69.7909C1442.34 68.3993 1441.57 67.3208 1440.57 66.5554C1439.57 65.7901 1438.35 65.4074 1436.92 65.4074C1435.45 65.4074 1434.22 65.804 1433.22 66.5972C1432.22 67.3765 1431.46 68.4619 1430.95 69.8535C1430.43 71.245 1430.17 72.8523 1430.17 74.6753C1430.17 76.5261 1430.43 78.1264 1430.95 79.4762C1431.47 80.8121 1432.23 81.8488 1433.22 82.5864C1434.22 83.31 1435.45 83.6718 1436.92 83.6718Z" fill="#5F6C84"/>
</g>
</svg>
